{
.appVersion = "1361";
DisplayStrings = (

glyphs = (
{
color = 4;
glyphname = A;
lastChange = "2022-05-11 04:45:39 +0000";
layers = (
{
anchors = (
{
name = bottom;
position = "{638, 0}";
},
{
name = ogonek;
position = "{1148, 10}";
},
{
name = top;
position = "{638, 1427}";
}
);
layerId = "410E5E1C-5FD0-457E-A79B-7BF13808BDAC";
paths = (
{
closed = 1;
nodes = (
"276 0 LINE",
"391 387 LINE",
"877 387 LINE",
"997 0 LINE",
"1262 0 LINE",
"795 1427 LINE",
"477 1427 LINE",
"14 0 LINE"
);
},
{
closed = 1;
nodes = (
"631 1206 LINE",
"635 1206 LINE",
"811 602 LINE",
"455 602 LINE"
);
}
);
userData = {
assembly = "SVTCA[0]	/* SetFreedomAndProjectionVectorToAxis */\012PUSHB[ ]	/* 1 value pushed */\0120 \012RCVT[ ]	/* ReadCVT */\012IF[ ]	/* If */\012PUSHB[ ]	/* 1 value pushed */\0120 \012MDAP[1]	/* MoveDirectAbsPt */\012ELSE[ ]	/* Else */\012PUSHB[ ]	/* 2 values pushed */\0120 23 \012MIAP[0]	/* MoveIndirectAbsPt */\012EIF[ ]	/* EndIf */\012PUSHB[ ]	/* 1 value pushed */\0120 \012RCVT[ ]	/* ReadCVT */\012IF[ ]	/* If */\012PUSHB[ ]	/* 1 value pushed */\0122 \012MDAP[1]	/* MoveDirectAbsPt */\012ELSE[ ]	/* Else */\012PUSHB[ ]	/* 2 values pushed */\0122 17 \012MIAP[0]	/* MoveIndirectAbsPt */\012EIF[ ]	/* EndIf */\012PUSHB[ ]	/* 1 value pushed */\0120 \012RCVT[ ]	/* ReadCVT */\012IF[ ]	/* If */\012PUSHB[ ]	/* 1 value pushed */\0126 \012MDAP[1]	/* MoveDirectAbsPt */\012ELSE[ ]	/* Else */\012PUSHB[ ]	/* 2 values pushed */\0126 17 \012MIAP[0]	/* MoveIndirectAbsPt */\012EIF[ ]	/* EndIf */\012PUSHB[ ]	/* 4 values pushed */\0128 3 4 4 \012CALL[ ]	/* CallFunction */\012PUSHB[ ]	/* 1 value pushed */\0120 \012SRP0[ ]	/* SetRefPoint0 */\012PUSHB[ ]	/* 2 values pushed */\0129 3 \012MIRP[10100]	/* MoveIndirectRelPt */\012IUP[0]	/* InterpolateUntPts */\012IUP[1]	/* InterpolateUntPts */";
};
width = 1276;
}
);
note = A;
unicode = 0041;
},
{
glyphname = Aogonek;
lastChange = "2022-05-11 04:40:54 +0000";
layers = (
{
layerId = "410E5E1C-5FD0-457E-A79B-7BF13808BDAC";
paths = (
{
closed = 1;
nodes = (
"276 0 LINE",
"391 387 LINE",
"877 387 LINE",
"997 0 LINE",
"930.08 -66.92 OFFCURVE",
"864 -166.805 OFFCURVE",
"864 -279 CURVE SMOOTH",
"864 -423.272 OFFCURVE",
"972.244 -500 OFFCURVE",
"1116 -500 CURVE SMOOTH",
"1154.667 -500 OFFCURVE",
"1188.667 -495.333 OFFCURVE",
"1214 -490 CURVE SMOOTH",
"1228.667 -487.333 OFFCURVE",
"1242.333 -483.667 OFFCURVE",
"1255 -479 CURVE",
"1255 -311 LINE",
"1248.333 -312.333 OFFCURVE",
"1241.333 -313.333 OFFCURVE",
"1234 -314 CURVE SMOOTH",
"1220.667 -316 OFFCURVE",
"1204.667 -317 OFFCURVE",
"1186 -317 CURVE SMOOTH",
"1118 -317 OFFCURVE",
"1085 -281 OFFCURVE",
"1085 -225 CURVE SMOOTH",
"1085 -157 OFFCURVE",
"1136.667 -74.667 OFFCURVE",
"1262 0 CURVE",
"795 1427 LINE",
"477 1427 LINE",
"14 0 LINE"
);
},
{
closed = 1;
nodes = (
"631 1206 LINE",
"635 1206 LINE",
"811 602 LINE",
"455 602 LINE"
);
}
);
userData = {
assembly = "PUSHB[ ]	/* 4 values pushed */\0125 10 23 4 \012CALL[ ]	/* CallFunction */\012NPUSHB[ ]	/* 11 values pushed */\0129 23 25 23 41 23 57 23 73 23 5 \012DELTAP1[ ]	/* DeltaExceptionP1 */\012PUSHB[ ]	/* 1 value pushed */\0125 \012SRP0[ ]	/* SetRefPoint0 */\012PUSHB[ ]	/* 1 value pushed */\01238 \012MDRP[11100]	/* MoveDirectRelPt */\012SVTCA[0]	/* SetFreedomAndProjectionVectorToAxis */\012PUSHB[ ]	/* 1 value pushed */\0120 \012RCVT[ ]	/* ReadCVT */\012IF[ ]	/* If */\012PUSHB[ ]	/* 1 value pushed */\0120 \012MDAP[1]	/* MoveDirectAbsPt */\012ELSE[ ]	/* Else */\012PUSHB[ ]	/* 2 values pushed */\0120 23 \012MIAP[0]	/* MoveIndirectAbsPt */\012EIF[ ]	/* EndIf */\012PUSHB[ ]	/* 1 value pushed */\0120 \012RCVT[ ]	/* ReadCVT */\012IF[ ]	/* If */\012PUSHB[ ]	/* 1 value pushed */\0122 \012MDAP[1]	/* MoveDirectAbsPt */\012ELSE[ ]	/* Else */\012PUSHB[ ]	/* 2 values pushed */\0122 17 \012MIAP[0]	/* MoveIndirectAbsPt */\012EIF[ ]	/* EndIf */\012PUSHB[ ]	/* 1 value pushed */\0120 \012RCVT[ ]	/* ReadCVT */\012IF[ ]	/* If */\012PUSHB[ ]	/* 1 value pushed */\01228 \012MDAP[1]	/* MoveDirectAbsPt */\012ELSE[ ]	/* Else */\012PUSHB[ ]	/* 2 values pushed */\01228 17 \012MIAP[0]	/* MoveIndirectAbsPt */\012EIF[ ]	/* EndIf */\012PUSHB[ ]	/* 1 value pushed */\0120 \012RCVT[ ]	/* ReadCVT */\012IF[ ]	/* If */\012PUSHB[ ]	/* 1 value pushed */\01231 \012MDAP[1]	/* MoveDirectAbsPt */\012ELSE[ ]	/* Else */\012PUSHB[ ]	/* 2 values pushed */\01231 17 \012MIAP[0]	/* MoveIndirectAbsPt */\012EIF[ ]	/* EndIf */\012PUSHB[ ]	/* 1 value pushed */\0120 \012RCVT[ ]	/* ReadCVT */\012IF[ ]	/* If */\012PUSHB[ ]	/* 1 value pushed */\01215 \012MDAP[1]	/* MoveDirectAbsPt */\012ELSE[ ]	/* Else */\012PUSHB[ ]	/* 2 values pushed */\01215 19 \012MIAP[0]	/* MoveIndirectAbsPt */\012EIF[ ]	/* EndIf */\012PUSHB[ ]	/* 1 value pushed */\0120 \012RCVT[ ]	/* ReadCVT */\012IF[ ]	/* If */\012PUSHB[ ]	/* 1 value pushed */\01218 \012MDAP[1]	/* MoveDirectAbsPt */\012ELSE[ ]	/* Else */\012PUSHB[ ]	/* 2 values pushed */\01218 19 \012MIAP[0]	/* MoveIndirectAbsPt */\012EIF[ ]	/* EndIf */\012PUSHB[ ]	/* 4 values pushed */\01233 3 29 4 \012CALL[ ]	/* CallFunction */\012PUSHB[ ]	/* 1 value pushed */\01215 \012SRP0[ ]	/* SetRefPoint0 */\012PUSHB[ ]	/* 2 values pushed */\0128 4 \012MIRP[10100]	/* MoveIndirectRelPt */\012NPUSHB[ ]	/* 11 values pushed */\0127 8 23 8 39 8 55 8 71 8 5 \012DELTAP1[ ]	/* DeltaExceptionP1 */\012PUSHB[ ]	/* 1 value pushed */\0120 \012SRP0[ ]	/* SetRefPoint0 */\012PUSHB[ ]	/* 2 values pushed */\01234 3 \012MIRP[10100]	/* MoveIndirectRelPt */\012IUP[0]	/* InterpolateUntPts */\012IUP[1]	/* InterpolateUntPts */";
};
width = 1276;
}
);
note = Aogonek;
unicode = 0104;
},
{
color = 4;
glyphname = AE;
lastChange = "2022-05-11 19:27:22 +0000";
layers = (
{
anchors = (
{
name = bottom;
position = "{857, 0}";
},
{
name = top;
position = "{985, 1427}";
}
);
layerId = "410E5E1C-5FD0-457E-A79B-7BF13808BDAC";
paths = (
{
closed = 1;
nodes = (
"272 0 LINE",
"387 387 LINE",
"873 387 LINE",
"993 0 LINE",
"1643 0 LINE",
"1643 223 LINE",
"1184 223 LINE",
"1057 610 LINE",
"1583 610 LINE",
"1583 829 LINE",
"985 829 LINE",
"862 1204 LINE",
"1567 1204 LINE",
"1567 1427 LINE",
"473 1427 LINE",
"10 0 LINE"
);
},
{
closed = 1;
nodes = (
"629 1204 LINE",
"635 1204 LINE",
"807 602 LINE",
"451 602 LINE"
);
}
);
userData = {
assembly = "SVTCA[0]	/* SetFreedomAndProjectionVectorToAxis */\012PUSHB[ ]	/* 1 value pushed */\0120 \012RCVT[ ]	/* ReadCVT */\012IF[ ]	/* If */\012PUSHB[ ]	/* 1 value pushed */\0120 \012MDAP[1]	/* MoveDirectAbsPt */\012ELSE[ ]	/* Else */\012PUSHB[ ]	/* 2 values pushed */\0120 23 \012MIAP[0]	/* MoveIndirectAbsPt */\012EIF[ ]	/* EndIf */\012PUSHB[ ]	/* 1 value pushed */\0120 \012RCVT[ ]	/* ReadCVT */\012IF[ ]	/* If */\012PUSHB[ ]	/* 1 value pushed */\01210 \012MDAP[1]	/* MoveDirectAbsPt */\012ELSE[ ]	/* Else */\012PUSHB[ ]	/* 2 values pushed */\01210 17 \012MIAP[0]	/* MoveIndirectAbsPt */\012EIF[ ]	/* EndIf */\012PUSHB[ ]	/* 1 value pushed */\0120 \012RCVT[ ]	/* ReadCVT */\012IF[ ]	/* If */\012PUSHB[ ]	/* 1 value pushed */\01214 \012MDAP[1]	/* MoveDirectAbsPt */\012ELSE[ ]	/* Else */\012PUSHB[ ]	/* 2 values pushed */\01214 17 \012MIAP[0]	/* MoveIndirectAbsPt */\012EIF[ ]	/* EndIf */\012PUSHB[ ]	/* 4 values pushed */\01216 3 12 4 \012CALL[ ]	/* CallFunction */\012PUSHB[ ]	/* 1 value pushed */\0120 \012SRP0[ ]	/* SetRefPoint0 */\012PUSHB[ ]	/* 2 values pushed */\0122 3 \012MIRP[10100]	/* MoveIndirectRelPt */\012PUSHB[ ]	/* 1 value pushed */\01216 \012SRP0[ ]	/* SetRefPoint0 */\012PUSHB[ ]	/* 1 value pushed */\0126 \012MDRP[10000]	/* MoveDirectRelPt */\012PUSHB[ ]	/* 1 value pushed */\0126 \012MDAP[1]	/* MoveDirectAbsPt */\012PUSHB[ ]	/* 2 values pushed */\0125 3 \012MIRP[10100]	/* MoveIndirectRelPt */\012PUSHB[ ]	/* 1 value pushed */\01210 \012SRP0[ ]	/* SetRefPoint0 */\012PUSHB[ ]	/* 2 values pushed */\0128 3 \012MIRP[10100]	/* MoveIndirectRelPt */\012PUSHB[ ]	/* 1 value pushed */\0122 \012SRP0[ ]	/* SetRefPoint0 */\012PUSHB[ ]	/* 1 value pushed */\01217 \012MDRP[10000]	/* MoveDirectRelPt */\012PUSHB[ ]	/* 1 value pushed */\01218 \012MDRP[10000]	/* MoveDirectRelPt */\012IUP[0]	/* InterpolateUntPts */\012IUP[1]	/* InterpolateUntPts */";
};
width = 1735;
}
);
note = AE;
rightMetricsKey = E;
unicode = 00C6;
},
{
color = 4;
glyphname = B;
lastChange = "2022-05-11 19:54:07 +0000";
layers = (
{
anchors = (
{
name = bottom;
position = "{646, 0}";
},
{
name = top;
position = "{646, 1427}";
}
);
layerId = "410E5E1C-5FD0-457E-A79B-7BF13808BDAC";
paths = (
{
closed = 1;
nodes = (
"760 0 LINE SMOOTH",
"904 0 OFFCURVE",
"1012 18 OFFCURVE",
"1082 81 CURVE SMOOTH",
"1152 144 OFFCURVE",
"1186 250 OFFCURVE",
"1186 426 CURVE SMOOTH",
"1186 514 OFFCURVE",
"1167 579 OFFCURVE",
"1139 626 CURVE SMOOTH",
"1125 649 OFFCURVE",
"1109 669 OFFCURVE",
"1092 684 CURVE SMOOTH",
"1045 724 OFFCURVE",
"987 743 OFFCURVE",
"944 748 CURVE",
"944 750 LINE",
"981 758 OFFCURVE",
"1027 773 OFFCURVE",
"1062 814 CURVE SMOOTH",
"1097 855 OFFCURVE",
"1123 923 OFFCURVE",
"1123 1036 CURVE SMOOTH",
"1123 1169 OFFCURVE",
"1095 1267 OFFCURVE",
"1032 1332 CURVE SMOOTH",
"968 1396 OFFCURVE",
"871 1427 OFFCURVE",
"731 1427 CURVE SMOOTH",
"172 1427 LINE",
"172 0 LINE"
);
},
{
closed = 1;
nodes = (
"412 1208 LINE",
"690 1208 LINE SMOOTH",
"819 1208 OFFCURVE",
"885 1161 OFFCURVE",
"885 1024 CURVE SMOOTH",
"885 859 OFFCURVE",
"834 825 OFFCURVE",
"684 825 CURVE SMOOTH",
"412 825 LINE"
);
},
{
closed = 1;
nodes = (
"412 621 LINE",
"719 621 LINE SMOOTH",
"875 621 OFFCURVE",
"934 590 OFFCURVE",
"934 422 CURVE SMOOTH",
"934 260 OFFCURVE",
"865 219 OFFCURVE",
"731 219 CURVE SMOOTH",
"412 219 LINE"
);
}
);
userData = {
assembly = "PUSHB[ ]	/* 4 values pushed */\01237 12 0 4 \012CALL[ ]	/* CallFunction */\012PUSHB[ ]	/* 4 values pushed */\0126 13 31 4 \012CALL[ ]	/* CallFunction */\012NPUSHB[ ]	/* 11 values pushed */\0129 31 25 31 41 31 57 31 73 31 5 \012DELTAP1[ ]	/* DeltaExceptionP1 */\012PUSHB[ ]	/* 3 values pushed */\01212 31 6 \012SRP1[ ]	/* SetRefPoint1 */\012SRP2[ ]	/* SetRefPoint2 */\012IP[ ]	/* InterpolatePts */\012PUSHB[ ]	/* 3 values pushed */\01244 31 6 \012SRP1[ ]	/* SetRefPoint1 */\012SRP2[ ]	/* SetRefPoint2 */\012IP[ ]	/* InterpolatePts */\012PUSHB[ ]	/* 1 value pushed */\01244 \012MDAP[1]	/* MoveDirectAbsPt */\012NPUSHB[ ]	/* 11 values pushed */\0129 44 25 44 41 44 57 44 73 44 5 \012DELTAP1[ ]	/* DeltaExceptionP1 */\012PUSHB[ ]	/* 2 values pushed */\01219 11 \012MIRP[10100]	/* MoveIndirectRelPt */\012PUSHB[ ]	/* 1 value pushed */\01237 \012SRP0[ ]	/* SetRefPoint0 */\012PUSHB[ ]	/* 1 value pushed */\01250 \012MDRP[10000]	/* MoveDirectRelPt */\012PUSHB[ ]	/* 1 value pushed */\01219 \012SRP0[ ]	/* SetRefPoint0 */\012PUSHB[ ]	/* 1 value pushed */\01253 \012MDRP[11100]	/* MoveDirectRelPt */\012SVTCA[0]	/* SetFreedomAndProjectionVectorToAxis */\012PUSHB[ ]	/* 1 value pushed */\0120 \012RCVT[ ]	/* ReadCVT */\012IF[ ]	/* If */\012PUSHB[ ]	/* 1 value pushed */\0120 \012MDAP[1]	/* MoveDirectAbsPt */\012ELSE[ ]	/* Else */\012PUSHB[ ]	/* 2 values pushed */\0120 23 \012MIAP[0]	/* MoveIndirectAbsPt */\012EIF[ ]	/* EndIf */\012PUSHB[ ]	/* 1 value pushed */\0120 \012RCVT[ ]	/* ReadCVT */\012IF[ ]	/* If */\012PUSHB[ ]	/* 1 value pushed */\01224 \012MDAP[1]	/* MoveDirectAbsPt */\012ELSE[ ]	/* Else */\012PUSHB[ ]	/* 2 values pushed */\01224 17 \012MIAP[0]	/* MoveIndirectAbsPt */\012EIF[ ]	/* EndIf */\012PUSHB[ ]	/* 4 values pushed */\01226 5 49 4 \012CALL[ ]	/* CallFunction */\012PUSHB[ ]	/* 3 values pushed */\01212 49 26 \012SRP1[ ]	/* SetRefPoint1 */\012SRP2[ ]	/* SetRefPoint2 */\012IP[ ]	/* InterpolatePts */\012PUSHB[ ]	/* 1 value pushed */\0120 \012SRP0[ ]	/* SetRefPoint0 */\012PUSHB[ ]	/* 2 values pushed */\01236 3 \012MIRP[10100]	/* MoveIndirectRelPt */\012PUSHB[ ]	/* 1 value pushed */\01224 \012SRP0[ ]	/* SetRefPoint0 */\012PUSHB[ ]	/* 2 values pushed */\01239 3 \012MIRP[10100]	/* MoveIndirectRelPt */\012IUP[0]	/* InterpolateUntPts */\012IUP[1]	/* InterpolateUntPts */";
};
width = 1296;
}
);
leftMetricsKey = "=H";
note = B;
unicode = 0042;
},
{
color = 4;
glyphname = C;
lastChange = "2022-05-11 05:00:11 +0000";
layers = (
{
anchors = (
{
name = bottom;
position = "{649, 0}";
},
{
name = top;
position = "{672, 1427}";
}
);
layerId = "410E5E1C-5FD0-457E-A79B-7BF13808BDAC";
paths = (
{
closed = 1;
nodes = (
"805.333 -25 OFFCURVE",
"905.667 -10 OFFCURVE",
"975 6 CURVE SMOOTH",
"1015 14.667 OFFCURVE",
"1049.667 25 OFFCURVE",
"1079 37 CURVE",
"1079 209 LINE",
"1055 207 OFFCURVE",
"1028 205 OFFCURVE",
"998 203 CURVE SMOOTH",
"947.333 200.333 OFFCURVE",
"874 197 OFFCURVE",
"786 197 CURVE SMOOTH",
"718 197 OFFCURVE",
"648.667 200.167 OFFCURVE",
"586 223.5 CURVE SMOOTH",
"554.667 235.167 OFFCURVE",
"525.667 252.333 OFFCURVE",
"499 275 CURVE SMOOTH",
"445.667 320.333 OFFCURVE",
"404.667 397.667 OFFCURVE",
"382 515 CURVE SMOOTH",
"370.667 573.667 OFFCURVE",
"365 644.333 OFFCURVE",
"365 727 CURVE SMOOTH",
"365 884.333 OFFCURVE",
"388.167 992.5 OFFCURVE",
"427.5 1066.5 CURVE SMOOTH",
"447.167 1103.5 OFFCURVE",
"470.333 1132.667 OFFCURVE",
"497 1154 CURVE SMOOTH",
"550.333 1196.667 OFFCURVE",
"613.167 1217.667 OFFCURVE",
"680.5 1223 CURVE SMOOTH",
"714.167 1225.667 OFFCURVE",
"748 1227 OFFCURVE",
"782 1227 CURVE SMOOTH",
"856.667 1227 OFFCURVE",
"927.667 1222.667 OFFCURVE",
"981 1220 CURVE SMOOTH",
"1012.333 1218 OFFCURVE",
"1041.667 1216 OFFCURVE",
"1069 1214 CURVE",
"1069 1386 LINE",
"1041.667 1398 OFFCURVE",
"1008.667 1408.667 OFFCURVE",
"970 1418 CURVE SMOOTH",
"903.333 1434 OFFCURVE",
"805.333 1450 OFFCURVE",
"672 1450 CURVE SMOOTH",
"593.333 1450 OFFCURVE",
"505.667 1435.333 OFFCURVE",
"423 1394 CURVE SMOOTH",
"381.667 1373.333 OFFCURVE",
"342.333 1345.5 OFFCURVE",
"305 1310.5 CURVE SMOOTH",
"230.333 1240.5 OFFCURVE",
"173.333 1133.167 OFFCURVE",
"140 984.5 CURVE SMOOTH",
"123.333 910.167 OFFCURVE",
"115 823.667 OFFCURVE",
"115 725 CURVE SMOOTH",
"115 519.667 OFFCURVE",
"146 368.833 OFFCURVE",
"198 257.5 CURVE SMOOTH",
"224 201.833 OFFCURVE",
"254.667 155.833 OFFCURVE",
"290 119.5 CURVE SMOOTH",
"360.667 46.833 OFFCURVE",
"443.167 5.333 OFFCURVE",
"534.5 -12 CURVE SMOOTH",
"580.167 -20.667 OFFCURVE",
"626 -25 OFFCURVE",
"672 -25 CURVE"
);
}
);
userData = {
assembly = "PUSHB[ ]	/* 4 values pushed */\01232 11 7 4 \012CALL[ ]	/* CallFunction */\012NPUSHB[ ]	/* 11 values pushed */\0126 32 22 32 38 32 54 32 70 32 5 \012DELTAP1[ ]	/* DeltaExceptionP1 */\012SVTCA[0]	/* SetFreedomAndProjectionVectorToAxis */\012PUSHB[ ]	/* 1 value pushed */\0120 \012RCVT[ ]	/* ReadCVT */\012IF[ ]	/* If */\012PUSHB[ ]	/* 1 value pushed */\01214 \012MDAP[1]	/* MoveDirectAbsPt */\012ELSE[ ]	/* Else */\012PUSHB[ ]	/* 2 values pushed */\01214 23 \012MIAP[0]	/* MoveIndirectAbsPt */\012EIF[ ]	/* EndIf */\012PUSHB[ ]	/* 1 value pushed */\0120 \012RCVT[ ]	/* ReadCVT */\012IF[ ]	/* If */\012PUSHB[ ]	/* 1 value pushed */\0120 \012MDAP[1]	/* MoveDirectAbsPt */\012ELSE[ ]	/* Else */\012PUSHB[ ]	/* 2 values pushed */\0120 17 \012MIAP[0]	/* MoveIndirectAbsPt */\012EIF[ ]	/* EndIf */\012PUSHB[ ]	/* 1 value pushed */\01214 \012SRP0[ ]	/* SetRefPoint0 */\012PUSHB[ ]	/* 2 values pushed */\01220 3 \012MIRP[10100]	/* MoveIndirectRelPt */\012PUSHB[ ]	/* 1 value pushed */\01222 \012MDRP[10000]	/* MoveDirectRelPt */\012PUSHB[ ]	/* 1 value pushed */\01222 \012MDAP[1]	/* MoveDirectAbsPt */\012PUSHB[ ]	/* 1 value pushed */\01225 \012MDRP[10000]	/* MoveDirectRelPt */\012PUSHB[ ]	/* 1 value pushed */\0120 \012SRP0[ ]	/* SetRefPoint0 */\012PUSHB[ ]	/* 2 values pushed */\01239 3 \012MIRP[10100]	/* MoveIndirectRelPt */\012NPUSHB[ ]	/* 11 values pushed */\0127 39 23 39 39 39 55 39 71 39 5 \012DELTAP1[ ]	/* DeltaExceptionP1 */\012PUSHB[ ]	/* 1 value pushed */\01242 \012MDRP[10000]	/* MoveDirectRelPt */\012PUSHB[ ]	/* 1 value pushed */\01242 \012MDAP[1]	/* MoveDirectAbsPt */\012PUSHB[ ]	/* 1 value pushed */\01244 \012MDRP[10000]	/* MoveDirectRelPt */\012PUSHB[ ]	/* 1 value pushed */\01244 \012MDAP[1]	/* MoveDirectAbsPt */\012IUP[0]	/* InterpolateUntPts */\012IUP[1]	/* InterpolateUntPts */";
};
width = 1179;
}
);
note = C;
unicode = 0043;
},
{
color = 4;
glyphname = D;
lastChange = "2022-05-11 19:54:07 +0000";
layers = (
{
anchors = (
{
name = bottom;
position = "{675, 0}";
},
{
name = center;
position = "{675, 714}";
},
{
name = top;
position = "{675, 1427}";
}
);
layerId = "410E5E1C-5FD0-457E-A79B-7BF13808BDAC";
paths = (
{
closed = 1;
nodes = (
"684 0 LINE SMOOTH",
"797 0 OFFCURVE",
"897 12 OFFCURVE",
"981 52 CURVE SMOOTH",
"1022 71 OFFCURVE",
"1059 98 OFFCURVE",
"1092 133 CURVE SMOOTH",
"1157 201 OFFCURVE",
"1203 307 OFFCURVE",
"1227 459 CURVE SMOOTH",
"1239 534 OFFCURVE",
"1245 623 OFFCURVE",
"1245 725 CURVE SMOOTH",
"1245 922 OFFCURVE",
"1218 1067 OFFCURVE",
"1170 1171 CURVE SMOOTH",
"1146 1223 OFFCURVE",
"1117 1266 OFFCURVE",
"1083 1299 CURVE SMOOTH",
"1015 1366 OFFCURVE",
"932 1401 OFFCURVE",
"836 1416 CURVE SMOOTH",
"787 1423 OFFCURVE",
"737 1427 OFFCURVE",
"684 1427 CURVE SMOOTH",
"172 1427 LINE",
"172 0 LINE"
);
},
{
closed = 1;
nodes = (
"412 1204 LINE",
"619 1204 LINE SMOOTH",
"690 1204 OFFCURVE",
"755 1203 OFFCURVE",
"811 1184 CURVE SMOOTH",
"839 1174 OFFCURVE",
"864 1159 OFFCURVE",
"887 1140 CURVE SMOOTH",
"931 1100 OFFCURVE",
"964 1031 OFFCURVE",
"981 924 CURVE SMOOTH",
"990 870 OFFCURVE",
"994 804 OFFCURVE",
"994 727 CURVE SMOOTH",
"994 560 OFFCURVE",
"975 450 OFFCURVE",
"943 375 CURVE SMOOTH",
"926 338 OFFCURVE",
"907 309 OFFCURVE",
"884 289 CURVE SMOOTH",
"838 248 OFFCURVE",
"782 229 OFFCURVE",
"718 226 CURVE SMOOTH",
"686 224 OFFCURVE",
"653 223 OFFCURVE",
"619 223 CURVE SMOOTH",
"412 223 LINE"
);
}
);
userData = {
assembly = "PUSHB[ ]	/* 1 value pushed */\01234 \012MDAP[1]	/* MoveDirectAbsPt */\012PUSHB[ ]	/* 1 value pushed */\01224 \012MDAP[1]	/* MoveDirectAbsPt */\012PUSHB[ ]	/* 1 value pushed */\01234 \012SRP0[ ]	/* SetRefPoint0 */\012PUSHB[ ]	/* 1 value pushed */\0120 \012MDRP[10000]	/* MoveDirectRelPt */\012PUSHB[ ]	/* 1 value pushed */\0120 \012MDAP[1]	/* MoveDirectAbsPt */\012NPUSHB[ ]	/* 11 values pushed */\0129 24 25 24 41 24 57 24 73 24 5 \012DELTAP1[ ]	/* DeltaExceptionP1 */\012PUSHB[ ]	/* 1 value pushed */\01224 \012SRP0[ ]	/* SetRefPoint0 */\012PUSHB[ ]	/* 2 values pushed */\0128 11 \012MIRP[10100]	/* MoveIndirectRelPt */\012PUSHB[ ]	/* 1 value pushed */\0120 \012SRP0[ ]	/* SetRefPoint0 */\012PUSHB[ ]	/* 2 values pushed */\01232 12 \012MIRP[10100]	/* MoveIndirectRelPt */\012PUSHB[ ]	/* 1 value pushed */\0128 \012SRP0[ ]	/* SetRefPoint0 */\012PUSHB[ ]	/* 1 value pushed */\01235 \012MDRP[11100]	/* MoveDirectRelPt */\012SVTCA[0]	/* SetFreedomAndProjectionVectorToAxis */\012PUSHB[ ]	/* 1 value pushed */\0120 \012RCVT[ ]	/* ReadCVT */\012IF[ ]	/* If */\012PUSHB[ ]	/* 1 value pushed */\0120 \012MDAP[1]	/* MoveDirectAbsPt */\012ELSE[ ]	/* Else */\012PUSHB[ ]	/* 2 values pushed */\0120 23 \012MIAP[0]	/* MoveIndirectAbsPt */\012EIF[ ]	/* EndIf */\012PUSHB[ ]	/* 1 value pushed */\0120 \012RCVT[ ]	/* ReadCVT */\012IF[ ]	/* If */\012PUSHB[ ]	/* 1 value pushed */\01215 \012MDAP[1]	/* MoveDirectAbsPt */\012ELSE[ ]	/* Else */\012PUSHB[ ]	/* 2 values pushed */\01215 17 \012MIAP[0]	/* MoveIndirectAbsPt */\012EIF[ ]	/* EndIf */\012PUSHB[ ]	/* 2 values pushed */\01217 3 \012MIRP[10100]	/* MoveIndirectRelPt */\012PUSHB[ ]	/* 1 value pushed */\0120 \012SRP0[ ]	/* SetRefPoint0 */\012PUSHB[ ]	/* 2 values pushed */\01231 3 \012MIRP[10100]	/* MoveIndirectRelPt */\012IUP[0]	/* InterpolateUntPts */\012IUP[1]	/* InterpolateUntPts */";
};
width = 1345;
}
);
leftMetricsKey = "=H";
note = D;
unicode = 0044;
},
{
glyphname = Eth;
lastChange = "2022-05-11 04:40:54 +0000";
layers = (
{
layerId = "410E5E1C-5FD0-457E-A79B-7BF13808BDAC";
paths = (
{
closed = 1;
nodes = (
"743 0 LINE SMOOTH",
"856.333 0 OFFCURVE",
"956.167 12.167 OFFCURVE",
"1039.5 51.5 CURVE SMOOTH",
"1081.167 71.167 OFFCURVE",
"1118.333 98.167 OFFCURVE",
"1151 132.5 CURVE SMOOTH",
"1216.333 201.167 OFFCURVE",
"1262 307.167 OFFCURVE",
"1286 458.5 CURVE SMOOTH",
"1298 534.167 OFFCURVE",
"1304 623 OFFCURVE",
"1304 725 CURVE SMOOTH",
"1304 922.333 OFFCURVE",
"1277 1067 OFFCURVE",
"1229 1171 CURVE SMOOTH",
"1205 1223 OFFCURVE",
"1176 1265.667 OFFCURVE",
"1142 1299 CURVE SMOOTH",
"1074 1365.667 OFFCURVE",
"991.167 1401.333 OFFCURVE",
"894.5 1416 CURVE SMOOTH",
"846.167 1423.333 OFFCURVE",
"795.667 1427 OFFCURVE",
"743 1427 CURVE SMOOTH",
"231 1427 LINE",
"231 823 LINE",
"60 823 LINE",
"60 605 LINE",
"231 605 LINE",
"231 0 LINE"
);
},
{
closed = 1;
nodes = (
"471 605 LINE",
"795 605 LINE",
"795 823 LINE",
"471 823 LINE",
"471 1204 LINE",
"678 1204 LINE SMOOTH",
"748.667 1204 OFFCURVE",
"814 1202.833 OFFCURVE",
"870 1183.5 CURVE SMOOTH",
"898 1173.833 OFFCURVE",
"923.167 1159.167 OFFCURVE",
"945.5 1139.5 CURVE SMOOTH",
"990.167 1100.167 OFFCURVE",
"1022.667 1030.833 OFFCURVE",
"1040 923.5 CURVE SMOOTH",
"1048.667 869.833 OFFCURVE",
"1053 804.333 OFFCURVE",
"1053 727 CURVE SMOOTH",
"1053 560.333 OFFCURVE",
"1034.167 449.667 OFFCURVE",
"1001.5 375 CURVE SMOOTH",
"985.167 337.667 OFFCURVE",
"965.5 308.833 OFFCURVE",
"942.5 288.5 CURVE SMOOTH",
"896.5 247.833 OFFCURVE",
"841 228.833 OFFCURVE",
"777 225.5 CURVE SMOOTH",
"745 223.833 OFFCURVE",
"712 223 OFFCURVE",
"678 223 CURVE SMOOTH",
"471 223 LINE"
);
}
);
userData = {
assembly = "PUSHB[ ]	/* 4 values pushed */\01212 11 28 4 \012CALL[ ]	/* CallFunction */\012PUSHB[ ]	/* 3 values pushed */\01239 1 3 \012CALL[ ]	/* CallFunction */\012PUSHB[ ]	/* 3 values pushed */\0120 1 39 \012SRP1[ ]	/* SetRefPoint1 */\012SRP2[ ]	/* SetRefPoint2 */\012IP[ ]	/* InterpolatePts */\012PUSHB[ ]	/* 1 value pushed */\0120 \012MDAP[1]	/* MoveDirectAbsPt */\012PUSHB[ ]	/* 1 value pushed */\0123 \012MDRP[10000]	/* MoveDirectRelPt */\012NPUSHB[ ]	/* 11 values pushed */\0129 28 25 28 41 28 57 28 73 28 5 \012DELTAP1[ ]	/* DeltaExceptionP1 */\012PUSHB[ ]	/* 1 value pushed */\0120 \012SRP0[ ]	/* SetRefPoint0 */\012PUSHB[ ]	/* 2 values pushed */\01240 12 \012MIRP[10100]	/* MoveIndirectRelPt */\012PUSHB[ ]	/* 1 value pushed */\01236 \012MDRP[10000]	/* MoveDirectRelPt */\012PUSHB[ ]	/* 1 value pushed */\01212 \012SRP0[ ]	/* SetRefPoint0 */\012PUSHB[ ]	/* 1 value pushed */\01243 \012MDRP[11100]	/* MoveDirectRelPt */\012SVTCA[0]	/* SetFreedomAndProjectionVectorToAxis */\012PUSHB[ ]	/* 1 value pushed */\0120 \012RCVT[ ]	/* ReadCVT */\012IF[ ]	/* If */\012PUSHB[ ]	/* 1 value pushed */\0124 \012MDAP[1]	/* MoveDirectAbsPt */\012ELSE[ ]	/* Else */\012PUSHB[ ]	/* 2 values pushed */\0124 23 \012MIAP[0]	/* MoveIndirectAbsPt */\012EIF[ ]	/* EndIf */\012PUSHB[ ]	/* 1 value pushed */\0120 \012RCVT[ ]	/* ReadCVT */\012IF[ ]	/* If */\012PUSHB[ ]	/* 1 value pushed */\01219 \012MDAP[1]	/* MoveDirectAbsPt */\012ELSE[ ]	/* Else */\012PUSHB[ ]	/* 2 values pushed */\01219 17 \012MIAP[0]	/* MoveIndirectAbsPt */\012EIF[ ]	/* EndIf */\012PUSHB[ ]	/* 4 values pushed */\0123 3 0 4 \012CALL[ ]	/* CallFunction */\012PUSHB[ ]	/* 1 value pushed */\01219 \012SRP0[ ]	/* SetRefPoint0 */\012PUSHB[ ]	/* 2 values pushed */\01221 3 \012MIRP[10100]	/* MoveIndirectRelPt */\012PUSHB[ ]	/* 1 value pushed */\0124 \012SRP0[ ]	/* SetRefPoint0 */\012PUSHB[ ]	/* 2 values pushed */\01235 3 \012MIRP[10100]	/* MoveIndirectRelPt */\012PUSHB[ ]	/* 1 value pushed */\0123 \012SRP0[ ]	/* SetRefPoint0 */\012PUSHB[ ]	/* 1 value pushed */\01237 \012MDRP[10000]	/* MoveDirectRelPt */\012PUSHB[ ]	/* 1 value pushed */\0120 \012SRP0[ ]	/* SetRefPoint0 */\012PUSHB[ ]	/* 1 value pushed */\01239 \012MDRP[10000]	/* MoveDirectRelPt */\012IUP[0]	/* InterpolateUntPts */\012IUP[1]	/* InterpolateUntPts */";
};
width = 1419;
}
);
note = Eth;
unicode = 00D0;
},
{
glyphname = Dcroat;
lastChange = "2022-05-11 04:40:54 +0000";
layers = (
{
layerId = "410E5E1C-5FD0-457E-A79B-7BF13808BDAC";
paths = (
{
closed = 1;
nodes = (
"743 0 LINE SMOOTH",
"856.333 0 OFFCURVE",
"956.167 12.167 OFFCURVE",
"1039.5 51.5 CURVE SMOOTH",
"1081.167 71.167 OFFCURVE",
"1118.333 98.167 OFFCURVE",
"1151 132.5 CURVE SMOOTH",
"1216.333 201.167 OFFCURVE",
"1262 307.167 OFFCURVE",
"1286 458.5 CURVE SMOOTH",
"1298 534.167 OFFCURVE",
"1304 623 OFFCURVE",
"1304 725 CURVE SMOOTH",
"1304 922.333 OFFCURVE",
"1277 1067 OFFCURVE",
"1229 1171 CURVE SMOOTH",
"1205 1223 OFFCURVE",
"1176 1265.667 OFFCURVE",
"1142 1299 CURVE SMOOTH",
"1074 1365.667 OFFCURVE",
"991.167 1401.333 OFFCURVE",
"894.5 1416 CURVE SMOOTH",
"846.167 1423.333 OFFCURVE",
"795.667 1427 OFFCURVE",
"743 1427 CURVE SMOOTH",
"231 1427 LINE",
"231 823 LINE",
"60 823 LINE",
"60 605 LINE",
"231 605 LINE",
"231 0 LINE"
);
},
{
closed = 1;
nodes = (
"471 605 LINE",
"795 605 LINE",
"795 823 LINE",
"471 823 LINE",
"471 1204 LINE",
"678 1204 LINE SMOOTH",
"748.667 1204 OFFCURVE",
"814 1202.833 OFFCURVE",
"870 1183.5 CURVE SMOOTH",
"898 1173.833 OFFCURVE",
"923.167 1159.167 OFFCURVE",
"945.5 1139.5 CURVE SMOOTH",
"990.167 1100.167 OFFCURVE",
"1022.667 1030.833 OFFCURVE",
"1040 923.5 CURVE SMOOTH",
"1048.667 869.833 OFFCURVE",
"1053 804.333 OFFCURVE",
"1053 727 CURVE SMOOTH",
"1053 560.333 OFFCURVE",
"1034.167 449.667 OFFCURVE",
"1001.5 375 CURVE SMOOTH",
"985.167 337.667 OFFCURVE",
"965.5 308.833 OFFCURVE",
"942.5 288.5 CURVE SMOOTH",
"896.5 247.833 OFFCURVE",
"841 228.833 OFFCURVE",
"777 225.5 CURVE SMOOTH",
"745 223.833 OFFCURVE",
"712 223 OFFCURVE",
"678 223 CURVE SMOOTH",
"471 223 LINE"
);
}
);
userData = {
assembly = "PUSHB[ ]	/* 4 values pushed */\01212 11 28 4 \012CALL[ ]	/* CallFunction */\012PUSHB[ ]	/* 3 values pushed */\01239 1 3 \012CALL[ ]	/* CallFunction */\012PUSHB[ ]	/* 3 values pushed */\0120 1 39 \012SRP1[ ]	/* SetRefPoint1 */\012SRP2[ ]	/* SetRefPoint2 */\012IP[ ]	/* InterpolatePts */\012PUSHB[ ]	/* 1 value pushed */\0120 \012MDAP[1]	/* MoveDirectAbsPt */\012PUSHB[ ]	/* 1 value pushed */\0123 \012MDRP[10000]	/* MoveDirectRelPt */\012NPUSHB[ ]	/* 11 values pushed */\0129 28 25 28 41 28 57 28 73 28 5 \012DELTAP1[ ]	/* DeltaExceptionP1 */\012PUSHB[ ]	/* 1 value pushed */\0120 \012SRP0[ ]	/* SetRefPoint0 */\012PUSHB[ ]	/* 2 values pushed */\01240 12 \012MIRP[10100]	/* MoveIndirectRelPt */\012PUSHB[ ]	/* 1 value pushed */\01236 \012MDRP[10000]	/* MoveDirectRelPt */\012PUSHB[ ]	/* 1 value pushed */\01212 \012SRP0[ ]	/* SetRefPoint0 */\012PUSHB[ ]	/* 1 value pushed */\01243 \012MDRP[11100]	/* MoveDirectRelPt */\012SVTCA[0]	/* SetFreedomAndProjectionVectorToAxis */\012PUSHB[ ]	/* 1 value pushed */\0120 \012RCVT[ ]	/* ReadCVT */\012IF[ ]	/* If */\012PUSHB[ ]	/* 1 value pushed */\0124 \012MDAP[1]	/* MoveDirectAbsPt */\012ELSE[ ]	/* Else */\012PUSHB[ ]	/* 2 values pushed */\0124 23 \012MIAP[0]	/* MoveIndirectAbsPt */\012EIF[ ]	/* EndIf */\012PUSHB[ ]	/* 1 value pushed */\0120 \012RCVT[ ]	/* ReadCVT */\012IF[ ]	/* If */\012PUSHB[ ]	/* 1 value pushed */\01219 \012MDAP[1]	/* MoveDirectAbsPt */\012ELSE[ ]	/* Else */\012PUSHB[ ]	/* 2 values pushed */\01219 17 \012MIAP[0]	/* MoveIndirectAbsPt */\012EIF[ ]	/* EndIf */\012PUSHB[ ]	/* 4 values pushed */\0123 3 0 4 \012CALL[ ]	/* CallFunction */\012PUSHB[ ]	/* 1 value pushed */\01219 \012SRP0[ ]	/* SetRefPoint0 */\012PUSHB[ ]	/* 2 values pushed */\01221 3 \012MIRP[10100]	/* MoveIndirectRelPt */\012PUSHB[ ]	/* 1 value pushed */\0124 \012SRP0[ ]	/* SetRefPoint0 */\012PUSHB[ ]	/* 2 values pushed */\01235 3 \012MIRP[10100]	/* MoveIndirectRelPt */\012PUSHB[ ]	/* 1 value pushed */\0123 \012SRP0[ ]	/* SetRefPoint0 */\012PUSHB[ ]	/* 1 value pushed */\01237 \012MDRP[10000]	/* MoveDirectRelPt */\012PUSHB[ ]	/* 1 value pushed */\0120 \012SRP0[ ]	/* SetRefPoint0 */\012PUSHB[ ]	/* 1 value pushed */\01239 \012MDRP[10000]	/* MoveDirectRelPt */\012IUP[0]	/* InterpolateUntPts */\012IUP[1]	/* InterpolateUntPts */";
};
width = 1419;
}
);
note = Dcroat;
unicode = 0110;
},
{
color = 4;
glyphname = E;
lastChange = "2022-05-11 19:54:07 +0000";
layers = (
{
anchors = (
{
name = bottom;
position = "{605, 0}";
},
{
name = ogonek;
position = "{1047, 0}";
},
{
name = top;
position = "{611, 1427}";
},
{
name = topleft;
position = "{10, 1427}";
}
);
layerId = "410E5E1C-5FD0-457E-A79B-7BF13808BDAC";
paths = (
{
closed = 1;
nodes = (
"1047 0 LINE",
"1047 223 LINE",
"412 223 LINE",
"412 610 LINE",
"930 610 LINE",
"930 829 LINE",
"412 829 LINE",
"412 1204 LINE",
"1030 1204 LINE",
"1030 1427 LINE",
"172 1427 LINE",
"172 0 LINE"
);
}
);
userData = {
assembly = "PUSHB[ ]	/* 4 values pushed */\0123 12 0 4 \012CALL[ ]	/* CallFunction */\012PUSHB[ ]	/* 1 value pushed */\0123 \012SRP0[ ]	/* SetRefPoint0 */\012PUSHB[ ]	/* 1 value pushed */\0127 \012MDRP[10000]	/* MoveDirectRelPt */\012SVTCA[0]	/* SetFreedomAndProjectionVectorToAxis */\012PUSHB[ ]	/* 1 value pushed */\0120 \012RCVT[ ]	/* ReadCVT */\012IF[ ]	/* If */\012PUSHB[ ]	/* 1 value pushed */\0120 \012MDAP[1]	/* MoveDirectAbsPt */\012ELSE[ ]	/* Else */\012PUSHB[ ]	/* 2 values pushed */\0120 23 \012MIAP[0]	/* MoveIndirectAbsPt */\012EIF[ ]	/* EndIf */\012PUSHB[ ]	/* 1 value pushed */\0120 \012RCVT[ ]	/* ReadCVT */\012IF[ ]	/* If */\012PUSHB[ ]	/* 1 value pushed */\01210 \012MDAP[1]	/* MoveDirectAbsPt */\012ELSE[ ]	/* Else */\012PUSHB[ ]	/* 2 values pushed */\01210 17 \012MIAP[0]	/* MoveIndirectAbsPt */\012EIF[ ]	/* EndIf */\012PUSHB[ ]	/* 4 values pushed */\0125 3 6 4 \012CALL[ ]	/* CallFunction */\012PUSHB[ ]	/* 1 value pushed */\0120 \012SRP0[ ]	/* SetRefPoint0 */\012PUSHB[ ]	/* 2 values pushed */\0122 3 \012MIRP[10100]	/* MoveIndirectRelPt */\012PUSHB[ ]	/* 1 value pushed */\01210 \012SRP0[ ]	/* SetRefPoint0 */\012PUSHB[ ]	/* 2 values pushed */\0128 3 \012MIRP[10100]	/* MoveIndirectRelPt */\012IUP[0]	/* InterpolateUntPts */\012IUP[1]	/* InterpolateUntPts */";
};
width = 1139;
}
);
leftMetricsKey = "=H";
note = E;
unicode = 0045;
},
{
glyphname = Eogonek;
lastChange = "2022-05-11 19:54:07 +0000";
layers = (
{
layerId = "410E5E1C-5FD0-457E-A79B-7BF13808BDAC";
paths = (
{
closed = 1;
nodes = (
"785 0 LINE",
"720 -68 OFFCURVE",
"653 -167 OFFCURVE",
"653 -279 CURVE SMOOTH",
"653 -423 OFFCURVE",
"761 -500 OFFCURVE",
"905 -500 CURVE SMOOTH",
"944 -500 OFFCURVE",
"976 -495 OFFCURVE",
"1003 -490 CURVE SMOOTH",
"1018 -487 OFFCURVE",
"1032 -484 OFFCURVE",
"1045 -479 CURVE",
"1045 -311 LINE",
"1038 -312 OFFCURVE",
"1031 -313 OFFCURVE",
"1024 -314 CURVE SMOOTH",
"1011 -316 OFFCURVE",
"994 -317 OFFCURVE",
"975 -317 CURVE SMOOTH",
"907 -317 OFFCURVE",
"875 -281 OFFCURVE",
"875 -225 CURVE SMOOTH",
"875 -157 OFFCURVE",
"922 -80 OFFCURVE",
"1047 0 CURVE",
"1047 223 LINE",
"412 223 LINE",
"412 610 LINE",
"930 610 LINE",
"930 829 LINE",
"412 829 LINE",
"412 1204 LINE",
"1030 1204 LINE",
"1030 1427 LINE",
"172 1427 LINE",
"172 0 LINE"
);
}
);
userData = {
assembly = "PUSHB[ ]	/* 1 value pushed */\01238 \012MDAP[1]	/* MoveDirectAbsPt */\012PUSHB[ ]	/* 1 value pushed */\01231 \012MDAP[1]	/* MoveDirectAbsPt */\012PUSHB[ ]	/* 1 value pushed */\01238 \012SRP0[ ]	/* SetRefPoint0 */\012PUSHB[ ]	/* 1 value pushed */\0120 \012MDRP[10000]	/* MoveDirectRelPt */\012PUSHB[ ]	/* 1 value pushed */\0120 \012MDAP[1]	/* MoveDirectAbsPt */\012PUSHB[ ]	/* 2 values pushed */\0123 12 \012MIRP[10100]	/* MoveIndirectRelPt */\012PUSHB[ ]	/* 1 value pushed */\0127 \012MDRP[10000]	/* MoveDirectRelPt */\012NPUSHB[ ]	/* 11 values pushed */\0129 31 25 31 41 31 57 31 73 31 5 \012DELTAP1[ ]	/* DeltaExceptionP1 */\012PUSHB[ ]	/* 1 value pushed */\01231 \012SRP0[ ]	/* SetRefPoint0 */\012PUSHB[ ]	/* 2 values pushed */\01213 10 \012MIRP[10100]	/* MoveIndirectRelPt */\012PUSHB[ ]	/* 3 values pushed */\01236 31 13 \012SRP1[ ]	/* SetRefPoint1 */\012SRP2[ ]	/* SetRefPoint2 */\012IP[ ]	/* InterpolatePts */\012PUSHB[ ]	/* 1 value pushed */\01239 \012MDRP[11100]	/* MoveDirectRelPt */\012SVTCA[0]	/* SetFreedomAndProjectionVectorToAxis */\012PUSHB[ ]	/* 1 value pushed */\0120 \012RCVT[ ]	/* ReadCVT */\012IF[ ]	/* If */\012PUSHB[ ]	/* 1 value pushed */\0120 \012MDAP[1]	/* MoveDirectAbsPt */\012ELSE[ ]	/* Else */\012PUSHB[ ]	/* 2 values pushed */\0120 23 \012MIAP[0]	/* MoveIndirectAbsPt */\012EIF[ ]	/* EndIf */\012PUSHB[ ]	/* 1 value pushed */\0120 \012RCVT[ ]	/* ReadCVT */\012IF[ ]	/* If */\012PUSHB[ ]	/* 1 value pushed */\01210 \012MDAP[1]	/* MoveDirectAbsPt */\012ELSE[ ]	/* Else */\012PUSHB[ ]	/* 2 values pushed */\01210 17 \012MIAP[0]	/* MoveIndirectAbsPt */\012EIF[ ]	/* EndIf */\012PUSHB[ ]	/* 1 value pushed */\0120 \012RCVT[ ]	/* ReadCVT */\012IF[ ]	/* If */\012PUSHB[ ]	/* 1 value pushed */\01236 \012MDAP[1]	/* MoveDirectAbsPt */\012ELSE[ ]	/* Else */\012PUSHB[ ]	/* 2 values pushed */\01236 17 \012MIAP[0]	/* MoveIndirectAbsPt */\012EIF[ ]	/* EndIf */\012PUSHB[ ]	/* 1 value pushed */\0120 \012RCVT[ ]	/* ReadCVT */\012IF[ ]	/* If */\012PUSHB[ ]	/* 1 value pushed */\01223 \012MDAP[1]	/* MoveDirectAbsPt */\012ELSE[ ]	/* Else */\012PUSHB[ ]	/* 2 values pushed */\01223 19 \012MIAP[0]	/* MoveIndirectAbsPt */\012EIF[ ]	/* EndIf */\012PUSHB[ ]	/* 1 value pushed */\0120 \012RCVT[ ]	/* ReadCVT */\012IF[ ]	/* If */\012PUSHB[ ]	/* 1 value pushed */\01226 \012MDAP[1]	/* MoveDirectAbsPt */\012ELSE[ ]	/* Else */\012PUSHB[ ]	/* 2 values pushed */\01226 19 \012MIAP[0]	/* MoveIndirectAbsPt */\012EIF[ ]	/* EndIf */\012PUSHB[ ]	/* 4 values pushed */\0125 3 6 4 \012CALL[ ]	/* CallFunction */\012PUSHB[ ]	/* 1 value pushed */\0120 \012SRP0[ ]	/* SetRefPoint0 */\012PUSHB[ ]	/* 2 values pushed */\0122 3 \012MIRP[10100]	/* MoveIndirectRelPt */\012PUSHB[ ]	/* 1 value pushed */\01236 \012SRP0[ ]	/* SetRefPoint0 */\012PUSHB[ ]	/* 2 values pushed */\0128 3 \012MIRP[10100]	/* MoveIndirectRelPt */\012PUSHB[ ]	/* 1 value pushed */\0129 \012MDRP[10000]	/* MoveDirectRelPt */\012PUSHB[ ]	/* 1 value pushed */\01223 \012SRP0[ ]	/* SetRefPoint0 */\012PUSHB[ ]	/* 2 values pushed */\01216 4 \012MIRP[10100]	/* MoveIndirectRelPt */\012NPUSHB[ ]	/* 11 values pushed */\0127 16 23 16 39 16 55 16 71 16 5 \012DELTAP1[ ]	/* DeltaExceptionP1 */\012IUP[0]	/* InterpolateUntPts */\012IUP[1]	/* InterpolateUntPts */";
};
width = 1139;
}
);
leftMetricsKey = "=H";
note = Eogonek;
unicode = 0118;
},
{
color = 4;
glyphname = F;
lastChange = "2022-05-11 19:54:07 +0000";
layers = (
{
anchors = (
{
name = bottom;
position = "{545, 0}";
},
{
name = top;
position = "{602, 1427}";
}
);
layerId = "410E5E1C-5FD0-457E-A79B-7BF13808BDAC";
paths = (
{
closed = 1;
nodes = (
"412 0 LINE",
"412 551 LINE",
"953 551 LINE",
"953 774 LINE",
"412 774 LINE",
"412 1204 LINE",
"1030 1204 LINE",
"1030 1427 LINE",
"172 1427 LINE",
"172 0 LINE"
);
}
);
userData = {
assembly = "PUSHB[ ]	/* 4 values pushed */\0123 12 0 4 \012CALL[ ]	/* CallFunction */\012PUSHB[ ]	/* 1 value pushed */\0123 \012SRP0[ ]	/* SetRefPoint0 */\012PUSHB[ ]	/* 1 value pushed */\0127 \012MDRP[10000]	/* MoveDirectRelPt */\012SVTCA[0]	/* SetFreedomAndProjectionVectorToAxis */\012PUSHB[ ]	/* 1 value pushed */\0120 \012RCVT[ ]	/* ReadCVT */\012IF[ ]	/* If */\012PUSHB[ ]	/* 1 value pushed */\0120 \012MDAP[1]	/* MoveDirectAbsPt */\012ELSE[ ]	/* Else */\012PUSHB[ ]	/* 2 values pushed */\0120 23 \012MIAP[0]	/* MoveIndirectAbsPt */\012EIF[ ]	/* EndIf */\012PUSHB[ ]	/* 1 value pushed */\0120 \012RCVT[ ]	/* ReadCVT */\012IF[ ]	/* If */\012PUSHB[ ]	/* 1 value pushed */\0128 \012MDAP[1]	/* MoveDirectAbsPt */\012ELSE[ ]	/* Else */\012PUSHB[ ]	/* 2 values pushed */\0128 17 \012MIAP[0]	/* MoveIndirectAbsPt */\012EIF[ ]	/* EndIf */\012PUSHB[ ]	/* 4 values pushed */\0125 3 6 4 \012CALL[ ]	/* CallFunction */\012PUSHB[ ]	/* 1 value pushed */\0120 \012SRP0[ ]	/* SetRefPoint0 */\012PUSHB[ ]	/* 2 values pushed */\0122 3 \012MIRP[10100]	/* MoveIndirectRelPt */\012IUP[0]	/* InterpolateUntPts */\012IUP[1]	/* InterpolateUntPts */";
};
width = 1095;
}
);
leftMetricsKey = "=H";
note = F;
unicode = 0046;
},
{
color = 4;
glyphname = G;
lastChange = "2022-05-11 04:45:39 +0000";
layers = (
{
anchors = (
{
name = bottom;
position = "{675, 0}";
},
{
name = top;
position = "{675, 1427}";
}
);
layerId = "410E5E1C-5FD0-457E-A79B-7BF13808BDAC";
paths = (
{
closed = 1;
nodes = (
"115 431 OFFCURVE",
"176 242 OFFCURVE",
"288 126 CURVE SMOOTH",
"400 10 OFFCURVE",
"563.333 -31 OFFCURVE",
"770 -31 CURVE SMOOTH",
"896.667 -31 OFFCURVE",
"1008 -7.333 OFFCURVE",
"1088 18 CURVE SMOOTH",
"1134.667 32.667 OFFCURVE",
"1177.667 49.333 OFFCURVE",
"1217 68 CURVE",
"1217 799 LINE",
"719 799 LINE",
"719 580 LINE",
"979 580 LINE",
"979 213 LINE",
"962.333 208.333 OFFCURVE",
"943 204.333 OFFCURVE",
"921 201 CURVE SMOOTH",
"883.667 194.333 OFFCURVE",
"829.333 190 OFFCURVE",
"764 190 CURVE SMOOTH",
"613.333 190 OFFCURVE",
"512.667 229.333 OFFCURVE",
"450 316 CURVE SMOOTH",
"387.333 402.667 OFFCURVE",
"362 536.333 OFFCURVE",
"362 727 CURVE SMOOTH",
"362 913.667 OFFCURVE",
"385 1040 OFFCURVE",
"449 1120 CURVE SMOOTH",
"513 1200 OFFCURVE",
"619.333 1233 OFFCURVE",
"786 1233 CURVE SMOOTH",
"882 1233 OFFCURVE",
"976.333 1227.333 OFFCURVE",
"1047 1222 CURVE SMOOTH",
"1088.333 1219.333 OFFCURVE",
"1127 1216 OFFCURVE",
"1163 1212 CURVE",
"1163 1393 LINE",
"1129.667 1404.333 OFFCURVE",
"1092 1414.667 OFFCURVE",
"1050 1424 CURVE SMOOTH",
"976.667 1440 OFFCURVE",
"874.333 1456 OFFCURVE",
"745 1456 CURVE SMOOTH",
"553 1456 OFFCURVE",
"396.5 1410.5 OFFCURVE",
"286.5 1296.5 CURVE SMOOTH",
"176.5 1182.5 OFFCURVE",
"115 1000.333 OFFCURVE",
"115 727 CURVE"
);
}
);
userData = {
assembly = "PUSHB[ ]	/* 1 value pushed */\01246 \012MDAP[1]	/* MoveDirectAbsPt */\012PUSHB[ ]	/* 1 value pushed */\01231 \012MDAP[1]	/* MoveDirectAbsPt */\012PUSHB[ ]	/* 1 value pushed */\01246 \012SRP0[ ]	/* SetRefPoint0 */\012PUSHB[ ]	/* 1 value pushed */\0120 \012MDRP[10000]	/* MoveDirectRelPt */\012PUSHB[ ]	/* 1 value pushed */\0120 \012MDAP[1]	/* MoveDirectAbsPt */\012PUSHB[ ]	/* 2 values pushed */\01221 12 \012MIRP[10100]	/* MoveIndirectRelPt */\012NPUSHB[ ]	/* 11 values pushed */\0126 21 22 21 38 21 54 21 70 21 5 \012DELTAP1[ ]	/* DeltaExceptionP1 */\012PUSHB[ ]	/* 1 value pushed */\01231 \012SRP0[ ]	/* SetRefPoint0 */\012PUSHB[ ]	/* 2 values pushed */\01236 13 \012MIRP[10100]	/* MoveIndirectRelPt */\012PUSHB[ ]	/* 1 value pushed */\01247 \012MDRP[11100]	/* MoveDirectRelPt */\012SVTCA[0]	/* SetFreedomAndProjectionVectorToAxis */\012PUSHB[ ]	/* 1 value pushed */\0120 \012RCVT[ ]	/* ReadCVT */\012IF[ ]	/* If */\012PUSHB[ ]	/* 1 value pushed */\0125 \012MDAP[1]	/* MoveDirectAbsPt */\012ELSE[ ]	/* Else */\012PUSHB[ ]	/* 2 values pushed */\0125 23 \012MIAP[0]	/* MoveIndirectAbsPt */\012EIF[ ]	/* EndIf */\012PUSHB[ ]	/* 1 value pushed */\0120 \012RCVT[ ]	/* ReadCVT */\012IF[ ]	/* If */\012PUSHB[ ]	/* 1 value pushed */\01241 \012MDAP[1]	/* MoveDirectAbsPt */\012ELSE[ ]	/* Else */\012PUSHB[ ]	/* 2 values pushed */\01241 17 \012MIAP[0]	/* MoveIndirectAbsPt */\012EIF[ ]	/* EndIf */\012PUSHB[ ]	/* 4 values pushed */\01235 3 32 4 \012CALL[ ]	/* CallFunction */\012PUSHB[ ]	/* 1 value pushed */\0125 \012SRP0[ ]	/* SetRefPoint0 */\012PUSHB[ ]	/* 2 values pushed */\01213 3 \012MIRP[10100]	/* MoveIndirectRelPt */\012NPUSHB[ ]	/* 11 values pushed */\0128 13 24 13 40 13 56 13 72 13 5 \012DELTAP1[ ]	/* DeltaExceptionP1 */\012PUSHB[ ]	/* 1 value pushed */\01216 \012MDRP[10000]	/* MoveDirectRelPt */\012PUSHB[ ]	/* 1 value pushed */\01241 \012SRP0[ ]	/* SetRefPoint0 */\012PUSHB[ ]	/* 2 values pushed */\01226 3 \012MIRP[10100]	/* MoveIndirectRelPt */\012NPUSHB[ ]	/* 11 values pushed */\0127 26 23 26 39 26 55 26 71 26 5 \012DELTAP1[ ]	/* DeltaExceptionP1 */\012IUP[0]	/* InterpolateUntPts */\012IUP[1]	/* InterpolateUntPts */";
};
width = 1350;
}
);
note = G;
unicode = 0047;
},
{
color = 4;
glyphname = H;
lastChange = "2022-05-11 19:54:03 +0000";
layers = (
{
anchors = (
{
name = bottom;
position = "{718, 0}";
},
{
name = center;
position = "{718, 714}";
},
{
name = top;
position = "{718, 1427}";
},
{
name = topleft;
position = "{10, 1427}";
}
);
layerId = "410E5E1C-5FD0-457E-A79B-7BF13808BDAC";
paths = (
{
closed = 1;
nodes = (
"412 0 LINE",
"412 612 LINE",
"1024 612 LINE",
"1024 0 LINE",
"1264 0 LINE",
"1264 1427 LINE",
"1024 1427 LINE",
"1024 836 LINE",
"412 836 LINE",
"412 1427 LINE",
"172 1427 LINE",
"172 0 LINE"
);
}
);
userData = {
assembly = "PUSHB[ ]	/* 1 value pushed */\01212 \012MDAP[1]	/* MoveDirectAbsPt */\012PUSHB[ ]	/* 1 value pushed */\0124 \012MDAP[1]	/* MoveDirectAbsPt */\012PUSHB[ ]	/* 1 value pushed */\01212 \012SRP0[ ]	/* SetRefPoint0 */\012PUSHB[ ]	/* 1 value pushed */\0120 \012MDRP[10000]	/* MoveDirectRelPt */\012PUSHB[ ]	/* 1 value pushed */\0120 \012MDAP[1]	/* MoveDirectAbsPt */\012PUSHB[ ]	/* 2 values pushed */\0121 12 \012MIRP[10100]	/* MoveIndirectRelPt */\012PUSHB[ ]	/* 1 value pushed */\0124 \012SRP0[ ]	/* SetRefPoint0 */\012PUSHB[ ]	/* 2 values pushed */\0125 12 \012MIRP[10100]	/* MoveIndirectRelPt */\012PUSHB[ ]	/* 1 value pushed */\0124 \012SRP0[ ]	/* SetRefPoint0 */\012PUSHB[ ]	/* 1 value pushed */\0127 \012MDRP[10000]	/* MoveDirectRelPt */\012PUSHB[ ]	/* 1 value pushed */\0121 \012SRP0[ ]	/* SetRefPoint0 */\012PUSHB[ ]	/* 1 value pushed */\0129 \012MDRP[10000]	/* MoveDirectRelPt */\012PUSHB[ ]	/* 1 value pushed */\0125 \012SRP0[ ]	/* SetRefPoint0 */\012PUSHB[ ]	/* 1 value pushed */\01213 \012MDRP[11100]	/* MoveDirectRelPt */\012SVTCA[0]	/* SetFreedomAndProjectionVectorToAxis */\012PUSHB[ ]	/* 1 value pushed */\0120 \012RCVT[ ]	/* ReadCVT */\012IF[ ]	/* If */\012PUSHB[ ]	/* 1 value pushed */\0120 \012MDAP[1]	/* MoveDirectAbsPt */\012ELSE[ ]	/* Else */\012PUSHB[ ]	/* 2 values pushed */\0120 23 \012MIAP[0]	/* MoveIndirectAbsPt */\012EIF[ ]	/* EndIf */\012PUSHB[ ]	/* 1 value pushed */\0120 \012RCVT[ ]	/* ReadCVT */\012IF[ ]	/* If */\012PUSHB[ ]	/* 1 value pushed */\0124 \012MDAP[1]	/* MoveDirectAbsPt */\012ELSE[ ]	/* Else */\012PUSHB[ ]	/* 2 values pushed */\0124 23 \012MIAP[0]	/* MoveIndirectAbsPt */\012EIF[ ]	/* EndIf */\012PUSHB[ ]	/* 1 value pushed */\0120 \012RCVT[ ]	/* ReadCVT */\012IF[ ]	/* If */\012PUSHB[ ]	/* 1 value pushed */\0126 \012MDAP[1]	/* MoveDirectAbsPt */\012ELSE[ ]	/* Else */\012PUSHB[ ]	/* 2 values pushed */\0126 17 \012MIAP[0]	/* MoveIndirectAbsPt */\012EIF[ ]	/* EndIf */\012PUSHB[ ]	/* 1 value pushed */\0120 \012RCVT[ ]	/* ReadCVT */\012IF[ ]	/* If */\012PUSHB[ ]	/* 1 value pushed */\01210 \012MDAP[1]	/* MoveDirectAbsPt */\012ELSE[ ]	/* Else */\012PUSHB[ ]	/* 2 values pushed */\01210 17 \012MIAP[0]	/* MoveIndirectAbsPt */\012EIF[ ]	/* EndIf */\012PUSHB[ ]	/* 4 values pushed */\0123 3 8 4 \012CALL[ ]	/* CallFunction */\012IUP[0]	/* InterpolateUntPts */\012IUP[1]	/* InterpolateUntPts */";
};
width = 1436;
}
);
note = H;
rightMetricsKey = "=|";
unicode = 0048;
},
{
glyphname = Hbar;
lastChange = "2022-05-11 04:40:54 +0000";
layers = (
{
layerId = "410E5E1C-5FD0-457E-A79B-7BF13808BDAC";
paths = (
{
closed = 1;
nodes = (
"455 0 LINE",
"455 612 LINE",
"1067 612 LINE",
"1067 0 LINE",
"1307 0 LINE",
"1307 1016 LINE",
"1491 1016 LINE",
"1491 1182 LINE",
"1307 1182 LINE",
"1307 1427 LINE",
"1067 1427 LINE",
"1067 1182 LINE",
"455 1182 LINE",
"455 1427 LINE",
"215 1427 LINE",
"215 1182 LINE",
"0 1182 LINE",
"0 1016 LINE",
"215 1016 LINE",
"215 0 LINE"
);
},
{
closed = 1;
nodes = (
"455 1016 LINE",
"1067 1016 LINE",
"1067 836 LINE",
"455 836 LINE"
);
}
);
userData = {
assembly = "PUSHB[ ]	/* 4 values pushed */\01222 12 0 4 \012CALL[ ]	/* CallFunction */\012PUSHB[ ]	/* 4 values pushed */\01210 12 7 4 \012CALL[ ]	/* CallFunction */\012PUSHB[ ]	/* 1 value pushed */\0120 \012SRP0[ ]	/* SetRefPoint0 */\012PUSHB[ ]	/* 1 value pushed */\0123 \012MDRP[10000]	/* MoveDirectRelPt */\012PUSHB[ ]	/* 1 value pushed */\01222 \012SRP0[ ]	/* SetRefPoint0 */\012PUSHB[ ]	/* 1 value pushed */\0125 \012MDRP[10000]	/* MoveDirectRelPt */\012PUSHB[ ]	/* 1 value pushed */\01210 \012SRP0[ ]	/* SetRefPoint0 */\012PUSHB[ ]	/* 1 value pushed */\01213 \012MDRP[10000]	/* MoveDirectRelPt */\012PUSHB[ ]	/* 1 value pushed */\0127 \012SRP0[ ]	/* SetRefPoint0 */\012PUSHB[ ]	/* 1 value pushed */\01215 \012MDRP[10000]	/* MoveDirectRelPt */\012PUSHB[ ]	/* 1 value pushed */\01222 \012SRP0[ ]	/* SetRefPoint0 */\012PUSHB[ ]	/* 1 value pushed */\01217 \012MDRP[10000]	/* MoveDirectRelPt */\012PUSHB[ ]	/* 1 value pushed */\0127 \012SRP0[ ]	/* SetRefPoint0 */\012PUSHB[ ]	/* 1 value pushed */\01220 \012MDRP[10000]	/* MoveDirectRelPt */\012PUSHB[ ]	/* 1 value pushed */\01210 \012SRP0[ ]	/* SetRefPoint0 */\012PUSHB[ ]	/* 1 value pushed */\01225 \012MDRP[11100]	/* MoveDirectRelPt */\012SVTCA[0]	/* SetFreedomAndProjectionVectorToAxis */\012PUSHB[ ]	/* 1 value pushed */\0120 \012RCVT[ ]	/* ReadCVT */\012IF[ ]	/* If */\012PUSHB[ ]	/* 1 value pushed */\0124 \012MDAP[1]	/* MoveDirectAbsPt */\012ELSE[ ]	/* Else */\012PUSHB[ ]	/* 2 values pushed */\0124 23 \012MIAP[0]	/* MoveIndirectAbsPt */\012EIF[ ]	/* EndIf */\012PUSHB[ ]	/* 1 value pushed */\0120 \012RCVT[ ]	/* ReadCVT */\012IF[ ]	/* If */\012PUSHB[ ]	/* 1 value pushed */\0128 \012MDAP[1]	/* MoveDirectAbsPt */\012ELSE[ ]	/* Else */\012PUSHB[ ]	/* 2 values pushed */\0128 23 \012MIAP[0]	/* MoveIndirectAbsPt */\012EIF[ ]	/* EndIf */\012PUSHB[ ]	/* 1 value pushed */\0120 \012RCVT[ ]	/* ReadCVT */\012IF[ ]	/* If */\012PUSHB[ ]	/* 1 value pushed */\01214 \012MDAP[1]	/* MoveDirectAbsPt */\012ELSE[ ]	/* Else */\012PUSHB[ ]	/* 2 values pushed */\01214 17 \012MIAP[0]	/* MoveIndirectAbsPt */\012EIF[ ]	/* EndIf */\012PUSHB[ ]	/* 1 value pushed */\0120 \012RCVT[ ]	/* ReadCVT */\012IF[ ]	/* If */\012PUSHB[ ]	/* 1 value pushed */\01218 \012MDAP[1]	/* MoveDirectAbsPt */\012ELSE[ ]	/* Else */\012PUSHB[ ]	/* 2 values pushed */\01218 17 \012MIAP[0]	/* MoveIndirectAbsPt */\012EIF[ ]	/* EndIf */\012PUSHB[ ]	/* 4 values pushed */\0123 7 0 4 \012CALL[ ]	/* CallFunction */\012PUSHB[ ]	/* 4 values pushed */\01220 3 16 4 \012CALL[ ]	/* CallFunction */\012PUSHB[ ]	/* 1 value pushed */\0123 \012SRP0[ ]	/* SetRefPoint0 */\012PUSHB[ ]	/* 1 value pushed */\0126 \012MDRP[10000]	/* MoveDirectRelPt */\012PUSHB[ ]	/* 1 value pushed */\0123 \012SRP0[ ]	/* SetRefPoint0 */\012PUSHB[ ]	/* 1 value pushed */\01210 \012MDRP[10000]	/* MoveDirectRelPt */\012PUSHB[ ]	/* 1 value pushed */\0120 \012SRP0[ ]	/* SetRefPoint0 */\012PUSHB[ ]	/* 1 value pushed */\01212 \012MDRP[10000]	/* MoveDirectRelPt */\012PUSHB[ ]	/* 1 value pushed */\0120 \012SRP0[ ]	/* SetRefPoint0 */\012PUSHB[ ]	/* 1 value pushed */\01221 \012MDRP[10000]	/* MoveDirectRelPt */\012IUP[0]	/* InterpolateUntPts */\012IUP[1]	/* InterpolateUntPts */";
};
width = 1491;
}
);
note = Hbar;
unicode = 0126;
},
{
color = 4;
glyphname = I;
lastChange = "2022-05-11 19:51:23 +0000";
layers = (
{
anchors = (
{
name = bottom;
position = "{308, 0}";
},
{
name = ogonek;
position = "{550, 10}";
},
{
name = top;
position = "{308, 1427}";
},
{
name = topleft;
position = "{26, 1427}";
}
);
layerId = "410E5E1C-5FD0-457E-A79B-7BF13808BDAC";
paths = (
{
closed = 1;
nodes = (
"428 0 LINE",
"428 1427 LINE",
"188 1427 LINE",
"188 0 LINE"
);
}
);
userData = {
assembly = "PUSHB[ ]	/* 4 values pushed */\0121 12 0 4 \012CALL[ ]	/* CallFunction */\012SVTCA[0]	/* SetFreedomAndProjectionVectorToAxis */\012PUSHB[ ]	/* 1 value pushed */\0120 \012RCVT[ ]	/* ReadCVT */\012IF[ ]	/* If */\012PUSHB[ ]	/* 1 value pushed */\0120 \012MDAP[1]	/* MoveDirectAbsPt */\012ELSE[ ]	/* Else */\012PUSHB[ ]	/* 2 values pushed */\0120 23 \012MIAP[0]	/* MoveIndirectAbsPt */\012EIF[ ]	/* EndIf */\012PUSHB[ ]	/* 1 value pushed */\0120 \012RCVT[ ]	/* ReadCVT */\012IF[ ]	/* If */\012PUSHB[ ]	/* 1 value pushed */\0122 \012MDAP[1]	/* MoveDirectAbsPt */\012ELSE[ ]	/* Else */\012PUSHB[ ]	/* 2 values pushed */\0122 17 \012MIAP[0]	/* MoveIndirectAbsPt */\012EIF[ ]	/* EndIf */\012IUP[0]	/* InterpolateUntPts */\012IUP[1]	/* InterpolateUntPts */";
};
width = 616;
}
);
note = I;
unicode = 0049;
},
{
glyphname = Iogonek;
lastChange = "2022-05-11 04:40:54 +0000";
layers = (
{
layerId = "410E5E1C-5FD0-457E-A79B-7BF13808BDAC";
paths = (
{
closed = 1;
nodes = (
"144.596 -47.452 OFFCURVE",
"65 -154.095 OFFCURVE",
"65 -279 CURVE SMOOTH",
"65 -423.272 OFFCURVE",
"173.244 -500 OFFCURVE",
"317 -500 CURVE SMOOTH",
"355.667 -500 OFFCURVE",
"388.333 -495.333 OFFCURVE",
"415 -490 CURVE SMOOTH",
"429.667 -487.333 OFFCURVE",
"443.667 -483.667 OFFCURVE",
"457 -479 CURVE",
"457 -311 LINE",
"450.333 -312.333 OFFCURVE",
"443.333 -313.333 OFFCURVE",
"436 -314 CURVE SMOOTH",
"422.667 -316 OFFCURVE",
"406.333 -317 OFFCURVE",
"387 -317 CURVE SMOOTH",
"319 -317 OFFCURVE",
"287 -281 OFFCURVE",
"287 -225 CURVE SMOOTH",
"287 -157 OFFCURVE",
"333.667 -80 OFFCURVE",
"459 0 CURVE",
"459 1427 LINE",
"219 1427 LINE",
"219 21 LINE"
);
}
);
userData = {
assembly = "PUSHB[ ]	/* 4 values pushed */\0121 12 0 4 \012CALL[ ]	/* CallFunction */\012PUSHB[ ]	/* 3 values pushed */\0125 0 1 \012SRP1[ ]	/* SetRefPoint1 */\012SRP2[ ]	/* SetRefPoint2 */\012IP[ ]	/* InterpolatePts */\012PUSHB[ ]	/* 1 value pushed */\0125 \012MDAP[1]	/* MoveDirectAbsPt */\012PUSHB[ ]	/* 1 value pushed */\0121 \012SRP0[ ]	/* SetRefPoint0 */\012PUSHB[ ]	/* 1 value pushed */\01212 \012MDRP[10000]	/* MoveDirectRelPt */\012PUSHB[ ]	/* 1 value pushed */\01212 \012MDAP[1]	/* MoveDirectAbsPt */\012PUSHB[ ]	/* 1 value pushed */\0125 \012SRP0[ ]	/* SetRefPoint0 */\012PUSHB[ ]	/* 2 values pushed */\01223 10 \012MIRP[10100]	/* MoveIndirectRelPt */\012SVTCA[0]	/* SetFreedomAndProjectionVectorToAxis */\012PUSHB[ ]	/* 1 value pushed */\0120 \012RCVT[ ]	/* ReadCVT */\012IF[ ]	/* If */\012PUSHB[ ]	/* 1 value pushed */\0120 \012MDAP[1]	/* MoveDirectAbsPt */\012ELSE[ ]	/* Else */\012PUSHB[ ]	/* 2 values pushed */\0120 23 \012MIAP[0]	/* MoveIndirectAbsPt */\012EIF[ ]	/* EndIf */\012PUSHB[ ]	/* 1 value pushed */\0120 \012RCVT[ ]	/* ReadCVT */\012IF[ ]	/* If */\012PUSHB[ ]	/* 1 value pushed */\0122 \012MDAP[1]	/* MoveDirectAbsPt */\012ELSE[ ]	/* Else */\012PUSHB[ ]	/* 2 values pushed */\0122 17 \012MIAP[0]	/* MoveIndirectAbsPt */\012EIF[ ]	/* EndIf */\012PUSHB[ ]	/* 1 value pushed */\0120 \012RCVT[ ]	/* ReadCVT */\012IF[ ]	/* If */\012PUSHB[ ]	/* 1 value pushed */\01215 \012MDAP[1]	/* MoveDirectAbsPt */\012ELSE[ ]	/* Else */\012PUSHB[ ]	/* 2 values pushed */\01215 19 \012MIAP[0]	/* MoveIndirectAbsPt */\012EIF[ ]	/* EndIf */\012PUSHB[ ]	/* 1 value pushed */\0120 \012RCVT[ ]	/* ReadCVT */\012IF[ ]	/* If */\012PUSHB[ ]	/* 1 value pushed */\01218 \012MDAP[1]	/* MoveDirectAbsPt */\012ELSE[ ]	/* Else */\012PUSHB[ ]	/* 2 values pushed */\01218 19 \012MIAP[0]	/* MoveIndirectAbsPt */\012EIF[ ]	/* EndIf */\012PUSHB[ ]	/* 1 value pushed */\01215 \012SRP0[ ]	/* SetRefPoint0 */\012PUSHB[ ]	/* 2 values pushed */\0128 4 \012MIRP[10100]	/* MoveIndirectRelPt */\012NPUSHB[ ]	/* 11 values pushed */\0127 8 23 8 39 8 55 8 71 8 5 \012DELTAP1[ ]	/* DeltaExceptionP1 */\012IUP[0]	/* InterpolateUntPts */\012IUP[1]	/* InterpolateUntPts */";
};
width = 641;
}
);
note = Iogonek;
unicode = 012E;
},
{
color = 4;
glyphname = J;
lastChange = "2022-05-11 05:37:49 +0000";
layers = (
{
anchors = (
{
name = bottom;
position = "{353, 0}";
},
{
name = top;
position = "{412, 1427}";
}
);
layerId = "410E5E1C-5FD0-457E-A79B-7BF13808BDAC";
paths = (
{
closed = 1;
nodes = (
"36 3.333 OFFCURVE",
"60 -2.667 OFFCURVE",
"86 -8 CURVE SMOOTH",
"130 -17.333 OFFCURVE",
"189 -25 OFFCURVE",
"253 -25 CURVE SMOOTH",
"342.333 -25 OFFCURVE",
"410.5 -10.167 OFFCURVE",
"456.5 30.5 CURVE SMOOTH",
"502.5 71.167 OFFCURVE",
"526 137 OFFCURVE",
"526 238 CURVE SMOOTH",
"525 1427 LINE",
"284 1427 LINE",
"284 311 LINE SMOOTH",
"284 191.337 OFFCURVE",
"250.217 178 OFFCURVE",
"153 178 CURVE SMOOTH",
"123.667 178 OFFCURVE",
"90 178.667 OFFCURVE",
"62 180 CURVE SMOOTH",
"45.333 180.667 OFFCURVE",
"29.333 181.333 OFFCURVE",
"14 182 CURVE",
"14 10 LINE"
);
}
);
userData = {
assembly = "PUSHB[ ]	/* 4 values pushed */\01213 12 10 4 \012CALL[ ]	/* CallFunction */\012SVTCA[0]	/* SetFreedomAndProjectionVectorToAxis */\012PUSHB[ ]	/* 1 value pushed */\0120 \012RCVT[ ]	/* ReadCVT */\012IF[ ]	/* If */\012PUSHB[ ]	/* 1 value pushed */\01211 \012MDAP[1]	/* MoveDirectAbsPt */\012ELSE[ ]	/* Else */\012PUSHB[ ]	/* 2 values pushed */\01211 23 \012MIAP[0]	/* MoveIndirectAbsPt */\012EIF[ ]	/* EndIf */\012PUSHB[ ]	/* 1 value pushed */\0120 \012RCVT[ ]	/* ReadCVT */\012IF[ ]	/* If */\012PUSHB[ ]	/* 1 value pushed */\01218 \012MDAP[1]	/* MoveDirectAbsPt */\012ELSE[ ]	/* Else */\012PUSHB[ ]	/* 2 values pushed */\01218 17 \012MIAP[0]	/* MoveIndirectAbsPt */\012EIF[ ]	/* EndIf */\012PUSHB[ ]	/* 2 values pushed */\0120 5 \012MIRP[10100]	/* MoveIndirectRelPt */\012PUSHB[ ]	/* 1 value pushed */\0122 \012MDRP[10000]	/* MoveDirectRelPt */\012PUSHB[ ]	/* 1 value pushed */\0122 \012MDAP[1]	/* MoveDirectAbsPt */\012PUSHB[ ]	/* 1 value pushed */\0125 \012MDRP[10000]	/* MoveDirectRelPt */\012IUP[0]	/* InterpolateUntPts */\012IUP[1]	/* InterpolateUntPts */";
};
width = 706;
}
);
note = J;
unicode = 004A;
},
{
color = 4;
glyphname = K;
lastChange = "2022-05-11 19:54:07 +0000";
layers = (
{
anchors = (
{
name = bottom;
position = "{647, 0}";
},
{
name = top;
position = "{647, 1427}";
}
);
layerId = "410E5E1C-5FD0-457E-A79B-7BF13808BDAC";
paths = (
{
closed = 1;
nodes = (
"412 0 LINE",
"412 621 LINE",
"632 621 LINE",
"984 0 LINE",
"1265 0 LINE",
"844 737 LINE",
"1242 1427 LINE",
"965 1427 LINE",
"632 844 LINE",
"412 844 LINE",
"412 1427 LINE",
"172 1427 LINE",
"172 0 LINE"
);
}
);
userData = {
assembly = "PUSHB[ ]	/* 4 values pushed */\0121 12 0 4 \012CALL[ ]	/* CallFunction */\012PUSHB[ ]	/* 1 value pushed */\0121 \012SRP0[ ]	/* SetRefPoint0 */\012PUSHB[ ]	/* 1 value pushed */\01210 \012MDRP[10000]	/* MoveDirectRelPt */\012SVTCA[0]	/* SetFreedomAndProjectionVectorToAxis */\012PUSHB[ ]	/* 1 value pushed */\0120 \012RCVT[ ]	/* ReadCVT */\012IF[ ]	/* If */\012PUSHB[ ]	/* 1 value pushed */\0120 \012MDAP[1]	/* MoveDirectAbsPt */\012ELSE[ ]	/* Else */\012PUSHB[ ]	/* 2 values pushed */\0120 23 \012MIAP[0]	/* MoveIndirectAbsPt */\012EIF[ ]	/* EndIf */\012PUSHB[ ]	/* 1 value pushed */\0120 \012RCVT[ ]	/* ReadCVT */\012IF[ ]	/* If */\012PUSHB[ ]	/* 1 value pushed */\0124 \012MDAP[1]	/* MoveDirectAbsPt */\012ELSE[ ]	/* Else */\012PUSHB[ ]	/* 2 values pushed */\0124 23 \012MIAP[0]	/* MoveIndirectAbsPt */\012EIF[ ]	/* EndIf */\012PUSHB[ ]	/* 1 value pushed */\0120 \012RCVT[ ]	/* ReadCVT */\012IF[ ]	/* If */\012PUSHB[ ]	/* 1 value pushed */\0127 \012MDAP[1]	/* MoveDirectAbsPt */\012ELSE[ ]	/* Else */\012PUSHB[ ]	/* 2 values pushed */\0127 17 \012MIAP[0]	/* MoveIndirectAbsPt */\012EIF[ ]	/* EndIf */\012PUSHB[ ]	/* 1 value pushed */\0120 \012RCVT[ ]	/* ReadCVT */\012IF[ ]	/* If */\012PUSHB[ ]	/* 1 value pushed */\01211 \012MDAP[1]	/* MoveDirectAbsPt */\012ELSE[ ]	/* Else */\012PUSHB[ ]	/* 2 values pushed */\01211 17 \012MIAP[0]	/* MoveIndirectAbsPt */\012EIF[ ]	/* EndIf */\012PUSHB[ ]	/* 4 values pushed */\0123 3 9 4 \012CALL[ ]	/* CallFunction */\012IUP[0]	/* InterpolateUntPts */\012IUP[1]	/* InterpolateUntPts */";
};
width = 1303;
}
);
leftMetricsKey = "=H";
note = K;
unicode = 004B;
},
{
color = 4;
glyphname = L;
lastChange = "2022-05-11 19:54:07 +0000";
layers = (
{
anchors = (
{
name = bottom;
position = "{518, 0}";
},
{
name = center;
position = "{518, 714}";
},
{
name = top;
position = "{518, 1427}";
},
{
name = topright;
position = "{1026, 1427}";
}
);
layerId = "410E5E1C-5FD0-457E-A79B-7BF13808BDAC";
paths = (
{
closed = 1;
nodes = (
"1002 0 LINE",
"1002 223 LINE",
"412 223 LINE",
"412 1427 LINE",
"172 1427 LINE",
"172 0 LINE"
);
}
);
userData = {
assembly = "PUSHB[ ]	/* 4 values pushed */\0121 12 0 4 \012CALL[ ]	/* CallFunction */\012SVTCA[0]	/* SetFreedomAndProjectionVectorToAxis */\012PUSHB[ ]	/* 1 value pushed */\0120 \012RCVT[ ]	/* ReadCVT */\012IF[ ]	/* If */\012PUSHB[ ]	/* 1 value pushed */\0120 \012MDAP[1]	/* MoveDirectAbsPt */\012ELSE[ ]	/* Else */\012PUSHB[ ]	/* 2 values pushed */\0120 23 \012MIAP[0]	/* MoveIndirectAbsPt */\012EIF[ ]	/* EndIf */\012PUSHB[ ]	/* 1 value pushed */\0120 \012RCVT[ ]	/* ReadCVT */\012IF[ ]	/* If */\012PUSHB[ ]	/* 1 value pushed */\0124 \012MDAP[1]	/* MoveDirectAbsPt */\012ELSE[ ]	/* Else */\012PUSHB[ ]	/* 2 values pushed */\0124 17 \012MIAP[0]	/* MoveIndirectAbsPt */\012EIF[ ]	/* EndIf */\012PUSHB[ ]	/* 2 values pushed */\0122 3 \012MIRP[10100]	/* MoveIndirectRelPt */\012IUP[0]	/* InterpolateUntPts */\012IUP[1]	/* InterpolateUntPts */";
};
width = 1042;
}
);
leftMetricsKey = "=H";
note = L;
unicode = 004C;
},
{
glyphname = Lcaron;
lastChange = "2022-05-11 05:00:43 +0000";
layers = (
{
layerId = "410E5E1C-5FD0-457E-A79B-7BF13808BDAC";
paths = (
{
closed = 1;
nodes = (
"721 958 LINE",
"743 1003 OFFCURVE",
"764 1045 OFFCURVE",
"783 1085 CURVE SMOOTH",
"798 1116 OFFCURVE",
"862 1251 OFFCURVE",
"870 1270 CURVE SMOOTH",
"893 1319 OFFCURVE",
"905 1356 OFFCURVE",
"905 1382 CURVE SMOOTH",
"905 1422 OFFCURVE",
"878 1439 OFFCURVE",
"825 1458 CURVE SMOOTH",
"796 1467 OFFCURVE",
"765 1472 OFFCURVE",
"740 1476 CURVE SMOOTH",
"725 1478 OFFCURVE",
"711 1480 OFFCURVE",
"698 1481 CURVE",
"573 1007 LINE"
);
},
{
closed = 1;
nodes = (
"1012 0 LINE",
"1012 223 LINE",
"422 223 LINE",
"422 1427 LINE",
"182 1427 LINE",
"182 0 LINE"
);
}
);
userData = {
assembly = "PUSHB[ ]	/* 1 value pushed */\01225 \012MDAP[1]	/* MoveDirectAbsPt */\012PUSHB[ ]	/* 1 value pushed */\01218 \012MDAP[1]	/* MoveDirectAbsPt */\012PUSHB[ ]	/* 2 values pushed */\0128 15 \012MIRP[10100]	/* MoveIndirectRelPt */\012PUSHB[ ]	/* 1 value pushed */\01225 \012SRP0[ ]	/* SetRefPoint0 */\012PUSHB[ ]	/* 1 value pushed */\01219 \012MDRP[10000]	/* MoveDirectRelPt */\012PUSHB[ ]	/* 1 value pushed */\01219 \012MDAP[1]	/* MoveDirectAbsPt */\012PUSHB[ ]	/* 2 values pushed */\01220 12 \012MIRP[10100]	/* MoveIndirectRelPt */\012PUSHB[ ]	/* 1 value pushed */\0128 \012SRP0[ ]	/* SetRefPoint0 */\012PUSHB[ ]	/* 1 value pushed */\01226 \012MDRP[11100]	/* MoveDirectRelPt */\012SVTCA[0]	/* SetFreedomAndProjectionVectorToAxis */\012PUSHB[ ]	/* 1 value pushed */\0120 \012RCVT[ ]	/* ReadCVT */\012IF[ ]	/* If */\012PUSHB[ ]	/* 1 value pushed */\01219 \012MDAP[1]	/* MoveDirectAbsPt */\012ELSE[ ]	/* Else */\012PUSHB[ ]	/* 2 values pushed */\01219 23 \012MIAP[0]	/* MoveIndirectAbsPt */\012EIF[ ]	/* EndIf */\012PUSHB[ ]	/* 1 value pushed */\0120 \012RCVT[ ]	/* ReadCVT */\012IF[ ]	/* If */\012PUSHB[ ]	/* 1 value pushed */\01223 \012MDAP[1]	/* MoveDirectAbsPt */\012ELSE[ ]	/* Else */\012PUSHB[ ]	/* 2 values pushed */\01223 17 \012MIAP[0]	/* MoveIndirectAbsPt */\012EIF[ ]	/* EndIf */\012PUSHB[ ]	/* 4 values pushed */\0120 9 17 4 \012CALL[ ]	/* CallFunction */\012PUSHB[ ]	/* 1 value pushed */\01223 \012SRP0[ ]	/* SetRefPoint0 */\012PUSHB[ ]	/* 2 values pushed */\01221 3 \012MIRP[10100]	/* MoveIndirectRelPt */\012IUP[0]	/* InterpolateUntPts */\012IUP[1]	/* InterpolateUntPts */";
};
width = 1062;
}
);
note = Lcaron;
unicode = 013D;
},
{
glyphname = Lslash;
lastChange = "2022-05-11 04:40:54 +0000";
layers = (
{
layerId = "410E5E1C-5FD0-457E-A79B-7BF13808BDAC";
paths = (
{
closed = 1;
nodes = (
"1112 0 LINE",
"1112 229 LINE",
"520 229 LINE",
"520 578 LINE",
"850 793 LINE",
"850 1047 LINE",
"520 829 LINE",
"520 1427 LINE",
"283 1427 LINE",
"283 702 LINE",
"123 602 LINE",
"123 352 LINE",
"283 453 LINE",
"283 0 LINE"
);
}
);
userData = {
assembly = "PUSHB[ ]	/* 4 values pushed */\0129 13 3 4 \012CALL[ ]	/* CallFunction */\012PUSHB[ ]	/* 1 value pushed */\0123 \012SRP0[ ]	/* SetRefPoint0 */\012PUSHB[ ]	/* 1 value pushed */\0120 \012MDRP[10000]	/* MoveDirectRelPt */\012PUSHB[ ]	/* 1 value pushed */\0129 \012SRP0[ ]	/* SetRefPoint0 */\012PUSHB[ ]	/* 1 value pushed */\0125 \012MDRP[10000]	/* MoveDirectRelPt */\012SVTCA[0]	/* SetFreedomAndProjectionVectorToAxis */\012PUSHB[ ]	/* 1 value pushed */\0120 \012RCVT[ ]	/* ReadCVT */\012IF[ ]	/* If */\012PUSHB[ ]	/* 1 value pushed */\0124 \012MDAP[1]	/* MoveDirectAbsPt */\012ELSE[ ]	/* Else */\012PUSHB[ ]	/* 2 values pushed */\0124 23 \012MIAP[0]	/* MoveIndirectAbsPt */\012EIF[ ]	/* EndIf */\012PUSHB[ ]	/* 1 value pushed */\0120 \012RCVT[ ]	/* ReadCVT */\012IF[ ]	/* If */\012PUSHB[ ]	/* 1 value pushed */\01212 \012MDAP[1]	/* MoveDirectAbsPt */\012ELSE[ ]	/* Else */\012PUSHB[ ]	/* 2 values pushed */\01212 17 \012MIAP[0]	/* MoveIndirectAbsPt */\012EIF[ ]	/* EndIf */\012PUSHB[ ]	/* 3 values pushed */\0120 12 4 \012SRP1[ ]	/* SetRefPoint1 */\012SRP2[ ]	/* SetRefPoint2 */\012IP[ ]	/* InterpolatePts */\012PUSHB[ ]	/* 3 values pushed */\0121 12 4 \012SRP1[ ]	/* SetRefPoint1 */\012SRP2[ ]	/* SetRefPoint2 */\012IP[ ]	/* InterpolatePts */\012PUSHB[ ]	/* 3 values pushed */\0126 12 4 \012SRP1[ ]	/* SetRefPoint1 */\012SRP2[ ]	/* SetRefPoint2 */\012IP[ ]	/* InterpolatePts */\012PUSHB[ ]	/* 3 values pushed */\0127 12 4 \012SRP1[ ]	/* SetRefPoint1 */\012SRP2[ ]	/* SetRefPoint2 */\012IP[ ]	/* InterpolatePts */\012PUSHB[ ]	/* 2 values pushed */\01210 3 \012MIRP[10100]	/* MoveIndirectRelPt */\012IUP[0]	/* InterpolateUntPts */\012IUP[1]	/* InterpolateUntPts */";
};
width = 1182;
}
);
note = Lslash;
unicode = 0141;
},
{
color = 4;
glyphname = M;
lastChange = "2022-05-11 19:54:07 +0000";
layers = (
{
anchors = (
{
name = bottom;
position = "{857, 0}";
},
{
name = top;
position = "{857, 1427}";
}
);
layerId = "410E5E1C-5FD0-457E-A79B-7BF13808BDAC";
paths = (
{
closed = 1;
nodes = (
"412 0 LINE",
"412 1204 LINE",
"418 1204 LINE",
"427 1173 OFFCURVE",
"436 1144 OFFCURVE",
"445 1115 CURVE SMOOTH",
"460 1066 OFFCURVE",
"479 1007 OFFCURVE",
"492 967 CURVE SMOOTH",
"680 387 LINE",
"1039 387 LINE",
"1223 963 LINE SMOOTH",
"1236 1003 OFFCURVE",
"1255 1063 OFFCURVE",
"1270 1114 CURVE SMOOTH",
"1297 1204 LINE",
"1303 1204 LINE",
"1303 0 LINE",
"1542 0 LINE",
"1542 1427 LINE",
"1133 1427 LINE",
"860 567 LINE",
"852 567 LINE",
"588 1427 LINE",
"172 1427 LINE",
"172 0 LINE"
);
}
);
userData = {
assembly = "PUSHB[ ]	/* 1 value pushed */\01225 \012MDAP[1]	/* MoveDirectAbsPt */\012PUSHB[ ]	/* 1 value pushed */\0127 \012MDAP[1]	/* MoveDirectAbsPt */\012PUSHB[ ]	/* 1 value pushed */\01225 \012SRP0[ ]	/* SetRefPoint0 */\012PUSHB[ ]	/* 1 value pushed */\0120 \012MDRP[10000]	/* MoveDirectRelPt */\012PUSHB[ ]	/* 1 value pushed */\0120 \012MDAP[1]	/* MoveDirectAbsPt */\012PUSHB[ ]	/* 1 value pushed */\0127 \012SRP0[ ]	/* SetRefPoint0 */\012PUSHB[ ]	/* 2 values pushed */\0126 12 \012MIRP[10100]	/* MoveIndirectRelPt */\012PUSHB[ ]	/* 1 value pushed */\0127 \012SRP0[ ]	/* SetRefPoint0 */\012PUSHB[ ]	/* 1 value pushed */\0129 \012MDRP[10000]	/* MoveDirectRelPt */\012PUSHB[ ]	/* 1 value pushed */\0129 \012MDAP[1]	/* MoveDirectAbsPt */\012PUSHB[ ]	/* 1 value pushed */\0120 \012SRP0[ ]	/* SetRefPoint0 */\012PUSHB[ ]	/* 2 values pushed */\01222 12 \012MIRP[10100]	/* MoveIndirectRelPt */\012PUSHB[ ]	/* 1 value pushed */\0126 \012SRP0[ ]	/* SetRefPoint0 */\012PUSHB[ ]	/* 1 value pushed */\01226 \012MDRP[11100]	/* MoveDirectRelPt */\012SVTCA[0]	/* SetFreedomAndProjectionVectorToAxis */\012PUSHB[ ]	/* 1 value pushed */\0120 \012RCVT[ ]	/* ReadCVT */\012IF[ ]	/* If */\012PUSHB[ ]	/* 1 value pushed */\0120 \012MDAP[1]	/* MoveDirectAbsPt */\012ELSE[ ]	/* Else */\012PUSHB[ ]	/* 2 values pushed */\0120 23 \012MIAP[0]	/* MoveIndirectAbsPt */\012EIF[ ]	/* EndIf */\012PUSHB[ ]	/* 1 value pushed */\0120 \012RCVT[ ]	/* ReadCVT */\012IF[ ]	/* If */\012PUSHB[ ]	/* 1 value pushed */\0124 \012MDAP[1]	/* MoveDirectAbsPt */\012ELSE[ ]	/* Else */\012PUSHB[ ]	/* 2 values pushed */\0124 23 \012MIAP[0]	/* MoveIndirectAbsPt */\012EIF[ ]	/* EndIf */\012PUSHB[ ]	/* 1 value pushed */\0120 \012RCVT[ ]	/* ReadCVT */\012IF[ ]	/* If */\012PUSHB[ ]	/* 1 value pushed */\0126 \012MDAP[1]	/* MoveDirectAbsPt */\012ELSE[ ]	/* Else */\012PUSHB[ ]	/* 2 values pushed */\0126 17 \012MIAP[0]	/* MoveIndirectAbsPt */\012EIF[ ]	/* EndIf */\012PUSHB[ ]	/* 1 value pushed */\0120 \012RCVT[ ]	/* ReadCVT */\012IF[ ]	/* If */\012PUSHB[ ]	/* 1 value pushed */\01223 \012MDAP[1]	/* MoveDirectAbsPt */\012ELSE[ ]	/* Else */\012PUSHB[ ]	/* 2 values pushed */\01223 17 \012MIAP[0]	/* MoveIndirectAbsPt */\012EIF[ ]	/* EndIf */\012PUSHB[ ]	/* 4 values pushed */\0123 4 14 4 \012CALL[ ]	/* CallFunction */\012PUSHB[ ]	/* 1 value pushed */\0124 \012SRP0[ ]	/* SetRefPoint0 */\012PUSHB[ ]	/* 2 values pushed */\0128 3 \012MIRP[10100]	/* MoveIndirectRelPt */\012PUSHB[ ]	/* 1 value pushed */\01221 \012MDRP[10000]	/* MoveDirectRelPt */\012PUSHB[ ]	/* 1 value pushed */\01222 \012MDRP[10000]	/* MoveDirectRelPt */\012IUP[0]	/* InterpolateUntPts */\012IUP[1]	/* InterpolateUntPts */";
};
width = 1714;
}
);
leftMetricsKey = "=H";
note = M;
rightMetricsKey = "=H";
unicode = 004D;
},
{
color = 4;
glyphname = N;
lastChange = "2022-05-11 19:54:07 +0000";
layers = (
{
anchors = (
{
name = bottom;
position = "{751, 0}";
},
{
name = top;
position = "{751, 1427}";
}
);
layerId = "410E5E1C-5FD0-457E-A79B-7BF13808BDAC";
paths = (
{
closed = 1;
nodes = (
"410 0 LINE",
"410 1204 LINE",
"414 1204 LINE",
"421 1186 OFFCURVE",
"430 1166 OFFCURVE",
"439 1145 CURVE SMOOTH",
"446 1127 OFFCURVE",
"455 1106 OFFCURVE",
"466 1082 CURVE SMOOTH",
"477 1058 OFFCURVE",
"488 1032 OFFCURVE",
"500 1004 CURVE SMOOTH",
"940 0 LINE",
"1329 0 LINE",
"1329 1427 LINE",
"1092 1427 LINE",
"1092 436 LINE SMOOTH",
"1092 413 OFFCURVE",
"1092 390 OFFCURVE",
"1092 365 CURVE SMOOTH",
"1092 340 OFFCURVE",
"1092 317 OFFCURVE",
"1093 296 CURVE SMOOTH",
"1094 271 OFFCURVE",
"1094 247 OFFCURVE",
"1095 223 CURVE",
"1090 223 LINE",
"570 1427 LINE",
"172 1427 LINE",
"172 0 LINE"
);
}
);
userData = {
assembly = "PUSHB[ ]	/* 1 value pushed */\01222 \012MDAP[1]	/* MoveDirectAbsPt */\012PUSHB[ ]	/* 1 value pushed */\0128 \012MDAP[1]	/* MoveDirectAbsPt */\012PUSHB[ ]	/* 1 value pushed */\01222 \012SRP0[ ]	/* SetRefPoint0 */\012PUSHB[ ]	/* 1 value pushed */\0120 \012MDRP[10000]	/* MoveDirectRelPt */\012PUSHB[ ]	/* 1 value pushed */\0120 \012MDAP[1]	/* MoveDirectAbsPt */\012PUSHB[ ]	/* 1 value pushed */\0128 \012SRP0[ ]	/* SetRefPoint0 */\012PUSHB[ ]	/* 1 value pushed */\0122 \012MDRP[10000]	/* MoveDirectRelPt */\012PUSHB[ ]	/* 1 value pushed */\0122 \012MDAP[1]	/* MoveDirectAbsPt */\012PUSHB[ ]	/* 1 value pushed */\0128 \012SRP0[ ]	/* SetRefPoint0 */\012PUSHB[ ]	/* 2 values pushed */\01211 13 \012MIRP[10100]	/* MoveIndirectRelPt */\012PUSHB[ ]	/* 3 values pushed */\0123 8 11 \012SRP1[ ]	/* SetRefPoint1 */\012SRP2[ ]	/* SetRefPoint2 */\012IP[ ]	/* InterpolatePts */\012PUSHB[ ]	/* 1 value pushed */\0128 \012SRP0[ ]	/* SetRefPoint0 */\012PUSHB[ ]	/* 1 value pushed */\0125 \012MDRP[10000]	/* MoveDirectRelPt */\012PUSHB[ ]	/* 1 value pushed */\0125 \012MDAP[1]	/* MoveDirectAbsPt */\012PUSHB[ ]	/* 1 value pushed */\0120 \012SRP0[ ]	/* SetRefPoint0 */\012PUSHB[ ]	/* 2 values pushed */\01219 13 \012MIRP[10100]	/* MoveIndirectRelPt */\012PUSHB[ ]	/* 1 value pushed */\01211 \012SRP0[ ]	/* SetRefPoint0 */\012PUSHB[ ]	/* 1 value pushed */\01223 \012MDRP[11100]	/* MoveDirectRelPt */\012SVTCA[0]	/* SetFreedomAndProjectionVectorToAxis */\012PUSHB[ ]	/* 1 value pushed */\0120 \012RCVT[ ]	/* ReadCVT */\012IF[ ]	/* If */\012PUSHB[ ]	/* 1 value pushed */\0120 \012MDAP[1]	/* MoveDirectAbsPt */\012ELSE[ ]	/* Else */\012PUSHB[ ]	/* 2 values pushed */\0120 23 \012MIAP[0]	/* MoveIndirectAbsPt */\012EIF[ ]	/* EndIf */\012PUSHB[ ]	/* 1 value pushed */\0120 \012RCVT[ ]	/* ReadCVT */\012IF[ ]	/* If */\012PUSHB[ ]	/* 1 value pushed */\0129 \012MDAP[1]	/* MoveDirectAbsPt */\012ELSE[ ]	/* Else */\012PUSHB[ ]	/* 2 values pushed */\0129 23 \012MIAP[0]	/* MoveIndirectAbsPt */\012EIF[ ]	/* EndIf */\012PUSHB[ ]	/* 1 value pushed */\0120 \012RCVT[ ]	/* ReadCVT */\012IF[ ]	/* If */\012PUSHB[ ]	/* 1 value pushed */\01211 \012MDAP[1]	/* MoveDirectAbsPt */\012ELSE[ ]	/* Else */\012PUSHB[ ]	/* 2 values pushed */\01211 17 \012MIAP[0]	/* MoveIndirectAbsPt */\012EIF[ ]	/* EndIf */\012PUSHB[ ]	/* 1 value pushed */\0120 \012RCVT[ ]	/* ReadCVT */\012IF[ ]	/* If */\012PUSHB[ ]	/* 1 value pushed */\01220 \012MDAP[1]	/* MoveDirectAbsPt */\012ELSE[ ]	/* Else */\012PUSHB[ ]	/* 2 values pushed */\01220 17 \012MIAP[0]	/* MoveIndirectAbsPt */\012EIF[ ]	/* EndIf */\012PUSHB[ ]	/* 1 value pushed */\01211 \012SRP0[ ]	/* SetRefPoint0 */\012PUSHB[ ]	/* 2 values pushed */\0122 3 \012MIRP[10100]	/* MoveIndirectRelPt */\012PUSHB[ ]	/* 1 value pushed */\0120 \012SRP0[ ]	/* SetRefPoint0 */\012PUSHB[ ]	/* 2 values pushed */\01218 3 \012MIRP[10100]	/* MoveIndirectRelPt */\012NPUSHB[ ]	/* 11 values pushed */\0128 18 24 18 40 18 56 18 72 18 5 \012DELTAP1[ ]	/* DeltaExceptionP1 */\012IUP[0]	/* InterpolateUntPts */\012IUP[1]	/* InterpolateUntPts */";
};
width = 1501;
}
);
leftMetricsKey = "=H";
note = N;
rightMetricsKey = "=H";
unicode = 004E;
},
{
color = 4;
glyphname = Eng;
lastChange = "2022-05-11 19:54:07 +0000";
layers = (
{
layerId = "410E5E1C-5FD0-457E-A79B-7BF13808BDAC";
paths = (
{
closed = 1;
nodes = (
"410 0 LINE",
"410 1204 LINE",
"414 1204 LINE",
"421 1186 OFFCURVE",
"430 1166 OFFCURVE",
"439 1145 CURVE SMOOTH",
"446 1127 OFFCURVE",
"455 1106 OFFCURVE",
"466 1082 CURVE SMOOTH",
"477 1058 OFFCURVE",
"488 1032 OFFCURVE",
"500 1004 CURVE SMOOTH",
"940 0 LINE",
"1088 0 LINE",
"1088 -164 LINE SMOOTH",
"1088 -284 OFFCURVE",
"1054 -297 OFFCURVE",
"957 -297 CURVE SMOOTH",
"928 -297 OFFCURVE",
"894 -296 OFFCURVE",
"866 -295 CURVE SMOOTH",
"849 -294 OFFCURVE",
"833 -294 OFFCURVE",
"818 -293 CURVE",
"818 -465 LINE",
"840 -472 OFFCURVE",
"864 -478 OFFCURVE",
"890 -483 CURVE SMOOTH",
"934 -492 OFFCURVE",
"993 -500 OFFCURVE",
"1057 -500 CURVE SMOOTH",
"1146 -500 OFFCURVE",
"1215 -485 OFFCURVE",
"1261 -445 CURVE SMOOTH",
"1307 -404 OFFCURVE",
"1330 -338 OFFCURVE",
"1330 -237 CURVE SMOOTH",
"1329 77 LINE",
"1329 1427 LINE",
"1092 1427 LINE",
"1092 436 LINE SMOOTH",
"1092 413 OFFCURVE",
"1092 390 OFFCURVE",
"1092 365 CURVE SMOOTH",
"1092 340 OFFCURVE",
"1092 317 OFFCURVE",
"1093 296 CURVE SMOOTH",
"1094 271 OFFCURVE",
"1094 247 OFFCURVE",
"1095 223 CURVE",
"1090 223 LINE",
"570 1427 LINE",
"172 1427 LINE",
"172 0 LINE"
);
}
);
userData = {
assembly = "PUSHB[ ]	/* 4 values pushed */\01212 12 33 4 \012CALL[ ]	/* CallFunction */\012PUSHB[ ]	/* 4 values pushed */\01242 13 0 4 \012CALL[ ]	/* CallFunction */\012PUSHB[ ]	/* 1 value pushed */\01233 \012SRP0[ ]	/* SetRefPoint0 */\012PUSHB[ ]	/* 1 value pushed */\0123 \012MDRP[10000]	/* MoveDirectRelPt */\012PUSHB[ ]	/* 1 value pushed */\0123 \012MDAP[1]	/* MoveDirectAbsPt */\012PUSHB[ ]	/* 1 value pushed */\01233 \012SRP0[ ]	/* SetRefPoint0 */\012PUSHB[ ]	/* 1 value pushed */\0125 \012MDRP[10000]	/* MoveDirectRelPt */\012PUSHB[ ]	/* 1 value pushed */\0125 \012MDAP[1]	/* MoveDirectAbsPt */\012PUSHB[ ]	/* 1 value pushed */\01233 \012SRP0[ ]	/* SetRefPoint0 */\012PUSHB[ ]	/* 1 value pushed */\0128 \012MDRP[10000]	/* MoveDirectRelPt */\012PUSHB[ ]	/* 1 value pushed */\0128 \012MDAP[1]	/* MoveDirectAbsPt */\012PUSHB[ ]	/* 1 value pushed */\01212 \012SRP0[ ]	/* SetRefPoint0 */\012PUSHB[ ]	/* 1 value pushed */\01210 \012MDRP[10000]	/* MoveDirectRelPt */\012PUSHB[ ]	/* 1 value pushed */\01210 \012MDAP[1]	/* MoveDirectAbsPt */\012PUSHB[ ]	/* 1 value pushed */\01212 \012SRP0[ ]	/* SetRefPoint0 */\012PUSHB[ ]	/* 1 value pushed */\01246 \012MDRP[11100]	/* MoveDirectRelPt */\012SVTCA[0]	/* SetFreedomAndProjectionVectorToAxis */\012PUSHB[ ]	/* 1 value pushed */\0120 \012RCVT[ ]	/* ReadCVT */\012IF[ ]	/* If */\012PUSHB[ ]	/* 1 value pushed */\0120 \012MDAP[1]	/* MoveDirectAbsPt */\012ELSE[ ]	/* Else */\012PUSHB[ ]	/* 2 values pushed */\0120 23 \012MIAP[0]	/* MoveIndirectAbsPt */\012EIF[ ]	/* EndIf */\012PUSHB[ ]	/* 1 value pushed */\0120 \012RCVT[ ]	/* ReadCVT */\012IF[ ]	/* If */\012PUSHB[ ]	/* 1 value pushed */\0129 \012MDAP[1]	/* MoveDirectAbsPt */\012ELSE[ ]	/* Else */\012PUSHB[ ]	/* 2 values pushed */\0129 23 \012MIAP[0]	/* MoveIndirectAbsPt */\012EIF[ ]	/* EndIf */\012PUSHB[ ]	/* 1 value pushed */\0120 \012RCVT[ ]	/* ReadCVT */\012IF[ ]	/* If */\012PUSHB[ ]	/* 1 value pushed */\01234 \012MDAP[1]	/* MoveDirectAbsPt */\012ELSE[ ]	/* Else */\012PUSHB[ ]	/* 2 values pushed */\01234 17 \012MIAP[0]	/* MoveIndirectAbsPt */\012EIF[ ]	/* EndIf */\012PUSHB[ ]	/* 1 value pushed */\0120 \012RCVT[ ]	/* ReadCVT */\012IF[ ]	/* If */\012PUSHB[ ]	/* 1 value pushed */\01243 \012MDAP[1]	/* MoveDirectAbsPt */\012ELSE[ ]	/* Else */\012PUSHB[ ]	/* 2 values pushed */\01243 17 \012MIAP[0]	/* MoveIndirectAbsPt */\012EIF[ ]	/* EndIf */\012PUSHB[ ]	/* 1 value pushed */\0120 \012RCVT[ ]	/* ReadCVT */\012IF[ ]	/* If */\012PUSHB[ ]	/* 1 value pushed */\01217 \012MDAP[1]	/* MoveDirectAbsPt */\012ELSE[ ]	/* Else */\012PUSHB[ ]	/* 2 values pushed */\01217 19 \012MIAP[0]	/* MoveIndirectAbsPt */\012EIF[ ]	/* EndIf */\012PUSHB[ ]	/* 1 value pushed */\01234 \012SRP0[ ]	/* SetRefPoint0 */\012PUSHB[ ]	/* 2 values pushed */\0122 3 \012MIRP[10100]	/* MoveIndirectRelPt */\012PUSHB[ ]	/* 1 value pushed */\01217 \012SRP0[ ]	/* SetRefPoint0 */\012PUSHB[ ]	/* 2 values pushed */\01223 5 \012MIRP[10100]	/* MoveIndirectRelPt */\012PUSHB[ ]	/* 1 value pushed */\01225 \012MDRP[10000]	/* MoveDirectRelPt */\012PUSHB[ ]	/* 1 value pushed */\01225 \012MDAP[1]	/* MoveDirectAbsPt */\012PUSHB[ ]	/* 1 value pushed */\01228 \012MDRP[10000]	/* MoveDirectRelPt */\012PUSHB[ ]	/* 1 value pushed */\0120 \012SRP0[ ]	/* SetRefPoint0 */\012PUSHB[ ]	/* 2 values pushed */\01241 3 \012MIRP[10100]	/* MoveIndirectRelPt */\012NPUSHB[ ]	/* 11 values pushed */\0128 41 24 41 40 41 56 41 72 41 5 \012DELTAP1[ ]	/* DeltaExceptionP1 */\012IUP[0]	/* InterpolateUntPts */\012IUP[1]	/* InterpolateUntPts */";
};
width = 1502;
}
);
leftMetricsKey = "=H";
note = Eng;
rightMetricsKey = "=H";
unicode = 014A;
},
{
glyphname = O;
lastChange = "2022-05-11 05:36:18 +0000";
layers = (
{
anchors = (
{
name = bottom;
position = "{701, 0}";
},
{
name = center;
position = "{701, 714}";
},
{
name = ogonek;
position = "{1261, 10}";
},
{
name = top;
position = "{701, 1446}";
},
{
name = topleft;
position = "{20, 1427}";
},
{
name = topright;
position = "{1411, 1427}";
}
);
layerId = "410E5E1C-5FD0-457E-A79B-7BF13808BDAC";
paths = (
{
closed = 1;
nodes = (
"831.333 -31 OFFCURVE",
"936 -11.333 OFFCURVE",
"1016 28 CURVE SMOOTH",
"1059.333 49.333 OFFCURVE",
"1097.667 78.167 OFFCURVE",
"1131 114.5 CURVE SMOOTH",
"1199 188.167 OFFCURVE",
"1244.667 299 OFFCURVE",
"1268 447 CURVE SMOOTH",
"1280 522.333 OFFCURVE",
"1286 609.667 OFFCURVE",
"1286 709 CURVE SMOOTH",
"1286 901.667 OFFCURVE",
"1262.5 1054.667 OFFCURVE",
"1215.5 1168 CURVE SMOOTH",
"1192.5 1223.333 OFFCURVE",
"1164.333 1269.5 OFFCURVE",
"1131 1306.5 CURVE SMOOTH",
"1067 1377.5 OFFCURVE",
"980.667 1422.667 OFFCURVE",
"872 1442 CURVE SMOOTH",
"819.333 1451.333 OFFCURVE",
"762.667 1456 OFFCURVE",
"702 1456 CURVE SMOOTH",
"508.667 1456 OFFCURVE",
"368.333 1413.5 OFFCURVE",
"271 1307.5 CURVE SMOOTH",
"167 1193.5 OFFCURVE",
"115 1003.667 OFFCURVE",
"115 709 CURVE SMOOTH",
"115 515 OFFCURVE",
"138.667 362.167 OFFCURVE",
"186 250.5 CURVE SMOOTH",
"209.333 195.5 OFFCURVE",
"237.833 150 OFFCURVE",
"271.5 114 CURVE SMOOTH",
"337.167 43.333 OFFCURVE",
"423.667 -0.667 OFFCURVE",
"531 -18 CURVE SMOOTH",
"583.667 -26.667 OFFCURVE",
"640.667 -31 OFFCURVE",
"702 -31 CURVE"
);
},
{
closed = 1;
nodes = (
"567.333 190 OFFCURVE",
"485.333 219.167 OFFCURVE",
"436 294.5 CURVE SMOOTH",
"386.667 371.167 OFFCURVE",
"367 497 OFFCURVE",
"367 709 CURVE SMOOTH",
"367 922.333 OFFCURVE",
"386.667 1048.5 OFFCURVE",
"436 1126.5 CURVE SMOOTH",
"485.333 1203.167 OFFCURVE",
"567.333 1233 OFFCURVE",
"702 1233 CURVE SMOOTH",
"836.667 1233 OFFCURVE",
"917.667 1203.167 OFFCURVE",
"967 1126.5 CURVE SMOOTH",
"1016.333 1048.5 OFFCURVE",
"1036 922.333 OFFCURVE",
"1036 709 CURVE SMOOTH",
"1036 497 OFFCURVE",
"1016.333 371.167 OFFCURVE",
"967 294.5 CURVE SMOOTH",
"917.667 219.167 OFFCURVE",
"836.667 190 OFFCURVE",
"702 190 CURVE"
);
}
);
width = 1401;
}
);
note = O;
unicode = 004F;
},
{
glyphname = Oslash;
lastChange = "2022-05-11 05:39:01 +0000";
layers = (
{
anchors = (
{
name = bottom;
position = "{726, 0}";
},
{
name = top;
position = "{726, 1427}";
}
);
layerId = "410E5E1C-5FD0-457E-A79B-7BF13808BDAC";
paths = (
{
closed = 1;
nodes = (
"429 -172 LINE",
"504 -6 LINE",
"570.667 -24.667 OFFCURVE",
"644.333 -31 OFFCURVE",
"727 -31 CURVE SMOOTH",
"848.333 -31 OFFCURVE",
"954.333 -14.667 OFFCURVE",
"1041 28 CURVE SMOOTH",
"1084.333 49.333 OFFCURVE",
"1122.667 78.167 OFFCURVE",
"1156 114.5 CURVE SMOOTH",
"1222.667 187.167 OFFCURVE",
"1269 296.333 OFFCURVE",
"1293 447 CURVE SMOOTH",
"1305 522.333 OFFCURVE",
"1311 609.667 OFFCURVE",
"1311 709 CURVE SMOOTH",
"1311 877 OFFCURVE",
"1294.333 1009.167 OFFCURVE",
"1261 1112.5 CURVE SMOOTH",
"1227.667 1215.833 OFFCURVE",
"1179.667 1290.667 OFFCURVE",
"1117 1344 CURVE",
"1231 1595 LINE",
"1012 1595 LINE",
"938 1433 LINE",
"874 1449 OFFCURVE",
"804.333 1456 OFFCURVE",
"727 1456 CURVE SMOOTH",
"544.333 1456 OFFCURVE",
"397.333 1418.833 OFFCURVE",
"296 1307.5 CURVE SMOOTH",
"194.667 1196.167 OFFCURVE",
"140 1009 OFFCURVE",
"140 709 CURVE SMOOTH",
"140 545 OFFCURVE",
"156 415.5 OFFCURVE",
"188 313.5 CURVE SMOOTH",
"220 211.5 OFFCURVE",
"266 137 OFFCURVE",
"326 85 CURVE",
"209 -172 LINE"
);
},
{
closed = 1;
nodes = (
"404.333 415 OFFCURVE",
"392 533 OFFCURVE",
"392 709 CURVE SMOOTH",
"392 917 OFFCURVE",
"410.333 1047.167 OFFCURVE",
"461 1126.5 CURVE SMOOTH",
"511.667 1205.833 OFFCURVE",
"596.333 1233 OFFCURVE",
"727 1233 CURVE SMOOTH",
"771.667 1233 OFFCURVE",
"810.333 1229.667 OFFCURVE",
"843 1223 CURVE",
"439 335 LINE"
);
},
{
closed = 1;
nodes = (
"1046 1018.667 OFFCURVE",
"1061 895.667 OFFCURVE",
"1061 709 CURVE SMOOTH",
"1061 502.333 OFFCURVE",
"1042.667 372.5 OFFCURVE",
"992 294.5 CURVE SMOOTH",
"941.333 216.5 OFFCURVE",
"857.667 190 OFFCURVE",
"727 190 CURVE SMOOTH",
"677.667 190 OFFCURVE",
"635 192.667 OFFCURVE",
"599 202 CURVE",
"1006 1100 LINE"
);
}
);
userData = {
assembly = "PUSHB[ ]	/* 3 values pushed */\01215 33 3 \012CALL[ ]	/* CallFunction */\012PUSHB[ ]	/* 3 values pushed */\01241 33 15 \012SRP1[ ]	/* SetRefPoint1 */\012SRP2[ ]	/* SetRefPoint2 */\012IP[ ]	/* InterpolatePts */\012PUSHB[ ]	/* 1 value pushed */\01241 \012MDAP[1]	/* MoveDirectAbsPt */\012PUSHB[ ]	/* 2 values pushed */\0125 11 \012MIRP[10100]	/* MoveIndirectRelPt */\012PUSHB[ ]	/* 3 values pushed */\01253 33 15 \012SRP1[ ]	/* SetRefPoint1 */\012SRP2[ ]	/* SetRefPoint2 */\012IP[ ]	/* InterpolatePts */\012PUSHB[ ]	/* 1 value pushed */\01253 \012MDAP[1]	/* MoveDirectAbsPt */\012NPUSHB[ ]	/* 11 values pushed */\0129 53 25 53 41 53 57 53 73 53 5 \012DELTAP1[ ]	/* DeltaExceptionP1 */\012PUSHB[ ]	/* 2 values pushed */\01221 11 \012MIRP[10100]	/* MoveIndirectRelPt */\012PUSHB[ ]	/* 3 values pushed */\01244 33 15 \012SRP1[ ]	/* SetRefPoint1 */\012SRP2[ ]	/* SetRefPoint2 */\012IP[ ]	/* InterpolatePts */\012PUSHB[ ]	/* 3 values pushed */\01256 33 15 \012SRP1[ ]	/* SetRefPoint1 */\012SRP2[ ]	/* SetRefPoint2 */\012IP[ ]	/* InterpolatePts */\012PUSHB[ ]	/* 1 value pushed */\01258 \012MDRP[11100]	/* MoveDirectRelPt */\012SVTCA[0]	/* SetFreedomAndProjectionVectorToAxis */\012PUSHB[ ]	/* 1 value pushed */\0120 \012RCVT[ ]	/* ReadCVT */\012IF[ ]	/* If */\012PUSHB[ ]	/* 1 value pushed */\01210 \012MDAP[1]	/* MoveDirectAbsPt */\012ELSE[ ]	/* Else */\012PUSHB[ ]	/* 2 values pushed */\01210 23 \012MIAP[0]	/* MoveIndirectAbsPt */\012EIF[ ]	/* EndIf */\012PUSHB[ ]	/* 1 value pushed */\0120 \012RCVT[ ]	/* ReadCVT */\012IF[ ]	/* If */\012PUSHB[ ]	/* 1 value pushed */\01228 \012MDAP[1]	/* MoveDirectAbsPt */\012ELSE[ ]	/* Else */\012PUSHB[ ]	/* 2 values pushed */\01228 17 \012MIAP[0]	/* MoveIndirectAbsPt */\012EIF[ ]	/* EndIf */\012PUSHB[ ]	/* 3 values pushed */\01214 32 3 \012CALL[ ]	/* CallFunction */\012PUSHB[ ]	/* 1 value pushed */\01210 \012SRP0[ ]	/* SetRefPoint0 */\012PUSHB[ ]	/* 2 values pushed */\01236 3 \012MIRP[10100]	/* MoveIndirectRelPt */\012NPUSHB[ ]	/* 11 values pushed */\0128 36 24 36 40 36 56 36 72 36 5 \012DELTAP1[ ]	/* DeltaExceptionP1 */\012PUSHB[ ]	/* 3 values pushed */\01244 32 14 \012SRP1[ ]	/* SetRefPoint1 */\012SRP2[ ]	/* SetRefPoint2 */\012IP[ ]	/* InterpolatePts */\012PUSHB[ ]	/* 1 value pushed */\01228 \012SRP0[ ]	/* SetRefPoint0 */\012PUSHB[ ]	/* 2 values pushed */\01248 3 \012MIRP[10100]	/* MoveIndirectRelPt */\012NPUSHB[ ]	/* 11 values pushed */\0127 48 23 48 39 48 55 48 71 48 5 \012DELTAP1[ ]	/* DeltaExceptionP1 */\012PUSHB[ ]	/* 3 values pushed */\01256 32 14 \012SRP1[ ]	/* SetRefPoint1 */\012SRP2[ ]	/* SetRefPoint2 */\012IP[ ]	/* InterpolatePts */\012IUP[0]	/* InterpolateUntPts */\012IUP[1]	/* InterpolateUntPts */";
};
width = 1451;
}
);
note = Oslash;
unicode = 00D8;
},
{
glyphname = OE;
lastChange = "2022-05-11 04:40:54 +0000";
layers = (
{
layerId = "410E5E1C-5FD0-457E-A79B-7BF13808BDAC";
paths = (
{
closed = 1;
nodes = (
"744 -16 OFFCURVE",
"827 -12 OFFCURVE",
"891 -8 CURVE SMOOTH",
"928.333 -5.333 OFFCURVE",
"965 -2.667 OFFCURVE",
"1001 0 CURVE",
"1876 0 LINE",
"1876 223 LINE",
"1241 223 LINE",
"1241 610 LINE",
"1759 610 LINE",
"1759 829 LINE",
"1241 829 LINE",
"1241 1204 LINE",
"1860 1204 LINE",
"1860 1427 LINE",
"1008 1427 LINE",
"970.667 1430.333 OFFCURVE",
"932.667 1433.333 OFFCURVE",
"894 1436 CURVE SMOOTH",
"827.333 1441.333 OFFCURVE",
"744 1446 OFFCURVE",
"672 1446 CURVE SMOOTH",
"589.333 1446 OFFCURVE",
"499.667 1432.333 OFFCURVE",
"417 1391 CURVE SMOOTH",
"375.667 1370.333 OFFCURVE",
"336.833 1342.667 OFFCURVE",
"300.5 1308 CURVE SMOOTH",
"227.833 1238.667 OFFCURVE",
"171 1133.167 OFFCURVE",
"139 984.5 CURVE SMOOTH",
"123 910.167 OFFCURVE",
"115 823.667 OFFCURVE",
"115 725 CURVE SMOOTH",
"115 519.667 OFFCURVE",
"147.833 369.333 OFFCURVE",
"200.5 260 CURVE SMOOTH",
"226.833 205.333 OFFCURVE",
"257.833 160.167 OFFCURVE",
"293.5 124.5 CURVE SMOOTH",
"364.833 53.167 OFFCURVE",
"448.5 12 OFFCURVE",
"538.5 -4 CURVE SMOOTH",
"583.5 -12 OFFCURVE",
"628 -16 OFFCURVE",
"672 -16 CURVE"
);
},
{
closed = 1;
nodes = (
"718 205 OFFCURVE",
"648.667 207.5 OFFCURVE",
"586 229.5 CURVE SMOOTH",
"554.667 240.5 OFFCURVE",
"525.667 257 OFFCURVE",
"499 279 CURVE SMOOTH",
"445.667 323 OFFCURVE",
"404.667 399 OFFCURVE",
"382 515 CURVE SMOOTH",
"370.667 573 OFFCURVE",
"365 643.667 OFFCURVE",
"365 727 CURVE SMOOTH",
"365 884.333 OFFCURVE",
"388.167 991.667 OFFCURVE",
"427.5 1065 CURVE SMOOTH",
"447.167 1101.667 OFFCURVE",
"470.333 1130.5 OFFCURVE",
"497 1151.5 CURVE SMOOTH",
"550.333 1193.5 OFFCURVE",
"613.167 1212.833 OFFCURVE",
"680.5 1217.5 CURVE SMOOTH",
"714.167 1219.833 OFFCURVE",
"748 1221 OFFCURVE",
"782 1221 CURVE SMOOTH",
"868.667 1221 OFFCURVE",
"945 1221 OFFCURVE",
"1001 1217 CURVE",
"1001 205 LINE",
"786 205 LINE"
);
}
);
userData = {
assembly = "PUSHB[ ]	/* 1 value pushed */\01254 \012MDAP[1]	/* MoveDirectAbsPt */\012PUSHB[ ]	/* 1 value pushed */\01235 \012MDAP[1]	/* MoveDirectAbsPt */\012PUSHB[ ]	/* 1 value pushed */\01254 \012SRP0[ ]	/* SetRefPoint0 */\012PUSHB[ ]	/* 1 value pushed */\0127 \012MDRP[10000]	/* MoveDirectRelPt */\012PUSHB[ ]	/* 1 value pushed */\0127 \012MDAP[1]	/* MoveDirectAbsPt */\012PUSHB[ ]	/* 1 value pushed */\01235 \012SRP0[ ]	/* SetRefPoint0 */\012PUSHB[ ]	/* 1 value pushed */\01219 \012MDRP[10000]	/* MoveDirectRelPt */\012PUSHB[ ]	/* 1 value pushed */\01219 \012MDAP[1]	/* MoveDirectAbsPt */\012PUSHB[ ]	/* 1 value pushed */\01235 \012SRP0[ ]	/* SetRefPoint0 */\012PUSHB[ ]	/* 2 values pushed */\01227 12 \012MIRP[10100]	/* MoveIndirectRelPt */\012PUSHB[ ]	/* 1 value pushed */\01222 \012MDRP[10000]	/* MoveDirectRelPt */\012PUSHB[ ]	/* 1 value pushed */\01235 \012SRP0[ ]	/* SetRefPoint0 */\012PUSHB[ ]	/* 1 value pushed */\01230 \012MDRP[10000]	/* MoveDirectRelPt */\012PUSHB[ ]	/* 1 value pushed */\0127 \012SRP0[ ]	/* SetRefPoint0 */\012PUSHB[ ]	/* 2 values pushed */\01246 11 \012MIRP[10100]	/* MoveIndirectRelPt */\012NPUSHB[ ]	/* 11 values pushed */\0126 46 22 46 38 46 54 46 70 46 5 \012DELTAP1[ ]	/* DeltaExceptionP1 */\012SVTCA[0]	/* SetFreedomAndProjectionVectorToAxis */\012PUSHB[ ]	/* 1 value pushed */\0120 \012RCVT[ ]	/* ReadCVT */\012IF[ ]	/* If */\012PUSHB[ ]	/* 1 value pushed */\01217 \012MDAP[1]	/* MoveDirectAbsPt */\012ELSE[ ]	/* Else */\012PUSHB[ ]	/* 2 values pushed */\01217 23 \012MIAP[0]	/* MoveIndirectAbsPt */\012EIF[ ]	/* EndIf */\012PUSHB[ ]	/* 1 value pushed */\0120 \012RCVT[ ]	/* ReadCVT */\012IF[ ]	/* If */\012PUSHB[ ]	/* 1 value pushed */\01219 \012MDAP[1]	/* MoveDirectAbsPt */\012ELSE[ ]	/* Else */\012PUSHB[ ]	/* 2 values pushed */\01219 23 \012MIAP[0]	/* MoveIndirectAbsPt */\012EIF[ ]	/* EndIf */\012PUSHB[ ]	/* 1 value pushed */\0120 \012RCVT[ ]	/* ReadCVT */\012IF[ ]	/* If */\012PUSHB[ ]	/* 1 value pushed */\01214 \012MDAP[1]	/* MoveDirectAbsPt */\012ELSE[ ]	/* Else */\012PUSHB[ ]	/* 2 values pushed */\01214 23 \012MIAP[0]	/* MoveIndirectAbsPt */\012EIF[ ]	/* EndIf */\012PUSHB[ ]	/* 1 value pushed */\0120 \012RCVT[ ]	/* ReadCVT */\012IF[ ]	/* If */\012PUSHB[ ]	/* 1 value pushed */\0120 \012MDAP[1]	/* MoveDirectAbsPt */\012ELSE[ ]	/* Else */\012PUSHB[ ]	/* 2 values pushed */\0120 17 \012MIAP[0]	/* MoveIndirectAbsPt */\012EIF[ ]	/* EndIf */\012PUSHB[ ]	/* 1 value pushed */\0120 \012RCVT[ ]	/* ReadCVT */\012IF[ ]	/* If */\012PUSHB[ ]	/* 1 value pushed */\01232 \012MDAP[1]	/* MoveDirectAbsPt */\012ELSE[ ]	/* Else */\012PUSHB[ ]	/* 2 values pushed */\01232 17 \012MIAP[0]	/* MoveIndirectAbsPt */\012EIF[ ]	/* EndIf */\012PUSHB[ ]	/* 1 value pushed */\0120 \012RCVT[ ]	/* ReadCVT */\012IF[ ]	/* If */\012PUSHB[ ]	/* 1 value pushed */\01229 \012MDAP[1]	/* MoveDirectAbsPt */\012ELSE[ ]	/* Else */\012PUSHB[ ]	/* 2 values pushed */\01229 17 \012MIAP[0]	/* MoveIndirectAbsPt */\012EIF[ ]	/* EndIf */\012PUSHB[ ]	/* 4 values pushed */\01224 3 25 4 \012CALL[ ]	/* CallFunction */\012PUSHB[ ]	/* 1 value pushed */\01219 \012SRP0[ ]	/* SetRefPoint0 */\012PUSHB[ ]	/* 2 values pushed */\01221 3 \012MIRP[10100]	/* MoveIndirectRelPt */\012PUSHB[ ]	/* 1 value pushed */\01232 \012SRP0[ ]	/* SetRefPoint0 */\012PUSHB[ ]	/* 2 values pushed */\01227 3 \012MIRP[10100]	/* MoveIndirectRelPt */\012PUSHB[ ]	/* 1 value pushed */\01228 \012MDRP[10000]	/* MoveDirectRelPt */\012PUSHB[ ]	/* 1 value pushed */\01232 \012SRP0[ ]	/* SetRefPoint0 */\012PUSHB[ ]	/* 2 values pushed */\01235 3 \012MIRP[10100]	/* MoveIndirectRelPt */\012PUSHB[ ]	/* 1 value pushed */\01219 \012SRP0[ ]	/* SetRefPoint0 */\012PUSHB[ ]	/* 2 values pushed */\01236 5 \012MIRP[10100]	/* MoveIndirectRelPt */\012PUSHB[ ]	/* 1 value pushed */\01239 \012MDRP[10000]	/* MoveDirectRelPt */\012IUP[0]	/* InterpolateUntPts */\012IUP[1]	/* InterpolateUntPts */";
};
width = 1968;
}
);
note = OE;
unicode = 0152;
},
{
color = 4;
glyphname = P;
lastChange = "2022-05-11 19:54:07 +0000";
layers = (
{
anchors = (
{
name = bottom;
position = "{598, 0}";
},
{
name = top;
position = "{598, 1427}";
}
);
layerId = "410E5E1C-5FD0-457E-A79B-7BF13808BDAC";
paths = (
{
closed = 1;
nodes = (
"412 0 LINE",
"412 502 LINE",
"729 502 LINE SMOOTH",
"789 502 OFFCURVE",
"852 509 OFFCURVE",
"911 534 CURVE SMOOTH",
"940 546 OFFCURVE",
"968 563 OFFCURVE",
"994 584 CURVE SMOOTH",
"1046 627 OFFCURVE",
"1085 694 OFFCURVE",
"1108 791 CURVE SMOOTH",
"1119 839 OFFCURVE",
"1125 896 OFFCURVE",
"1125 961 CURVE SMOOTH",
"1125 1092 OFFCURVE",
"1103 1188 OFFCURVE",
"1066 1257 CURVE SMOOTH",
"1047 1291 OFFCURVE",
"1026 1319 OFFCURVE",
"1001 1341 CURVE SMOOTH",
"952 1385 OFFCURVE",
"894 1411 OFFCURVE",
"831 1420 CURVE SMOOTH",
"800 1425 OFFCURVE",
"769 1427 OFFCURVE",
"738 1427 CURVE SMOOTH",
"172 1427 LINE",
"172 0 LINE"
);
},
{
closed = 1;
nodes = (
"412 1204 LINE",
"701 1204 LINE SMOOTH",
"840 1204 OFFCURVE",
"875 1097 OFFCURVE",
"875 961 CURVE SMOOTH",
"875 823 OFFCURVE",
"841 725 OFFCURVE",
"701 725 CURVE SMOOTH",
"412 725 LINE"
);
}
);
userData = {
assembly = "PUSHB[ ]	/* 1 value pushed */\01232 \012MDAP[1]	/* MoveDirectAbsPt */\012PUSHB[ ]	/* 1 value pushed */\01224 \012MDAP[1]	/* MoveDirectAbsPt */\012PUSHB[ ]	/* 1 value pushed */\01232 \012SRP0[ ]	/* SetRefPoint0 */\012PUSHB[ ]	/* 1 value pushed */\0120 \012MDRP[10000]	/* MoveDirectRelPt */\012PUSHB[ ]	/* 1 value pushed */\0120 \012MDAP[1]	/* MoveDirectAbsPt */\012NPUSHB[ ]	/* 11 values pushed */\0129 24 25 24 41 24 57 24 73 24 5 \012DELTAP1[ ]	/* DeltaExceptionP1 */\012PUSHB[ ]	/* 1 value pushed */\01224 \012SRP0[ ]	/* SetRefPoint0 */\012PUSHB[ ]	/* 2 values pushed */\0128 11 \012MIRP[10100]	/* MoveIndirectRelPt */\012PUSHB[ ]	/* 1 value pushed */\0120 \012SRP0[ ]	/* SetRefPoint0 */\012PUSHB[ ]	/* 2 values pushed */\01230 12 \012MIRP[10100]	/* MoveIndirectRelPt */\012PUSHB[ ]	/* 1 value pushed */\01216 \012MDRP[10000]	/* MoveDirectRelPt */\012PUSHB[ ]	/* 1 value pushed */\0128 \012SRP0[ ]	/* SetRefPoint0 */\012PUSHB[ ]	/* 1 value pushed */\01233 \012MDRP[11100]	/* MoveDirectRelPt */\012SVTCA[0]	/* SetFreedomAndProjectionVectorToAxis */\012PUSHB[ ]	/* 1 value pushed */\0120 \012RCVT[ ]	/* ReadCVT */\012IF[ ]	/* If */\012PUSHB[ ]	/* 1 value pushed */\0120 \012MDAP[1]	/* MoveDirectAbsPt */\012ELSE[ ]	/* Else */\012PUSHB[ ]	/* 2 values pushed */\0120 23 \012MIAP[0]	/* MoveIndirectAbsPt */\012EIF[ ]	/* EndIf */\012PUSHB[ ]	/* 1 value pushed */\0120 \012RCVT[ ]	/* ReadCVT */\012IF[ ]	/* If */\012PUSHB[ ]	/* 1 value pushed */\01217 \012MDAP[1]	/* MoveDirectAbsPt */\012ELSE[ ]	/* Else */\012PUSHB[ ]	/* 2 values pushed */\01217 17 \012MIAP[0]	/* MoveIndirectAbsPt */\012EIF[ ]	/* EndIf */\012PUSHB[ ]	/* 4 values pushed */\01219 3 15 4 \012CALL[ ]	/* CallFunction */\012PUSHB[ ]	/* 1 value pushed */\0120 \012SRP0[ ]	/* SetRefPoint0 */\012PUSHB[ ]	/* 2 values pushed */\01229 3 \012MIRP[10100]	/* MoveIndirectRelPt */\012IUP[0]	/* InterpolateUntPts */\012IUP[1]	/* InterpolateUntPts */";
};
width = 1195;
}
);
leftMetricsKey = "=H";
note = P;
unicode = 0050;
},
{
color = 4;
glyphname = Thorn;
lastChange = "2022-05-11 19:54:07 +0000";
layers = (
{
anchors = (
{
name = bottom;
position = "{604, 0}";
},
{
name = top;
position = "{604, 1427}";
}
);
layerId = "410E5E1C-5FD0-457E-A79B-7BF13808BDAC";
paths = (
{
closed = 1;
nodes = (
"412 0 LINE",
"412 266 LINE",
"476 245 OFFCURVE",
"606 214 OFFCURVE",
"713 214 CURVE SMOOTH",
"842 214 OFFCURVE",
"957 238 OFFCURVE",
"1038 312 CURVE SMOOTH",
"1119 386 OFFCURVE",
"1168 510 OFFCURVE",
"1168 711 CURVE SMOOTH",
"1168 908 OFFCURVE",
"1118 1033 OFFCURVE",
"1038 1107 CURVE SMOOTH",
"957 1181 OFFCURVE",
"845 1205 OFFCURVE",
"721 1205 CURVE SMOOTH",
"605 1205 OFFCURVE",
"475 1174 OFFCURVE",
"412 1154 CURVE",
"412 1427 LINE",
"172 1427 LINE",
"172 0 LINE"
);
},
{
closed = 1;
nodes = (
"451 987 OFFCURVE",
"573 996 OFFCURVE",
"649 996 CURVE SMOOTH",
"742 996 OFFCURVE",
"812 984 OFFCURVE",
"857 943 CURVE SMOOTH",
"902 902 OFFCURVE",
"924 830 OFFCURVE",
"924 713 CURVE SMOOTH",
"924 594 OFFCURVE",
"897 523 OFFCURVE",
"846 481 CURVE SMOOTH",
"794 439 OFFCURVE",
"720 425 OFFCURVE",
"627 425 CURVE SMOOTH",
"573 425 OFFCURVE",
"527 427 OFFCURVE",
"489 432 CURVE SMOOTH",
"451 436 OFFCURVE",
"425 439 OFFCURVE",
"412 442 CURVE",
"412 982 LINE"
);
}
);
userData = {
assembly = "PUSHB[ ]	/* 1 value pushed */\01244 \012MDAP[1]	/* MoveDirectAbsPt */\012PUSHB[ ]	/* 1 value pushed */\01233 \012MDAP[1]	/* MoveDirectAbsPt */\012PUSHB[ ]	/* 1 value pushed */\01244 \012SRP0[ ]	/* SetRefPoint0 */\012PUSHB[ ]	/* 1 value pushed */\0120 \012MDRP[10000]	/* MoveDirectRelPt */\012PUSHB[ ]	/* 1 value pushed */\0120 \012MDAP[1]	/* MoveDirectAbsPt */\012PUSHB[ ]	/* 2 values pushed */\0121 12 \012MIRP[10100]	/* MoveIndirectRelPt */\012NPUSHB[ ]	/* 11 values pushed */\0129 33 25 33 41 33 57 33 73 33 5 \012DELTAP1[ ]	/* DeltaExceptionP1 */\012PUSHB[ ]	/* 1 value pushed */\01233 \012SRP0[ ]	/* SetRefPoint0 */\012PUSHB[ ]	/* 2 values pushed */\01212 12 \012MIRP[10100]	/* MoveIndirectRelPt */\012PUSHB[ ]	/* 1 value pushed */\0121 \012SRP0[ ]	/* SetRefPoint0 */\012PUSHB[ ]	/* 1 value pushed */\01222 \012MDRP[10000]	/* MoveDirectRelPt */\012PUSHB[ ]	/* 1 value pushed */\0121 \012SRP0[ ]	/* SetRefPoint0 */\012PUSHB[ ]	/* 1 value pushed */\01225 \012MDRP[10000]	/* MoveDirectRelPt */\012PUSHB[ ]	/* 1 value pushed */\01212 \012SRP0[ ]	/* SetRefPoint0 */\012PUSHB[ ]	/* 1 value pushed */\01245 \012MDRP[11100]	/* MoveDirectRelPt */\012SVTCA[0]	/* SetFreedomAndProjectionVectorToAxis */\012PUSHB[ ]	/* 1 value pushed */\0120 \012RCVT[ ]	/* ReadCVT */\012IF[ ]	/* If */\012PUSHB[ ]	/* 1 value pushed */\0120 \012MDAP[1]	/* MoveDirectAbsPt */\012ELSE[ ]	/* Else */\012PUSHB[ ]	/* 2 values pushed */\0120 23 \012MIAP[0]	/* MoveIndirectAbsPt */\012EIF[ ]	/* EndIf */\012PUSHB[ ]	/* 1 value pushed */\0120 \012RCVT[ ]	/* ReadCVT */\012IF[ ]	/* If */\012PUSHB[ ]	/* 1 value pushed */\01223 \012MDAP[1]	/* MoveDirectAbsPt */\012ELSE[ ]	/* Else */\012PUSHB[ ]	/* 2 values pushed */\01223 17 \012MIAP[0]	/* MoveIndirectAbsPt */\012EIF[ ]	/* EndIf */\012PUSHB[ ]	/* 4 values pushed */\01228 5 17 4 \012CALL[ ]	/* CallFunction */\012PUSHB[ ]	/* 4 values pushed */\0127 5 38 4 \012CALL[ ]	/* CallFunction */\012PUSHB[ ]	/* 3 values pushed */\0122 38 7 \012SRP1[ ]	/* SetRefPoint1 */\012SRP2[ ]	/* SetRefPoint2 */\012IP[ ]	/* InterpolatePts */\012PUSHB[ ]	/* 3 values pushed */\01222 17 28 \012SRP1[ ]	/* SetRefPoint1 */\012SRP2[ ]	/* SetRefPoint2 */\012IP[ ]	/* InterpolatePts */\012PUSHB[ ]	/* 1 value pushed */\01238 \012SRP0[ ]	/* SetRefPoint0 */\012PUSHB[ ]	/* 1 value pushed */\01243 \012MDRP[10000]	/* MoveDirectRelPt */\012PUSHB[ ]	/* 1 value pushed */\01243 \012MDAP[1]	/* MoveDirectAbsPt */\012IUP[0]	/* InterpolateUntPts */\012IUP[1]	/* InterpolateUntPts */";
};
width = 1218;
}
);
leftMetricsKey = "=H";
note = Thorn;
unicode = 00DE;
},
{
color = 4;
glyphname = Q;
lastChange = "2022-05-11 19:27:08 +0000";
layers = (
{
anchors = (
{
name = bottom;
position = "{702, 0}";
},
{
name = top;
position = "{702, 1427}";
}
);
layerId = "410E5E1C-5FD0-457E-A79B-7BF13808BDAC";
paths = (
{
closed = 1;
nodes = (
"795.333 -31 OFFCURVE",
"877.667 -20.667 OFFCURVE",
"951 2 CURVE",
"1034 -115 LINE",
"1252 -115 LINE",
"1106 90 LINE",
"1163.333 143.333 OFFCURVE",
"1209.5 216.667 OFFCURVE",
"1239.5 318 CURVE SMOOTH",
"1269.5 419.333 OFFCURVE",
"1286 547.667 OFFCURVE",
"1286 709 CURVE SMOOTH",
"1286 907.667 OFFCURVE",
"1261.5 1057.333 OFFCURVE",
"1215.5 1168 CURVE SMOOTH",
"1192.5 1223.333 OFFCURVE",
"1164.333 1269.5 OFFCURVE",
"1131 1306.5 CURVE SMOOTH",
"1064.333 1380.5 OFFCURVE",
"977.333 1423.333 OFFCURVE",
"872 1442 CURVE SMOOTH",
"819.333 1451.333 OFFCURVE",
"762.667 1456 OFFCURVE",
"702 1456 CURVE SMOOTH",
"519.333 1456 OFFCURVE",
"372.333 1418.833 OFFCURVE",
"271 1307.5 CURVE SMOOTH",
"169.667 1196.167 OFFCURVE",
"115 1009 OFFCURVE",
"115 709 CURVE SMOOTH",
"115 509 OFFCURVE",
"139.333 360.5 OFFCURVE",
"186 250.5 CURVE SMOOTH",
"209.333 195.5 OFFCURVE",
"237.833 150 OFFCURVE",
"271.5 114 CURVE SMOOTH",
"338.833 42 OFFCURVE",
"425.667 -0.667 OFFCURVE",
"531 -18 CURVE SMOOTH",
"583.667 -26.667 OFFCURVE",
"640.667 -31 OFFCURVE",
"702 -31 CURVE"
);
},
{
closed = 1;
nodes = (
"571.333 190 OFFCURVE",
"486.667 216.5 OFFCURVE",
"436 294.5 CURVE SMOOTH",
"385.333 372.5 OFFCURVE",
"367 502.333 OFFCURVE",
"367 709 CURVE SMOOTH",
"367 917 OFFCURVE",
"385.333 1047.167 OFFCURVE",
"436 1126.5 CURVE SMOOTH",
"486.667 1205.833 OFFCURVE",
"571.333 1233 OFFCURVE",
"702 1233 CURVE SMOOTH",
"832.667 1233 OFFCURVE",
"916.333 1205.833 OFFCURVE",
"967 1126.5 CURVE SMOOTH",
"1017.667 1047.167 OFFCURVE",
"1036 917 OFFCURVE",
"1036 709 CURVE SMOOTH",
"1036 494.333 OFFCURVE",
"1017 363.333 OFFCURVE",
"961 286 CURVE",
"862 430 LINE",
"647 430 LINE",
"809 198 LINE",
"778.333 192.667 OFFCURVE",
"742 190 OFFCURVE",
"702 190 CURVE"
);
}
);
userData = {
assembly = "PUSHB[ ]	/* 1 value pushed */\01254 \012MDAP[1]	/* MoveDirectAbsPt */\012PUSHB[ ]	/* 1 value pushed */\01239 \012MDAP[1]	/* MoveDirectAbsPt */\012PUSHB[ ]	/* 1 value pushed */\01254 \012SRP0[ ]	/* SetRefPoint0 */\012PUSHB[ ]	/* 1 value pushed */\0127 \012MDRP[10000]	/* MoveDirectRelPt */\012PUSHB[ ]	/* 1 value pushed */\0127 \012MDAP[1]	/* MoveDirectAbsPt */\012NPUSHB[ ]	/* 11 values pushed */\0129 39 25 39 41 39 57 39 73 39 5 \012DELTAP1[ ]	/* DeltaExceptionP1 */\012PUSHB[ ]	/* 1 value pushed */\01239 \012SRP0[ ]	/* SetRefPoint0 */\012PUSHB[ ]	/* 2 values pushed */\01219 11 \012MIRP[10100]	/* MoveIndirectRelPt */\012PUSHB[ ]	/* 3 values pushed */\01225 39 19 \012SRP1[ ]	/* SetRefPoint1 */\012SRP2[ ]	/* SetRefPoint2 */\012IP[ ]	/* InterpolatePts */\012PUSHB[ ]	/* 1 value pushed */\01239 \012SRP0[ ]	/* SetRefPoint0 */\012PUSHB[ ]	/* 1 value pushed */\01226 \012MDRP[10000]	/* MoveDirectRelPt */\012PUSHB[ ]	/* 1 value pushed */\01226 \012MDAP[1]	/* MoveDirectAbsPt */\012PUSHB[ ]	/* 3 values pushed */\01233 7 19 \012SRP1[ ]	/* SetRefPoint1 */\012SRP2[ ]	/* SetRefPoint2 */\012IP[ ]	/* InterpolatePts */\012PUSHB[ ]	/* 3 values pushed */\01234 7 19 \012SRP1[ ]	/* SetRefPoint1 */\012SRP2[ ]	/* SetRefPoint2 */\012IP[ ]	/* InterpolatePts */\012PUSHB[ ]	/* 3 values pushed */\01236 7 19 \012SRP1[ ]	/* SetRefPoint1 */\012SRP2[ ]	/* SetRefPoint2 */\012IP[ ]	/* InterpolatePts */\012PUSHB[ ]	/* 1 value pushed */\0127 \012SRP0[ ]	/* SetRefPoint0 */\012PUSHB[ ]	/* 2 values pushed */\01249 11 \012MIRP[10100]	/* MoveIndirectRelPt */\012NPUSHB[ ]	/* 11 values pushed */\0126 49 22 49 38 49 54 49 70 49 5 \012DELTAP1[ ]	/* DeltaExceptionP1 */\012PUSHB[ ]	/* 1 value pushed */\01219 \012SRP0[ ]	/* SetRefPoint0 */\012PUSHB[ ]	/* 1 value pushed */\01255 \012MDRP[11100]	/* MoveDirectRelPt */\012SVTCA[0]	/* SetFreedomAndProjectionVectorToAxis */\012PUSHB[ ]	/* 1 value pushed */\0120 \012RCVT[ ]	/* ReadCVT */\012IF[ ]	/* If */\012PUSHB[ ]	/* 1 value pushed */\01212 \012MDAP[1]	/* MoveDirectAbsPt */\012ELSE[ ]	/* Else */\012PUSHB[ ]	/* 2 values pushed */\01212 23 \012MIAP[0]	/* MoveIndirectAbsPt */\012EIF[ ]	/* EndIf */\012PUSHB[ ]	/* 1 value pushed */\0120 \012RCVT[ ]	/* ReadCVT */\012IF[ ]	/* If */\012PUSHB[ ]	/* 1 value pushed */\0120 \012MDAP[1]	/* MoveDirectAbsPt */\012ELSE[ ]	/* Else */\012PUSHB[ ]	/* 2 values pushed */\0120 17 \012MIAP[0]	/* MoveIndirectAbsPt */\012EIF[ ]	/* EndIf */\012PUSHB[ ]	/* 2 values pushed */\01230 3 \012MIRP[10100]	/* MoveIndirectRelPt */\012NPUSHB[ ]	/* 11 values pushed */\0127 30 23 30 39 30 55 30 71 30 5 \012DELTAP1[ ]	/* DeltaExceptionP1 */\012PUSHB[ ]	/* 1 value pushed */\01233 \012MDRP[10000]	/* MoveDirectRelPt */\012PUSHB[ ]	/* 1 value pushed */\01233 \012MDAP[1]	/* MoveDirectAbsPt */\012PUSHB[ ]	/* 3 values pushed */\01236 0 12 \012SRP1[ ]	/* SetRefPoint1 */\012SRP2[ ]	/* SetRefPoint2 */\012IP[ ]	/* InterpolatePts */\012PUSHB[ ]	/* 1 value pushed */\01212 \012SRP0[ ]	/* SetRefPoint0 */\012PUSHB[ ]	/* 2 values pushed */\01244 3 \012MIRP[10100]	/* MoveIndirectRelPt */\012NPUSHB[ ]	/* 11 values pushed */\0128 44 24 44 40 44 56 44 72 44 5 \012DELTAP1[ ]	/* DeltaExceptionP1 */\012IUP[0]	/* InterpolateUntPts */\012IUP[1]	/* InterpolateUntPts */";
};
width = 1401;
}
);
leftMetricsKey = O;
note = Q;
rightMetricsKey = O;
unicode = 0051;
},
{
color = 4;
glyphname = R;
lastChange = "2022-05-11 19:54:07 +0000";
layers = (
{
anchors = (
{
name = bottom;
position = "{633, 0}";
},
{
name = top;
position = "{633, 1427}";
}
);
layerId = "410E5E1C-5FD0-457E-A79B-7BF13808BDAC";
paths = (
{
closed = 1;
nodes = (
"412 0 LINE",
"412 524 LINE",
"649 524 LINE",
"916 0 LINE",
"1190 0 LINE",
"889 578 LINE",
"889 580 LINE",
"935 593 OFFCURVE",
"976 615 OFFCURVE",
"1013 647 CURVE SMOOTH",
"1086 714 OFFCURVE",
"1137 815 OFFCURVE",
"1137 969 CURVE SMOOTH",
"1137 1097 OFFCURVE",
"1115 1190 OFFCURVE",
"1076 1258 CURVE SMOOTH",
"1056 1292 OFFCURVE",
"1033 1320 OFFCURVE",
"1006 1342 CURVE SMOOTH",
"953 1385 OFFCURVE",
"887 1410 OFFCURVE",
"815 1420 CURVE SMOOTH",
"778 1425 OFFCURVE",
"741 1427 OFFCURVE",
"703 1427 CURVE SMOOTH",
"172 1427 LINE",
"172 0 LINE"
);
},
{
closed = 1;
nodes = (
"412 1204 LINE",
"695 1204 LINE SMOOTH",
"823 1204 OFFCURVE",
"889 1137 OFFCURVE",
"889 983 CURVE SMOOTH",
"889 828 OFFCURVE",
"826 750 OFFCURVE",
"701 750 CURVE SMOOTH",
"412 750 LINE"
);
}
);
userData = {
assembly = "PUSHB[ ]	/* 1 value pushed */\01233 \012MDAP[1]	/* MoveDirectAbsPt */\012PUSHB[ ]	/* 1 value pushed */\01225 \012MDAP[1]	/* MoveDirectAbsPt */\012PUSHB[ ]	/* 1 value pushed */\01233 \012SRP0[ ]	/* SetRefPoint0 */\012PUSHB[ ]	/* 1 value pushed */\0120 \012MDRP[10000]	/* MoveDirectRelPt */\012PUSHB[ ]	/* 1 value pushed */\0120 \012MDAP[1]	/* MoveDirectAbsPt */\012NPUSHB[ ]	/* 11 values pushed */\0129 25 25 25 41 25 57 25 73 25 5 \012DELTAP1[ ]	/* DeltaExceptionP1 */\012PUSHB[ ]	/* 1 value pushed */\01225 \012SRP0[ ]	/* SetRefPoint0 */\012PUSHB[ ]	/* 2 values pushed */\0128 12 \012MIRP[10100]	/* MoveIndirectRelPt */\012PUSHB[ ]	/* 1 value pushed */\01225 \012SRP0[ ]	/* SetRefPoint0 */\012PUSHB[ ]	/* 1 value pushed */\01215 \012MDRP[10000]	/* MoveDirectRelPt */\012PUSHB[ ]	/* 1 value pushed */\0120 \012SRP0[ ]	/* SetRefPoint0 */\012PUSHB[ ]	/* 2 values pushed */\01231 12 \012MIRP[10100]	/* MoveIndirectRelPt */\012PUSHB[ ]	/* 1 value pushed */\01220 \012MDRP[10000]	/* MoveDirectRelPt */\012PUSHB[ ]	/* 1 value pushed */\0128 \012SRP0[ ]	/* SetRefPoint0 */\012PUSHB[ ]	/* 1 value pushed */\01234 \012MDRP[11100]	/* MoveDirectRelPt */\012SVTCA[0]	/* SetFreedomAndProjectionVectorToAxis */\012PUSHB[ ]	/* 1 value pushed */\0120 \012RCVT[ ]	/* ReadCVT */\012IF[ ]	/* If */\012PUSHB[ ]	/* 1 value pushed */\0120 \012MDAP[1]	/* MoveDirectAbsPt */\012ELSE[ ]	/* Else */\012PUSHB[ ]	/* 2 values pushed */\0120 23 \012MIAP[0]	/* MoveIndirectAbsPt */\012EIF[ ]	/* EndIf */\012PUSHB[ ]	/* 1 value pushed */\0120 \012RCVT[ ]	/* ReadCVT */\012IF[ ]	/* If */\012PUSHB[ ]	/* 1 value pushed */\01217 \012MDAP[1]	/* MoveDirectAbsPt */\012ELSE[ ]	/* Else */\012PUSHB[ ]	/* 2 values pushed */\01217 17 \012MIAP[0]	/* MoveIndirectAbsPt */\012EIF[ ]	/* EndIf */\012PUSHB[ ]	/* 1 value pushed */\0120 \012RCVT[ ]	/* ReadCVT */\012IF[ ]	/* If */\012PUSHB[ ]	/* 1 value pushed */\01221 \012MDAP[1]	/* MoveDirectAbsPt */\012ELSE[ ]	/* Else */\012PUSHB[ ]	/* 2 values pushed */\01221 17 \012MIAP[0]	/* MoveIndirectAbsPt */\012EIF[ ]	/* EndIf */\012PUSHB[ ]	/* 4 values pushed */\01223 3 19 4 \012CALL[ ]	/* CallFunction */\012PUSHB[ ]	/* 1 value pushed */\0120 \012SRP0[ ]	/* SetRefPoint0 */\012PUSHB[ ]	/* 2 values pushed */\01230 3 \012MIRP[10100]	/* MoveIndirectRelPt */\012IUP[0]	/* InterpolateUntPts */\012IUP[1]	/* InterpolateUntPts */";
};
width = 1275;
}
);
leftMetricsKey = "=H";
note = R;
unicode = 0052;
},
{
color = 4;
glyphname = S;
lastChange = "2022-05-11 05:38:50 +0000";
layers = (
{
anchors = (
{
name = bottom;
position = "{555, 0}";
},
{
name = top;
position = "{555, 1427}";
}
);
layerId = "410E5E1C-5FD0-457E-A79B-7BF13808BDAC";
paths = (
{
closed = 1;
nodes = (
"141.333 24.333 OFFCURVE",
"170.333 13 OFFCURVE",
"207 3 CURVE SMOOTH",
"271 -14.333 OFFCURVE",
"369.333 -31 OFFCURVE",
"524 -31 CURVE SMOOTH",
"724 -31 OFFCURVE",
"845 0.833 OFFCURVE",
"917 69.5 CURVE SMOOTH",
"989 138.167 OFFCURVE",
"1010 246 OFFCURVE",
"1010 398 CURVE SMOOTH",
"1010 475 OFFCURVE",
"1002 549 OFFCURVE",
"985 605 CURVE SMOOTH",
"976 632 OFFCURVE",
"965 656 OFFCURVE",
"951 676 CURVE SMOOTH",
"922 716 OFFCURVE",
"883 746 OFFCURVE",
"829 768 CURVE SMOOTH",
"802 779 OFFCURVE",
"771 789 OFFCURVE",
"736 799 CURVE SMOOTH",
"465 877 LINE SMOOTH",
"363 906 OFFCURVE",
"346 945 OFFCURVE",
"346 1057 CURVE SMOOTH",
"346 1134 OFFCURVE",
"361 1178.667 OFFCURVE",
"405 1204 CURVE SMOOTH",
"449 1229.333 OFFCURVE",
"522.333 1235 OFFCURVE",
"641 1235 CURVE SMOOTH",
"717 1235 OFFCURVE",
"790.667 1229.667 OFFCURVE",
"848 1223 CURVE SMOOTH",
"881.333 1219.667 OFFCURVE",
"913 1216 OFFCURVE",
"943 1212 CURVE",
"943 1397 LINE",
"910.333 1407.667 OFFCURVE",
"874 1417.333 OFFCURVE",
"834 1426 CURVE SMOOTH",
"766 1440.667 OFFCURVE",
"670.333 1456 OFFCURVE",
"557 1456 CURVE SMOOTH",
"421 1456 OFFCURVE",
"308.5 1424.667 OFFCURVE",
"230.5 1358 CURVE SMOOTH",
"152.5 1291.333 OFFCURVE",
"108 1188.333 OFFCURVE",
"108 1047 CURVE SMOOTH",
"108 935 OFFCURVE",
"125 848 OFFCURVE",
"165 785 CURVE SMOOTH",
"204 722 OFFCURVE",
"267 683 OFFCURVE",
"359 659 CURVE SMOOTH",
"650 583 LINE SMOOTH",
"758 555 OFFCURVE",
"773 493 OFFCURVE",
"773 383 CURVE SMOOTH",
"773 320.333 OFFCURVE",
"766 272.167 OFFCURVE",
"726 239.5 CURVE SMOOTH",
"686 206.833 OFFCURVE",
"614.333 190 OFFCURVE",
"485 190 CURVE SMOOTH",
"387.667 190 OFFCURVE",
"298 194.333 OFFCURVE",
"230 201 CURVE SMOOTH",
"190.667 204.333 OFFCURVE",
"154 208.333 OFFCURVE",
"120 213 CURVE",
"120 37 LINE"
);
}
);
userData = {
assembly = "PUSHB[ ]	/* 1 value pushed */\01266 \012MDAP[1]	/* MoveDirectAbsPt */\012PUSHB[ ]	/* 1 value pushed */\01210 \012MDAP[1]	/* MoveDirectAbsPt */\012PUSHB[ ]	/* 1 value pushed */\01266 \012SRP0[ ]	/* SetRefPoint0 */\012PUSHB[ ]	/* 1 value pushed */\01221 \012MDRP[10000]	/* MoveDirectRelPt */\012PUSHB[ ]	/* 1 value pushed */\01221 \012MDAP[1]	/* MoveDirectAbsPt */\012PUSHB[ ]	/* 1 value pushed */\0120 \012MDRP[10000]	/* MoveDirectRelPt */\012PUSHB[ ]	/* 1 value pushed */\0120 \012MDAP[1]	/* MoveDirectAbsPt */\012NPUSHB[ ]	/* 11 values pushed */\0129 10 25 10 41 10 57 10 73 10 5 \012DELTAP1[ ]	/* DeltaExceptionP1 */\012PUSHB[ ]	/* 1 value pushed */\01221 \012SRP0[ ]	/* SetRefPoint0 */\012PUSHB[ ]	/* 2 values pushed */\01242 13 \012MIRP[10100]	/* MoveIndirectRelPt */\012PUSHB[ ]	/* 7 values pushed */\0126 42 22 42 38 42 3 \012DELTAP1[ ]	/* DeltaExceptionP1 */\012PUSHB[ ]	/* 5 values pushed */\01254 42 70 42 2 \012DELTAP1[ ]	/* DeltaExceptionP1 */\012PUSHB[ ]	/* 1 value pushed */\01216 \012MDRP[10000]	/* MoveDirectRelPt */\012PUSHB[ ]	/* 1 value pushed */\01216 \012MDAP[1]	/* MoveDirectAbsPt */\012PUSHB[ ]	/* 1 value pushed */\01210 \012SRP0[ ]	/* SetRefPoint0 */\012PUSHB[ ]	/* 2 values pushed */\01255 13 \012MIRP[10100]	/* MoveIndirectRelPt */\012PUSHB[ ]	/* 1 value pushed */\01267 \012MDRP[11100]	/* MoveDirectRelPt */\012SVTCA[0]	/* SetFreedomAndProjectionVectorToAxis */\012PUSHB[ ]	/* 1 value pushed */\0120 \012RCVT[ ]	/* ReadCVT */\012IF[ ]	/* If */\012PUSHB[ ]	/* 1 value pushed */\01226 \012MDAP[1]	/* MoveDirectAbsPt */\012ELSE[ ]	/* Else */\012PUSHB[ ]	/* 2 values pushed */\01226 23 \012MIAP[0]	/* MoveIndirectAbsPt */\012EIF[ ]	/* EndIf */\012PUSHB[ ]	/* 1 value pushed */\0120 \012RCVT[ ]	/* ReadCVT */\012IF[ ]	/* If */\012PUSHB[ ]	/* 1 value pushed */\01260 \012MDAP[1]	/* MoveDirectAbsPt */\012ELSE[ ]	/* Else */\012PUSHB[ ]	/* 2 values pushed */\01260 17 \012MIAP[0]	/* MoveIndirectAbsPt */\012EIF[ ]	/* EndIf */\012PUSHB[ ]	/* 2 values pushed */\0122 3 \012MIRP[10100]	/* MoveIndirectRelPt */\012NPUSHB[ ]	/* 11 values pushed */\0127 2 23 2 39 2 55 2 71 2 5 \012DELTAP1[ ]	/* DeltaExceptionP1 */\012PUSHB[ ]	/* 1 value pushed */\0125 \012MDRP[10000]	/* MoveDirectRelPt */\012PUSHB[ ]	/* 1 value pushed */\01226 \012SRP0[ ]	/* SetRefPoint0 */\012PUSHB[ ]	/* 2 values pushed */\01234 3 \012MIRP[10100]	/* MoveIndirectRelPt */\012NPUSHB[ ]	/* 11 values pushed */\0128 34 24 34 40 34 56 34 72 34 5 \012DELTAP1[ ]	/* DeltaExceptionP1 */\012PUSHB[ ]	/* 1 value pushed */\01237 \012MDRP[10000]	/* MoveDirectRelPt */\012IUP[0]	/* InterpolateUntPts */\012IUP[1]	/* InterpolateUntPts */";
};
width = 1110;
}
);
note = S;
unicode = 0053;
},
{
glyphname = Saltillo;
lastChange = "2022-05-11 05:37:28 +0000";
layers = (
{
layerId = "410E5E1C-5FD0-457E-A79B-7BF13808BDAC";
paths = (
{
closed = 1;
nodes = (
"422 438 LINE",
"422 1427 LINE",
"182 1427 LINE",
"182 438 LINE"
);
}
);
width = 604;
}
);
unicode = A78B;
},
{
color = 4;
glyphname = Germandbls;
lastChange = "2022-05-11 19:54:07 +0000";
layers = (
{
background = {
components = (
{
name = H;
transform = "{1, 0, 0, 1, -11, 0}";
}
);
};
layerId = "410E5E1C-5FD0-457E-A79B-7BF13808BDAC";
paths = (
{
closed = 1;
nodes = (
"1268 652 OFFCURVE",
"1257 676 OFFCURVE",
"1243 696 CURVE SMOOTH",
"1214 736 OFFCURVE",
"1175 766 OFFCURVE",
"1121 788 CURVE SMOOTH",
"1094 799 OFFCURVE",
"1063 809 OFFCURVE",
"1028 819 CURVE SMOOTH",
"930 847 LINE",
"1229 1268 LINE",
"1229 1427 LINE",
"172 1427 LINE",
"172 0 LINE",
"411 0 LINE",
"411 1214 LINE",
"905 1214 LINE",
"905 1212 LINE",
"609 726 LINE",
"942 605 LINE SMOOTH",
"1050 566 OFFCURVE",
"1065 515 OFFCURVE",
"1065 383 CURVE SMOOTH",
"1065 320 OFFCURVE",
"1058 272 OFFCURVE",
"1018 240 CURVE SMOOTH",
"978 207 OFFCURVE",
"906 190 OFFCURVE",
"827 190 CURVE SMOOTH",
"780 190 OFFCURVE",
"730 194 OFFCURVE",
"662 200 CURVE SMOOTH",
"623 204 OFFCURVE",
"586 208 OFFCURVE",
"552 213 CURVE",
"552 37 LINE",
"573 24 OFFCURVE",
"602 13 OFFCURVE",
"639 3 CURVE SMOOTH",
"703 -14 OFFCURVE",
"761 -31 OFFCURVE",
"866 -31 CURVE SMOOTH",
"1016 -31 OFFCURVE",
"1137 1 OFFCURVE",
"1209 70 CURVE SMOOTH",
"1281 138 OFFCURVE",
"1302 246 OFFCURVE",
"1302 398 CURVE SMOOTH",
"1302 495 OFFCURVE",
"1294 569 OFFCURVE",
"1277 625 CURVE SMOOTH"
);
}
);
width = 1402;
}
);
leftMetricsKey = H;
rightMetricsKey = S;
unicode = 1E9E;
},
{
glyphname = Schwa;
lastChange = "2022-05-11 05:37:28 +0000";
layers = (
{
layerId = "410E5E1C-5FD0-457E-A79B-7BF13808BDAC";
paths = (
{
closed = 1;
nodes = (
"1308 996 OFFCURVE",
"1247 1185 OFFCURVE",
"1135 1301 CURVE SMOOTH",
"1023 1417 OFFCURVE",
"860 1458 OFFCURVE",
"683 1458 CURVE SMOOTH",
"291 1458 OFFCURVE",
"57 1170 OFFCURVE",
"127 627 CURVE",
"1156 628 LINE",
"1156 847 LINE",
"389 849 LINE",
"347 1139 OFFCURVE",
"502 1237 OFFCURVE",
"699 1237 CURVE SMOOTH",
"810 1237 OFFCURVE",
"910 1198 OFFCURVE",
"973 1111 CURVE SMOOTH",
"1036 1024 OFFCURVE",
"1061 891 OFFCURVE",
"1061 700 CURVE SMOOTH",
"1061 513 OFFCURVE",
"1038 387 OFFCURVE",
"974 307 CURVE SMOOTH",
"910 227 OFFCURVE",
"804 194 OFFCURVE",
"637 194 CURVE SMOOTH",
"541 194 OFFCURVE",
"447 200 OFFCURVE",
"376 205 CURVE SMOOTH",
"335 208 OFFCURVE",
"296 211 OFFCURVE",
"260 215 CURVE",
"260 34 LINE",
"293 23 OFFCURVE",
"331 12 OFFCURVE",
"373 3 CURVE SMOOTH",
"446 -13 OFFCURVE",
"549 -29 OFFCURVE",
"678 -29 CURVE SMOOTH",
"870 -29 OFFCURVE",
"1026 16 OFFCURVE",
"1136 130 CURVE SMOOTH",
"1246 244 OFFCURVE",
"1308 427 OFFCURVE",
"1308 700 CURVE"
);
}
);
width = 1423;
}
);
leftMetricsKey = O;
rightMetricsKey = O;
unicode = 018F;
},
{
color = 4;
glyphname = T;
lastChange = "2022-05-11 19:53:46 +0000";
layers = (
{
anchors = (
{
name = bottom;
position = "{569, 0}";
},
{
name = center;
position = "{569, 714}";
},
{
name = top;
position = "{569, 1427}";
}
);
layerId = "410E5E1C-5FD0-457E-A79B-7BF13808BDAC";
paths = (
{
closed = 1;
nodes = (
"686 0 LINE",
"686 1206 LINE",
"1118 1206 LINE",
"1118 1427 LINE",
"20 1427 LINE",
"20 1206 LINE",
"448 1206 LINE",
"448 0 LINE"
);
}
);
userData = {
assembly = "PUSHB[ ]	/* 4 values pushed */\0125 13 0 4 \012CALL[ ]	/* CallFunction */\012SVTCA[0]	/* SetFreedomAndProjectionVectorToAxis */\012PUSHB[ ]	/* 1 value pushed */\0120 \012RCVT[ ]	/* ReadCVT */\012IF[ ]	/* If */\012PUSHB[ ]	/* 1 value pushed */\0122 \012MDAP[1]	/* MoveDirectAbsPt */\012ELSE[ ]	/* Else */\012PUSHB[ ]	/* 2 values pushed */\0122 23 \012MIAP[0]	/* MoveIndirectAbsPt */\012EIF[ ]	/* EndIf */\012PUSHB[ ]	/* 1 value pushed */\0120 \012RCVT[ ]	/* ReadCVT */\012IF[ ]	/* If */\012PUSHB[ ]	/* 1 value pushed */\0126 \012MDAP[1]	/* MoveDirectAbsPt */\012ELSE[ ]	/* Else */\012PUSHB[ ]	/* 2 values pushed */\0126 17 \012MIAP[0]	/* MoveIndirectAbsPt */\012EIF[ ]	/* EndIf */\012PUSHB[ ]	/* 1 value pushed */\0122 \012SRP0[ ]	/* SetRefPoint0 */\012PUSHB[ ]	/* 2 values pushed */\0120 3 \012MIRP[10100]	/* MoveIndirectRelPt */\012PUSHB[ ]	/* 1 value pushed */\0124 \012MDRP[10000]	/* MoveDirectRelPt */\012PUSHB[ ]	/* 1 value pushed */\0125 \012MDRP[10000]	/* MoveDirectRelPt */\012IUP[0]	/* InterpolateUntPts */\012IUP[1]	/* InterpolateUntPts */";
};
width = 1138;
}
);
note = T;
rightMetricsKey = "=|";
unicode = 0054;
},
{
glyphname = Tbar;
lastChange = "2022-05-11 04:40:54 +0000";
layers = (
{
layerId = "410E5E1C-5FD0-457E-A79B-7BF13808BDAC";
paths = (
{
closed = 1;
nodes = (
"707 0 LINE",
"707 603 LINE",
"996 603 LINE",
"996 797 LINE",
"707 797 LINE",
"707 1206 LINE",
"1139 1206 LINE",
"1139 1427 LINE",
"41 1427 LINE",
"41 1206 LINE",
"469 1206 LINE",
"469 797 LINE",
"185 797 LINE",
"185 603 LINE",
"469 603 LINE",
"469 0 LINE"
);
}
);
userData = {
assembly = "PUSHB[ ]	/* 3 values pushed */\01212 1 3 \012CALL[ ]	/* CallFunction */\012PUSHB[ ]	/* 3 values pushed */\0120 1 12 \012SRP1[ ]	/* SetRefPoint1 */\012SRP2[ ]	/* SetRefPoint2 */\012IP[ ]	/* InterpolatePts */\012PUSHB[ ]	/* 1 value pushed */\0120 \012MDAP[1]	/* MoveDirectAbsPt */\012PUSHB[ ]	/* 1 value pushed */\0123 \012MDRP[10000]	/* MoveDirectRelPt */\012PUSHB[ ]	/* 1 value pushed */\0120 \012SRP0[ ]	/* SetRefPoint0 */\012PUSHB[ ]	/* 2 values pushed */\01213 13 \012MIRP[10100]	/* MoveIndirectRelPt */\012PUSHB[ ]	/* 1 value pushed */\0129 \012MDRP[10000]	/* MoveDirectRelPt */\012PUSHB[ ]	/* 1 value pushed */\01212 \012SRP0[ ]	/* SetRefPoint0 */\012PUSHB[ ]	/* 1 value pushed */\01217 \012MDRP[11100]	/* MoveDirectRelPt */\012SVTCA[0]	/* SetFreedomAndProjectionVectorToAxis */\012PUSHB[ ]	/* 1 value pushed */\0120 \012RCVT[ ]	/* ReadCVT */\012IF[ ]	/* If */\012PUSHB[ ]	/* 1 value pushed */\0126 \012MDAP[1]	/* MoveDirectAbsPt */\012ELSE[ ]	/* Else */\012PUSHB[ ]	/* 2 values pushed */\0126 23 \012MIAP[0]	/* MoveIndirectAbsPt */\012EIF[ ]	/* EndIf */\012PUSHB[ ]	/* 1 value pushed */\0120 \012RCVT[ ]	/* ReadCVT */\012IF[ ]	/* If */\012PUSHB[ ]	/* 1 value pushed */\01214 \012MDAP[1]	/* MoveDirectAbsPt */\012ELSE[ ]	/* Else */\012PUSHB[ ]	/* 2 values pushed */\01214 17 \012MIAP[0]	/* MoveIndirectAbsPt */\012EIF[ ]	/* EndIf */\012PUSHB[ ]	/* 4 values pushed */\0123 8 0 4 \012CALL[ ]	/* CallFunction */\012PUSHB[ ]	/* 1 value pushed */\0126 \012SRP0[ ]	/* SetRefPoint0 */\012PUSHB[ ]	/* 2 values pushed */\0124 3 \012MIRP[10100]	/* MoveIndirectRelPt */\012PUSHB[ ]	/* 1 value pushed */\0128 \012MDRP[10000]	/* MoveDirectRelPt */\012PUSHB[ ]	/* 1 value pushed */\0129 \012MDRP[10000]	/* MoveDirectRelPt */\012PUSHB[ ]	/* 1 value pushed */\0123 \012SRP0[ ]	/* SetRefPoint0 */\012PUSHB[ ]	/* 1 value pushed */\01210 \012MDRP[10000]	/* MoveDirectRelPt */\012PUSHB[ ]	/* 1 value pushed */\0120 \012SRP0[ ]	/* SetRefPoint0 */\012PUSHB[ ]	/* 1 value pushed */\01212 \012MDRP[10000]	/* MoveDirectRelPt */\012IUP[0]	/* InterpolateUntPts */\012IUP[1]	/* InterpolateUntPts */";
};
width = 1180;
}
);
note = Tbar;
unicode = 0166;
},
{
color = 4;
glyphname = U;
lastChange = "2022-05-11 05:34:24 +0000";
layers = (
{
anchors = (
{
name = bottom;
position = "{703, 0}";
},
{
name = ogonek;
position = "{1265, 10}";
},
{
name = top;
position = "{703, 1427}";
},
{
name = topright;
position = "{1570, 1427}";
}
);
layerId = "410E5E1C-5FD0-457E-A79B-7BF13808BDAC";
paths = (
{
closed = 1;
nodes = (
"177 289.667 OFFCURVE",
"213.833 168 OFFCURVE",
"298.5 88 CURVE SMOOTH",
"383.167 8 OFFCURVE",
"514.667 -31 OFFCURVE",
"704 -31 CURVE SMOOTH",
"893.333 -31 OFFCURVE",
"1024 8.833 OFFCURVE",
"1108 89.5 CURVE SMOOTH",
"1192 170.167 OFFCURVE",
"1228 292.333 OFFCURVE",
"1228 459 CURVE SMOOTH",
"1228 1427 LINE",
"990 1427 LINE",
"990 473 LINE SMOOTH",
"990 359.667 OFFCURVE",
"967 288.5 OFFCURVE",
"919 246.5 CURVE SMOOTH",
"871 204.5 OFFCURVE",
"800 190 OFFCURVE",
"704 190 CURVE SMOOTH",
"597.333 190 OFFCURVE",
"525.5 204.5 OFFCURVE",
"479.5 246.5 CURVE SMOOTH",
"433.5 288.5 OFFCURVE",
"415 359.667 OFFCURVE",
"415 473 CURVE SMOOTH",
"415 1427 LINE",
"177 1427 LINE",
"177 455 LINE"
);
}
);
userData = {
assembly = "PUSHB[ ]	/* 1 value pushed */\01226 \012MDAP[1]	/* MoveDirectAbsPt */\012PUSHB[ ]	/* 1 value pushed */\01212 \012MDAP[1]	/* MoveDirectAbsPt */\012PUSHB[ ]	/* 1 value pushed */\01226 \012SRP0[ ]	/* SetRefPoint0 */\012PUSHB[ ]	/* 1 value pushed */\0120 \012MDRP[10000]	/* MoveDirectRelPt */\012PUSHB[ ]	/* 1 value pushed */\0120 \012MDAP[1]	/* MoveDirectAbsPt */\012PUSHB[ ]	/* 2 values pushed */\0121 13 \012MIRP[10100]	/* MoveIndirectRelPt */\012PUSHB[ ]	/* 1 value pushed */\01212 \012SRP0[ ]	/* SetRefPoint0 */\012PUSHB[ ]	/* 2 values pushed */\01215 13 \012MIRP[10100]	/* MoveIndirectRelPt */\012PUSHB[ ]	/* 1 value pushed */\01227 \012MDRP[11100]	/* MoveDirectRelPt */\012SVTCA[0]	/* SetFreedomAndProjectionVectorToAxis */\012PUSHB[ ]	/* 1 value pushed */\0120 \012RCVT[ ]	/* ReadCVT */\012IF[ ]	/* If */\012PUSHB[ ]	/* 1 value pushed */\0120 \012MDAP[1]	/* MoveDirectAbsPt */\012ELSE[ ]	/* Else */\012PUSHB[ ]	/* 2 values pushed */\0120 23 \012MIAP[0]	/* MoveIndirectAbsPt */\012EIF[ ]	/* EndIf */\012PUSHB[ ]	/* 1 value pushed */\0120 \012RCVT[ ]	/* ReadCVT */\012IF[ ]	/* If */\012PUSHB[ ]	/* 1 value pushed */\01213 \012MDAP[1]	/* MoveDirectAbsPt */\012ELSE[ ]	/* Else */\012PUSHB[ ]	/* 2 values pushed */\01213 23 \012MIAP[0]	/* MoveIndirectAbsPt */\012EIF[ ]	/* EndIf */\012PUSHB[ ]	/* 1 value pushed */\0120 \012RCVT[ ]	/* ReadCVT */\012IF[ ]	/* If */\012PUSHB[ ]	/* 1 value pushed */\01220 \012MDAP[1]	/* MoveDirectAbsPt */\012ELSE[ ]	/* Else */\012PUSHB[ ]	/* 2 values pushed */\01220 17 \012MIAP[0]	/* MoveIndirectAbsPt */\012EIF[ ]	/* EndIf */\012PUSHB[ ]	/* 2 values pushed */\0127 3 \012MIRP[10100]	/* MoveIndirectRelPt */\012NPUSHB[ ]	/* 11 values pushed */\0127 7 23 7 39 7 55 7 71 7 5 \012DELTAP1[ ]	/* DeltaExceptionP1 */\012IUP[0]	/* InterpolateUntPts */\012IUP[1]	/* InterpolateUntPts */";
};
width = 1405;
}
);
note = U;
unicode = 0055;
},
{
glyphname = Uogonek;
lastChange = "2022-05-11 04:40:54 +0000";
layers = (
{
layerId = "410E5E1C-5FD0-457E-A79B-7BF13808BDAC";
paths = (
{
closed = 1;
nodes = (
"177 296.333 OFFCURVE",
"210.667 178 OFFCURVE",
"288 98 CURVE SMOOTH",
"365.333 18 OFFCURVE",
"485.667 -24.667 OFFCURVE",
"659 -30 CURVE",
"603.896 -96.125 OFFCURVE",
"554 -181.475 OFFCURVE",
"554 -279 CURVE SMOOTH",
"554 -423.272 OFFCURVE",
"662.244 -500 OFFCURVE",
"806 -500 CURVE SMOOTH",
"844.667 -500 OFFCURVE",
"877.333 -495.333 OFFCURVE",
"904 -490 CURVE SMOOTH",
"918.667 -487.333 OFFCURVE",
"932.667 -483.667 OFFCURVE",
"946 -479 CURVE",
"946 -311 LINE",
"939.333 -312.333 OFFCURVE",
"932.333 -313.333 OFFCURVE",
"925 -314 CURVE SMOOTH",
"911.667 -316 OFFCURVE",
"895.333 -317 OFFCURVE",
"876 -317 CURVE SMOOTH",
"808 -317 OFFCURVE",
"776 -281 OFFCURVE",
"776 -225 CURVE SMOOTH",
"776 -158.333 OFFCURVE",
"823 -80 OFFCURVE",
"947 0 CURVE",
"1145.667 60 OFFCURVE",
"1228 211 OFFCURVE",
"1228 459 CURVE SMOOTH",
"1228 1427 LINE",
"990 1427 LINE",
"990 473 LINE SMOOTH",
"990 359.667 OFFCURVE",
"967 288.5 OFFCURVE",
"919 246.5 CURVE SMOOTH",
"871 204.5 OFFCURVE",
"800 190 OFFCURVE",
"704 190 CURVE SMOOTH",
"597.333 190 OFFCURVE",
"525.5 204.5 OFFCURVE",
"479.5 246.5 CURVE SMOOTH",
"433.5 288.5 OFFCURVE",
"415 359.667 OFFCURVE",
"415 473 CURVE SMOOTH",
"415 1427 LINE",
"177 1427 LINE",
"177 455 LINE"
);
}
);
userData = {
assembly = "PUSHB[ ]	/* 4 values pushed */\0121 13 0 4 \012CALL[ ]	/* CallFunction */\012PUSHB[ ]	/* 4 values pushed */\01215 13 12 4 \012CALL[ ]	/* CallFunction */\012PUSHB[ ]	/* 4 values pushed */\01221 10 39 4 \012CALL[ ]	/* CallFunction */\012NPUSHB[ ]	/* 11 values pushed */\0126 21 22 21 38 21 54 21 70 21 5 \012DELTAP1[ ]	/* DeltaExceptionP1 */\012PUSHB[ ]	/* 3 values pushed */\01244 39 21 \012SRP1[ ]	/* SetRefPoint1 */\012SRP2[ ]	/* SetRefPoint2 */\012IP[ ]	/* InterpolatePts */\012PUSHB[ ]	/* 1 value pushed */\01215 \012SRP0[ ]	/* SetRefPoint0 */\012PUSHB[ ]	/* 1 value pushed */\01251 \012MDRP[11100]	/* MoveDirectRelPt */\012SVTCA[0]	/* SetFreedomAndProjectionVectorToAxis */\012PUSHB[ ]	/* 1 value pushed */\0120 \012RCVT[ ]	/* ReadCVT */\012IF[ ]	/* If */\012PUSHB[ ]	/* 1 value pushed */\0120 \012MDAP[1]	/* MoveDirectAbsPt */\012ELSE[ ]	/* Else */\012PUSHB[ ]	/* 2 values pushed */\0120 23 \012MIAP[0]	/* MoveIndirectAbsPt */\012EIF[ ]	/* EndIf */\012PUSHB[ ]	/* 1 value pushed */\0120 \012RCVT[ ]	/* ReadCVT */\012IF[ ]	/* If */\012PUSHB[ ]	/* 1 value pushed */\01213 \012MDAP[1]	/* MoveDirectAbsPt */\012ELSE[ ]	/* Else */\012PUSHB[ ]	/* 2 values pushed */\01213 23 \012MIAP[0]	/* MoveIndirectAbsPt */\012EIF[ ]	/* EndIf */\012PUSHB[ ]	/* 1 value pushed */\0120 \012RCVT[ ]	/* ReadCVT */\012IF[ ]	/* If */\012PUSHB[ ]	/* 1 value pushed */\01218 \012MDAP[1]	/* MoveDirectAbsPt */\012ELSE[ ]	/* Else */\012PUSHB[ ]	/* 2 values pushed */\01218 17 \012MIAP[0]	/* MoveIndirectAbsPt */\012EIF[ ]	/* EndIf */\012PUSHB[ ]	/* 1 value pushed */\0120 \012RCVT[ ]	/* ReadCVT */\012IF[ ]	/* If */\012PUSHB[ ]	/* 1 value pushed */\01231 \012MDAP[1]	/* MoveDirectAbsPt */\012ELSE[ ]	/* Else */\012PUSHB[ ]	/* 2 values pushed */\01231 19 \012MIAP[0]	/* MoveIndirectAbsPt */\012EIF[ ]	/* EndIf */\012PUSHB[ ]	/* 1 value pushed */\0120 \012RCVT[ ]	/* ReadCVT */\012IF[ ]	/* If */\012PUSHB[ ]	/* 1 value pushed */\01234 \012MDAP[1]	/* MoveDirectAbsPt */\012ELSE[ ]	/* Else */\012PUSHB[ ]	/* 2 values pushed */\01234 19 \012MIAP[0]	/* MoveIndirectAbsPt */\012EIF[ ]	/* EndIf */\012PUSHB[ ]	/* 1 value pushed */\0120 \012RCVT[ ]	/* ReadCVT */\012IF[ ]	/* If */\012PUSHB[ ]	/* 1 value pushed */\01244 \012MDAP[1]	/* MoveDirectAbsPt */\012ELSE[ ]	/* Else */\012PUSHB[ ]	/* 2 values pushed */\01244 17 \012MIAP[0]	/* MoveIndirectAbsPt */\012EIF[ ]	/* EndIf */\012PUSHB[ ]	/* 2 values pushed */\0127 3 \012MIRP[10100]	/* MoveIndirectRelPt */\012NPUSHB[ ]	/* 11 values pushed */\0127 7 23 7 39 7 55 7 71 7 5 \012DELTAP1[ ]	/* DeltaExceptionP1 */\012PUSHB[ ]	/* 1 value pushed */\01231 \012SRP0[ ]	/* SetRefPoint0 */\012PUSHB[ ]	/* 2 values pushed */\01224 4 \012MIRP[10100]	/* MoveIndirectRelPt */\012NPUSHB[ ]	/* 11 values pushed */\0127 24 23 24 39 24 55 24 71 24 5 \012DELTAP1[ ]	/* DeltaExceptionP1 */\012IUP[0]	/* InterpolateUntPts */\012IUP[1]	/* InterpolateUntPts */";
};
width = 1405;
}
);
note = Uogonek;
unicode = 0172;
},
{
color = 4;
glyphname = V;
lastChange = "2022-05-11 04:45:39 +0000";
layers = (
{
anchors = (
{
name = bottom;
position = "{672, 0}";
},
{
name = top;
position = "{672, 1427}";
}
);
layerId = "410E5E1C-5FD0-457E-A79B-7BF13808BDAC";
paths = (
{
closed = 1;
nodes = (
"1343 1427 LINE",
"1069 1427 LINE",
"680 223 LINE",
"664 223 LINE",
"274 1427 LINE",
"0 1427 LINE",
"483 0 LINE",
"860 0 LINE"
);
}
);
userData = {
assembly = "SVTCA[0]	/* SetFreedomAndProjectionVectorToAxis */\012PUSHB[ ]	/* 1 value pushed */\0120 \012RCVT[ ]	/* ReadCVT */\012IF[ ]	/* If */\012PUSHB[ ]	/* 1 value pushed */\0120 \012MDAP[1]	/* MoveDirectAbsPt */\012ELSE[ ]	/* Else */\012PUSHB[ ]	/* 2 values pushed */\0120 17 \012MIAP[0]	/* MoveIndirectAbsPt */\012EIF[ ]	/* EndIf */\012PUSHB[ ]	/* 1 value pushed */\0121 \012MDRP[11100]	/* MoveDirectRelPt */\012PUSHB[ ]	/* 1 value pushed */\0125 \012MDRP[10000]	/* MoveDirectRelPt */\012PUSHB[ ]	/* 1 value pushed */\0126 \012MDRP[10000]	/* MoveDirectRelPt */\012IUP[0]	/* InterpolateUntPts */\012IUP[1]	/* InterpolateUntPts */";
};
width = 1343;
}
);
note = V;
unicode = 0056;
},
{
glyphname = Vturned;
lastChange = "2022-05-11 19:24:06 +0000";
layers = (
{
layerId = "410E5E1C-5FD0-457E-A79B-7BF13808BDAC";
paths = (
{
closed = 1;
nodes = (
"14 0 LINE",
"288 0 LINE",
"677 1204 LINE",
"693 1204 LINE",
"1083 0 LINE",
"1357 0 LINE",
"874 1427 LINE",
"497 1427 LINE"
);
}
);
width = 1371;
}
);
leftMetricsKey = A;
rightMetricsKey = A;
unicode = 0245;
},
{
color = 4;
glyphname = W;
lastChange = "2022-05-11 04:45:39 +0000";
layers = (
{
anchors = (
{
name = bottom;
position = "{971, 0}";
},
{
name = top;
position = "{971, 1427}";
}
);
layerId = "410E5E1C-5FD0-457E-A79B-7BF13808BDAC";
paths = (
{
closed = 1;
nodes = (
"736 0 LINE",
"973 1225 LINE",
"976 1225 LINE",
"1229 0 LINE",
"1604 0 LINE",
"1907 1427 LINE",
"1664 1427 LINE",
"1430 223 LINE",
"1426 223 LINE",
"1176 1427 LINE",
"777 1427 LINE",
"541 223 LINE",
"537 223 LINE",
"289 1427 LINE",
"35 1427 LINE",
"357 0 LINE"
);
}
);
userData = {
assembly = "SVTCA[0]	/* SetFreedomAndProjectionVectorToAxis */\012PUSHB[ ]	/* 1 value pushed */\0120 \012RCVT[ ]	/* ReadCVT */\012IF[ ]	/* If */\012PUSHB[ ]	/* 1 value pushed */\0120 \012MDAP[1]	/* MoveDirectAbsPt */\012ELSE[ ]	/* Else */\012PUSHB[ ]	/* 2 values pushed */\0120 23 \012MIAP[0]	/* MoveIndirectAbsPt */\012EIF[ ]	/* EndIf */\012PUSHB[ ]	/* 1 value pushed */\0120 \012RCVT[ ]	/* ReadCVT */\012IF[ ]	/* If */\012PUSHB[ ]	/* 1 value pushed */\0124 \012MDAP[1]	/* MoveDirectAbsPt */\012ELSE[ ]	/* Else */\012PUSHB[ ]	/* 2 values pushed */\0124 23 \012MIAP[0]	/* MoveIndirectAbsPt */\012EIF[ ]	/* EndIf */\012PUSHB[ ]	/* 1 value pushed */\0120 \012RCVT[ ]	/* ReadCVT */\012IF[ ]	/* If */\012PUSHB[ ]	/* 1 value pushed */\0128 \012MDAP[1]	/* MoveDirectAbsPt */\012ELSE[ ]	/* Else */\012PUSHB[ ]	/* 2 values pushed */\0128 23 \012MIAP[0]	/* MoveIndirectAbsPt */\012EIF[ ]	/* EndIf */\012PUSHB[ ]	/* 1 value pushed */\0120 \012RCVT[ ]	/* ReadCVT */\012IF[ ]	/* If */\012PUSHB[ ]	/* 1 value pushed */\01210 \012MDAP[1]	/* MoveDirectAbsPt */\012ELSE[ ]	/* Else */\012PUSHB[ ]	/* 2 values pushed */\01210 17 \012MIAP[0]	/* MoveIndirectAbsPt */\012EIF[ ]	/* EndIf */\012PUSHB[ ]	/* 1 value pushed */\0120 \012RCVT[ ]	/* ReadCVT */\012IF[ ]	/* If */\012PUSHB[ ]	/* 1 value pushed */\01214 \012MDAP[1]	/* MoveDirectAbsPt */\012ELSE[ ]	/* Else */\012PUSHB[ ]	/* 2 values pushed */\01214 17 \012MIAP[0]	/* MoveIndirectAbsPt */\012EIF[ ]	/* EndIf */\012PUSHB[ ]	/* 2 values pushed */\0122 3 \012MIRP[10100]	/* MoveIndirectRelPt */\012PUSHB[ ]	/* 1 value pushed */\0126 \012MDRP[10000]	/* MoveDirectRelPt */\012PUSHB[ ]	/* 1 value pushed */\0127 \012MDRP[10000]	/* MoveDirectRelPt */\012IUP[0]	/* InterpolateUntPts */\012IUP[1]	/* InterpolateUntPts */";
};
width = 1942;
}
);
note = W;
unicode = 0057;
},
{
color = 4;
glyphname = X;
lastChange = "2022-05-11 04:45:39 +0000";
layers = (
{
anchors = (
{
name = bottom;
position = "{633, 0}";
},
{
name = top;
position = "{633, 1427}";
}
);
layerId = "410E5E1C-5FD0-457E-A79B-7BF13808BDAC";
paths = (
{
closed = 1;
nodes = (
"296 0 LINE",
"625 518 LINE",
"961 0 LINE",
"1250 0 LINE",
"773 739 LINE",
"1211 1427 LINE",
"930 1427 LINE",
"636 951 LINE",
"330 1427 LINE",
"38 1427 LINE",
"486 734 LINE",
"15 0 LINE"
);
}
);
userData = {
assembly = "SVTCA[0]	/* SetFreedomAndProjectionVectorToAxis */\012PUSHB[ ]	/* 1 value pushed */\0120 \012RCVT[ ]	/* ReadCVT */\012IF[ ]	/* If */\012PUSHB[ ]	/* 1 value pushed */\0121 \012MDAP[1]	/* MoveDirectAbsPt */\012ELSE[ ]	/* Else */\012PUSHB[ ]	/* 2 values pushed */\0121 23 \012MIAP[0]	/* MoveIndirectAbsPt */\012EIF[ ]	/* EndIf */\012PUSHB[ ]	/* 1 value pushed */\0120 \012RCVT[ ]	/* ReadCVT */\012IF[ ]	/* If */\012PUSHB[ ]	/* 1 value pushed */\0124 \012MDAP[1]	/* MoveDirectAbsPt */\012ELSE[ ]	/* Else */\012PUSHB[ ]	/* 2 values pushed */\0124 23 \012MIAP[0]	/* MoveIndirectAbsPt */\012EIF[ ]	/* EndIf */\012PUSHB[ ]	/* 1 value pushed */\0120 \012RCVT[ ]	/* ReadCVT */\012IF[ ]	/* If */\012PUSHB[ ]	/* 1 value pushed */\0127 \012MDAP[1]	/* MoveDirectAbsPt */\012ELSE[ ]	/* Else */\012PUSHB[ ]	/* 2 values pushed */\0127 17 \012MIAP[0]	/* MoveIndirectAbsPt */\012EIF[ ]	/* EndIf */\012PUSHB[ ]	/* 1 value pushed */\0120 \012RCVT[ ]	/* ReadCVT */\012IF[ ]	/* If */\012PUSHB[ ]	/* 1 value pushed */\01210 \012MDAP[1]	/* MoveDirectAbsPt */\012ELSE[ ]	/* Else */\012PUSHB[ ]	/* 2 values pushed */\01210 17 \012MIAP[0]	/* MoveIndirectAbsPt */\012EIF[ ]	/* EndIf */\012PUSHB[ ]	/* 3 values pushed */\0123 7 1 \012SRP1[ ]	/* SetRefPoint1 */\012SRP2[ ]	/* SetRefPoint2 */\012IP[ ]	/* InterpolatePts */\012PUSHB[ ]	/* 3 values pushed */\0129 7 1 \012SRP1[ ]	/* SetRefPoint1 */\012SRP2[ ]	/* SetRefPoint2 */\012IP[ ]	/* InterpolatePts */\012IUP[0]	/* InterpolateUntPts */\012IUP[1]	/* InterpolateUntPts */";
};
width = 1265;
}
);
note = X;
unicode = 0058;
},
{
color = 4;
glyphname = Y;
lastChange = "2022-05-11 04:45:39 +0000";
layers = (
{
anchors = (
{
name = bottom;
position = "{611, 0}";
},
{
name = top;
position = "{611, 1427}";
},
{
name = topleft;
position = "{20, 1427}";
}
);
layerId = "410E5E1C-5FD0-457E-A79B-7BF13808BDAC";
paths = (
{
closed = 1;
nodes = (
"729 0 LINE",
"729 551 LINE",
"1221 1427 LINE",
"940 1427 LINE",
"612 805 LINE",
"608 805 LINE",
"281 1427 LINE",
"0 1427 LINE",
"492 551 LINE",
"492 0 LINE"
);
}
);
userData = {
assembly = "PUSHB[ ]	/* 4 values pushed */\0127 13 0 4 \012CALL[ ]	/* CallFunction */\012PUSHB[ ]	/* 3 values pushed */\0124 0 7 \012SRP1[ ]	/* SetRefPoint1 */\012SRP2[ ]	/* SetRefPoint2 */\012IP[ ]	/* InterpolatePts */\012SVTCA[0]	/* SetFreedomAndProjectionVectorToAxis */\012PUSHB[ ]	/* 1 value pushed */\0120 \012RCVT[ ]	/* ReadCVT */\012IF[ ]	/* If */\012PUSHB[ ]	/* 1 value pushed */\0121 \012MDAP[1]	/* MoveDirectAbsPt */\012ELSE[ ]	/* Else */\012PUSHB[ ]	/* 2 values pushed */\0121 23 \012MIAP[0]	/* MoveIndirectAbsPt */\012EIF[ ]	/* EndIf */\012PUSHB[ ]	/* 1 value pushed */\0120 \012RCVT[ ]	/* ReadCVT */\012IF[ ]	/* If */\012PUSHB[ ]	/* 1 value pushed */\0125 \012MDAP[1]	/* MoveDirectAbsPt */\012ELSE[ ]	/* Else */\012PUSHB[ ]	/* 2 values pushed */\0125 23 \012MIAP[0]	/* MoveIndirectAbsPt */\012EIF[ ]	/* EndIf */\012PUSHB[ ]	/* 1 value pushed */\0120 \012RCVT[ ]	/* ReadCVT */\012IF[ ]	/* If */\012PUSHB[ ]	/* 1 value pushed */\0128 \012MDAP[1]	/* MoveDirectAbsPt */\012ELSE[ ]	/* Else */\012PUSHB[ ]	/* 2 values pushed */\0128 17 \012MIAP[0]	/* MoveIndirectAbsPt */\012EIF[ ]	/* EndIf */\012PUSHB[ ]	/* 3 values pushed */\0124 8 1 \012SRP1[ ]	/* SetRefPoint1 */\012SRP2[ ]	/* SetRefPoint2 */\012IP[ ]	/* InterpolatePts */\012IUP[0]	/* InterpolateUntPts */\012IUP[1]	/* InterpolateUntPts */";
};
width = 1221;
}
);
note = Y;
unicode = 0059;
},
{
color = 4;
glyphname = Z;
lastChange = "2022-05-11 04:45:39 +0000";
layers = (
{
anchors = (
{
name = bottom;
position = "{638, 0}";
},
{
name = center;
position = "{638, 714}";
},
{
name = top;
position = "{638, 1427}";
}
);
layerId = "410E5E1C-5FD0-457E-A79B-7BF13808BDAC";
paths = (
{
closed = 1;
nodes = (
"1196 0 LINE",
"1196 223 LINE",
"446 223 LINE",
"446 225 LINE",
"1188 1268 LINE",
"1188 1427 LINE",
"131 1427 LINE",
"131 1204 LINE",
"834 1204 LINE",
"834 1202 LINE",
"90 156 LINE",
"90 0 LINE"
);
}
);
userData = {
assembly = "SVTCA[0]	/* SetFreedomAndProjectionVectorToAxis */\012PUSHB[ ]	/* 1 value pushed */\0120 \012RCVT[ ]	/* ReadCVT */\012IF[ ]	/* If */\012PUSHB[ ]	/* 1 value pushed */\0124 \012MDAP[1]	/* MoveDirectAbsPt */\012ELSE[ ]	/* Else */\012PUSHB[ ]	/* 2 values pushed */\0124 23 \012MIAP[0]	/* MoveIndirectAbsPt */\012EIF[ ]	/* EndIf */\012PUSHB[ ]	/* 1 value pushed */\0120 \012RCVT[ ]	/* ReadCVT */\012IF[ ]	/* If */\012PUSHB[ ]	/* 1 value pushed */\01210 \012MDAP[1]	/* MoveDirectAbsPt */\012ELSE[ ]	/* Else */\012PUSHB[ ]	/* 2 values pushed */\01210 17 \012MIAP[0]	/* MoveIndirectAbsPt */\012EIF[ ]	/* EndIf */\012PUSHB[ ]	/* 1 value pushed */\0124 \012SRP0[ ]	/* SetRefPoint0 */\012PUSHB[ ]	/* 2 values pushed */\0122 3 \012MIRP[10100]	/* MoveIndirectRelPt */\012PUSHB[ ]	/* 1 value pushed */\01210 \012SRP0[ ]	/* SetRefPoint0 */\012PUSHB[ ]	/* 2 values pushed */\0128 3 \012MIRP[10100]	/* MoveIndirectRelPt */\012IUP[0]	/* InterpolateUntPts */\012IUP[1]	/* InterpolateUntPts */";
};
width = 1276;
}
);
note = Z;
unicode = 005A;
},
{
color = 4;
glyphname = a;
lastChange = "2022-05-11 19:56:23 +0000";
layers = (
{
anchors = (
{
name = bottom;
position = "{570, 0}";
},
{
name = ogonek;
position = "{1047, 10}";
},
{
name = top;
position = "{570, 1055}";
}
);
layerId = "410E5E1C-5FD0-457E-A79B-7BF13808BDAC";
paths = (
{
closed = 1;
nodes = (
"100 179 OFFCURVE",
"124 96 OFFCURVE",
"178 44 CURVE SMOOTH",
"232 -8 OFFCURVE",
"316 -31 OFFCURVE",
"436 -31 CURVE SMOOTH",
"535 -31 OFFCURVE",
"618 -4 OFFCURVE",
"679 23 CURVE SMOOTH",
"714 39 OFFCURVE",
"747 57 OFFCURVE",
"776 78 CURVE",
"794 0 LINE",
"995 0 LINE",
"995 639 LINE SMOOTH",
"995 798 OFFCURVE",
"983 893 OFFCURVE",
"921 969 CURVE SMOOTH",
"888 1010 OFFCURVE",
"847 1038 OFFCURVE",
"792 1055 CURVE SMOOTH",
"737 1072 OFFCURVE",
"667 1079 OFFCURVE",
"575 1079 CURVE SMOOTH",
"438 1079 OFFCURVE",
"339 1064 OFFCURVE",
"272 1049 CURVE SMOOTH",
"233 1040 OFFCURVE",
"200 1031 OFFCURVE",
"173 1020 CURVE",
"173 854 LINE",
"202 858 OFFCURVE",
"233 862 OFFCURVE",
"266 865 CURVE SMOOTH",
"322 872 OFFCURVE",
"396 877 OFFCURVE",
"472 877 CURVE SMOOTH",
"592 877 OFFCURVE",
"663 865 OFFCURVE",
"706 834 CURVE SMOOTH",
"751 798 OFFCURVE",
"759 759 OFFCURVE",
"759 670 CURVE SMOOTH",
"759 572 LINE",
"732 581 OFFCURVE",
"703 590 OFFCURVE",
"670 597 CURVE SMOOTH",
"613 610 OFFCURVE",
"534 623 OFFCURVE",
"438 623 CURVE SMOOTH",
"343 623 OFFCURVE",
"259 602 OFFCURVE",
"199 551 CURVE SMOOTH",
"138 500 OFFCURVE",
"100 419 OFFCURVE",
"100 299 CURVE"
);
},
{
closed = 1;
nodes = (
"343 417 OFFCURVE",
"402 434 OFFCURVE",
"532 434 CURVE SMOOTH",
"592 434 OFFCURVE",
"647 429 OFFCURVE",
"690 422 CURVE SMOOTH",
"715 419 OFFCURVE",
"738 415 OFFCURVE",
"759 411 CURVE",
"759 228 LINE",
"736 217 OFFCURVE",
"711 207 OFFCURVE",
"684 198 CURVE SMOOTH",
"637 183 OFFCURVE",
"575 168 OFFCURVE",
"507 168 CURVE SMOOTH",
"398 168 OFFCURVE",
"343 185 OFFCURVE",
"343 299 CURVE"
);
}
);
userData = {
assembly = "PUSHB[ ]	/* 1 value pushed */\01274 \012MDAP[1]	/* MoveDirectAbsPt */\012PUSHB[ ]	/* 1 value pushed */\01211 \012MDAP[1]	/* MoveDirectAbsPt */\012PUSHB[ ]	/* 1 value pushed */\01274 \012SRP0[ ]	/* SetRefPoint0 */\012PUSHB[ ]	/* 1 value pushed */\0120 \012MDRP[10000]	/* MoveDirectRelPt */\012PUSHB[ ]	/* 1 value pushed */\0120 \012MDAP[1]	/* MoveDirectAbsPt */\012PUSHB[ ]	/* 1 value pushed */\01211 \012SRP0[ ]	/* SetRefPoint0 */\012PUSHB[ ]	/* 2 values pushed */\01240 13 \012MIRP[10100]	/* MoveIndirectRelPt */\012PUSHB[ ]	/* 3 values pushed */\01243 11 40 \012SRP1[ ]	/* SetRefPoint1 */\012SRP2[ ]	/* SetRefPoint2 */\012IP[ ]	/* InterpolatePts */\012PUSHB[ ]	/* 1 value pushed */\0120 \012SRP0[ ]	/* SetRefPoint0 */\012PUSHB[ ]	/* 2 values pushed */\01253 12 \012MIRP[10100]	/* MoveIndirectRelPt */\012NPUSHB[ ]	/* 11 values pushed */\0126 53 22 53 38 53 54 53 70 53 5 \012DELTAP1[ ]	/* DeltaExceptionP1 */\012PUSHB[ ]	/* 1 value pushed */\01211 \012SRP0[ ]	/* SetRefPoint0 */\012PUSHB[ ]	/* 1 value pushed */\01263 \012MDRP[10000]	/* MoveDirectRelPt */\012PUSHB[ ]	/* 1 value pushed */\01240 \012SRP0[ ]	/* SetRefPoint0 */\012PUSHB[ ]	/* 1 value pushed */\01275 \012MDRP[11100]	/* MoveDirectRelPt */\012SVTCA[0]	/* SetFreedomAndProjectionVectorToAxis */\012PUSHB[ ]	/* 1 value pushed */\0120 \012RCVT[ ]	/* ReadCVT */\012IF[ ]	/* If */\012PUSHB[ ]	/* 1 value pushed */\01230 \012MDAP[1]	/* MoveDirectAbsPt */\012ELSE[ ]	/* Else */\012PUSHB[ ]	/* 2 values pushed */\01230 21 \012MIAP[0]	/* MoveIndirectAbsPt */\012EIF[ ]	/* EndIf */\012PUSHB[ ]	/* 1 value pushed */\0120 \012RCVT[ ]	/* ReadCVT */\012IF[ ]	/* If */\012PUSHB[ ]	/* 1 value pushed */\01241 \012MDAP[1]	/* MoveDirectAbsPt */\012ELSE[ ]	/* Else */\012PUSHB[ ]	/* 2 values pushed */\01241 17 \012MIAP[0]	/* MoveIndirectAbsPt */\012EIF[ ]	/* EndIf */\012PUSHB[ ]	/* 1 value pushed */\0120 \012RCVT[ ]	/* ReadCVT */\012IF[ ]	/* If */\012PUSHB[ ]	/* 1 value pushed */\01248 \012MDAP[1]	/* MoveDirectAbsPt */\012ELSE[ ]	/* Else */\012PUSHB[ ]	/* 2 values pushed */\01248 17 \012MIAP[0]	/* MoveIndirectAbsPt */\012EIF[ ]	/* EndIf */\012PUSHB[ ]	/* 4 values pushed */\0125 4 69 4 \012CALL[ ]	/* CallFunction */\012PUSHB[ ]	/* 3 values pushed */\01210 69 5 \012SRP1[ ]	/* SetRefPoint1 */\012SRP2[ ]	/* SetRefPoint2 */\012IP[ ]	/* InterpolatePts */\012PUSHB[ ]	/* 1 value pushed */\01230 \012SRP0[ ]	/* SetRefPoint0 */\012PUSHB[ ]	/* 2 values pushed */\01219 5 \012MIRP[10100]	/* MoveIndirectRelPt */\012NPUSHB[ ]	/* 11 values pushed */\0128 19 24 19 40 19 56 19 72 19 5 \012DELTAP1[ ]	/* DeltaExceptionP1 */\012PUSHB[ ]	/* 1 value pushed */\01222 \012MDRP[10000]	/* MoveDirectRelPt */\012PUSHB[ ]	/* 1 value pushed */\01222 \012MDAP[1]	/* MoveDirectAbsPt */\012PUSHB[ ]	/* 1 value pushed */\01248 \012SRP0[ ]	/* SetRefPoint0 */\012PUSHB[ ]	/* 2 values pushed */\01258 1 \012MIRP[10100]	/* MoveIndirectRelPt */\012NPUSHB[ ]	/* 11 values pushed */\0127 58 23 58 39 58 55 58 71 58 5 \012DELTAP1[ ]	/* DeltaExceptionP1 */\012PUSHB[ ]	/* 3 values pushed */\01243 48 58 \012SRP1[ ]	/* SetRefPoint1 */\012SRP2[ ]	/* SetRefPoint2 */\012IP[ ]	/* InterpolatePts */\012PUSHB[ ]	/* 1 value pushed */\01269 \012SRP0[ ]	/* SetRefPoint0 */\012PUSHB[ ]	/* 1 value pushed */\01266 \012MDRP[10000]	/* MoveDirectRelPt */\012PUSHB[ ]	/* 1 value pushed */\01266 \012MDAP[1]	/* MoveDirectAbsPt */\012IUP[0]	/* InterpolateUntPts */\012IUP[1]	/* InterpolateUntPts */";
};
width = 1150;
}
);
note = a;
unicode = 0061;
},
{
glyphname = aogonek;
lastChange = "2022-05-11 19:58:37 +0000";
layers = (
{
layerId = "410E5E1C-5FD0-457E-A79B-7BF13808BDAC";
paths = (
{
closed = 1;
nodes = (
"100 179 OFFCURVE",
"124 96 OFFCURVE",
"178 44 CURVE SMOOTH",
"232 -8 OFFCURVE",
"316 -31 OFFCURVE",
"436 -31 CURVE SMOOTH",
"535 -31 OFFCURVE",
"618 -4 OFFCURVE",
"679 23 CURVE SMOOTH",
"714 39 OFFCURVE",
"747 57 OFFCURVE",
"776 78 CURVE",
"791 11 LINE",
"701 -53 OFFCURVE",
"601 -157 OFFCURVE",
"601 -289 CURVE SMOOTH",
"601 -425 OFFCURVE",
"698 -500 OFFCURVE",
"834 -500 CURVE SMOOTH",
"881 -500 OFFCURVE",
"921 -495 OFFCURVE",
"949 -490 CURVE SMOOTH",
"966 -487 OFFCURVE",
"980 -484 OFFCURVE",
"993 -479 CURVE",
"993 -311 LINE",
"986 -312 OFFCURVE",
"979 -313 OFFCURVE",
"972 -314 CURVE SMOOTH",
"959 -316 OFFCURVE",
"942 -317 OFFCURVE",
"923 -317 CURVE SMOOTH",
"855 -317 OFFCURVE",
"823 -281 OFFCURVE",
"823 -225 CURVE SMOOTH",
"823 -157 OFFCURVE",
"870 -80 OFFCURVE",
"995 0 CURVE",
"995 639 LINE SMOOTH",
"995 798 OFFCURVE",
"983 893 OFFCURVE",
"921 969 CURVE SMOOTH",
"888 1010 OFFCURVE",
"847 1038 OFFCURVE",
"792 1055 CURVE SMOOTH",
"737 1072 OFFCURVE",
"667 1079 OFFCURVE",
"575 1079 CURVE SMOOTH",
"438 1079 OFFCURVE",
"339 1064 OFFCURVE",
"272 1049 CURVE SMOOTH",
"233 1040 OFFCURVE",
"200 1031 OFFCURVE",
"173 1020 CURVE",
"173 854 LINE",
"202 858 OFFCURVE",
"233 862 OFFCURVE",
"266 865 CURVE SMOOTH",
"322 872 OFFCURVE",
"396 877 OFFCURVE",
"472 877 CURVE SMOOTH",
"592 877 OFFCURVE",
"663 865 OFFCURVE",
"706 834 CURVE SMOOTH",
"751 798 OFFCURVE",
"759 759 OFFCURVE",
"759 670 CURVE SMOOTH",
"759 572 LINE",
"732 581 OFFCURVE",
"703 590 OFFCURVE",
"670 597 CURVE SMOOTH",
"613 610 OFFCURVE",
"534 623 OFFCURVE",
"438 623 CURVE SMOOTH",
"343 623 OFFCURVE",
"259 602 OFFCURVE",
"199 551 CURVE SMOOTH",
"138 500 OFFCURVE",
"100 419 OFFCURVE",
"100 299 CURVE"
);
},
{
closed = 1;
nodes = (
"343 417 OFFCURVE",
"402 434 OFFCURVE",
"532 434 CURVE SMOOTH",
"592 434 OFFCURVE",
"647 429 OFFCURVE",
"690 422 CURVE SMOOTH",
"715 419 OFFCURVE",
"738 415 OFFCURVE",
"759 411 CURVE",
"759 228 LINE",
"736 217 OFFCURVE",
"711 207 OFFCURVE",
"684 198 CURVE SMOOTH",
"637 183 OFFCURVE",
"575 168 OFFCURVE",
"507 168 CURVE SMOOTH",
"398 168 OFFCURVE",
"343 185 OFFCURVE",
"343 299 CURVE"
);
}
);
userData = {
assembly = "PUSHB[ ]	/* 4 values pushed */\01244 10 62 4 \012CALL[ ]	/* CallFunction */\012PUSHB[ ]	/* 4 values pushed */\01278 12 0 4 \012CALL[ ]	/* CallFunction */\012NPUSHB[ ]	/* 11 values pushed */\0129 62 25 62 41 62 57 62 73 62 5 \012DELTAP1[ ]	/* DeltaExceptionP1 */\012PUSHB[ ]	/* 3 values pushed */\01210 62 44 \012SRP1[ ]	/* SetRefPoint1 */\012SRP2[ ]	/* SetRefPoint2 */\012IP[ ]	/* InterpolatePts */\012PUSHB[ ]	/* 3 values pushed */\01211 62 44 \012SRP1[ ]	/* SetRefPoint1 */\012SRP2[ ]	/* SetRefPoint2 */\012IP[ ]	/* InterpolatePts */\012PUSHB[ ]	/* 1 value pushed */\01211 \012MDAP[1]	/* MoveDirectAbsPt */\012PUSHB[ ]	/* 2 values pushed */\01240 13 \012MIRP[10100]	/* MoveIndirectRelPt */\012PUSHB[ ]	/* 1 value pushed */\01251 \012MDRP[10000]	/* MoveDirectRelPt */\012PUSHB[ ]	/* 1 value pushed */\01251 \012MDAP[1]	/* MoveDirectAbsPt */\012PUSHB[ ]	/* 3 values pushed */\01268 62 44 \012SRP1[ ]	/* SetRefPoint1 */\012SRP2[ ]	/* SetRefPoint2 */\012IP[ ]	/* InterpolatePts */\012NPUSHB[ ]	/* 11 values pushed */\0126 78 22 78 38 78 54 78 70 78 5 \012DELTAP1[ ]	/* DeltaExceptionP1 */\012PUSHB[ ]	/* 1 value pushed */\01211 \012SRP0[ ]	/* SetRefPoint0 */\012PUSHB[ ]	/* 1 value pushed */\01288 \012MDRP[10000]	/* MoveDirectRelPt */\012PUSHB[ ]	/* 1 value pushed */\01240 \012SRP0[ ]	/* SetRefPoint0 */\012PUSHB[ ]	/* 1 value pushed */\012100 \012MDRP[11100]	/* MoveDirectRelPt */\012SVTCA[0]	/* SetFreedomAndProjectionVectorToAxis */\012PUSHB[ ]	/* 1 value pushed */\0120 \012RCVT[ ]	/* ReadCVT */\012IF[ ]	/* If */\012PUSHB[ ]	/* 1 value pushed */\01230 \012MDAP[1]	/* MoveDirectAbsPt */\012ELSE[ ]	/* Else */\012PUSHB[ ]	/* 2 values pushed */\01230 21 \012MIAP[0]	/* MoveIndirectAbsPt */\012EIF[ ]	/* EndIf */\012PUSHB[ ]	/* 1 value pushed */\0120 \012RCVT[ ]	/* ReadCVT */\012IF[ ]	/* If */\012PUSHB[ ]	/* 1 value pushed */\01241 \012MDAP[1]	/* MoveDirectAbsPt */\012ELSE[ ]	/* Else */\012PUSHB[ ]	/* 2 values pushed */\01241 17 \012MIAP[0]	/* MoveIndirectAbsPt */\012EIF[ ]	/* EndIf */\012PUSHB[ ]	/* 1 value pushed */\0120 \012RCVT[ ]	/* ReadCVT */\012IF[ ]	/* If */\012PUSHB[ ]	/* 1 value pushed */\01267 \012MDAP[1]	/* MoveDirectAbsPt */\012ELSE[ ]	/* Else */\012PUSHB[ ]	/* 2 values pushed */\01267 17 \012MIAP[0]	/* MoveIndirectAbsPt */\012EIF[ ]	/* EndIf */\012PUSHB[ ]	/* 1 value pushed */\0120 \012RCVT[ ]	/* ReadCVT */\012IF[ ]	/* If */\012PUSHB[ ]	/* 1 value pushed */\01254 \012MDAP[1]	/* MoveDirectAbsPt */\012ELSE[ ]	/* Else */\012PUSHB[ ]	/* 2 values pushed */\01254 19 \012MIAP[0]	/* MoveIndirectAbsPt */\012EIF[ ]	/* EndIf */\012PUSHB[ ]	/* 1 value pushed */\0120 \012RCVT[ ]	/* ReadCVT */\012IF[ ]	/* If */\012PUSHB[ ]	/* 1 value pushed */\01257 \012MDAP[1]	/* MoveDirectAbsPt */\012ELSE[ ]	/* Else */\012PUSHB[ ]	/* 2 values pushed */\01257 19 \012MIAP[0]	/* MoveIndirectAbsPt */\012EIF[ ]	/* EndIf */\012PUSHB[ ]	/* 1 value pushed */\0120 \012RCVT[ ]	/* ReadCVT */\012IF[ ]	/* If */\012PUSHB[ ]	/* 1 value pushed */\01273 \012MDAP[1]	/* MoveDirectAbsPt */\012ELSE[ ]	/* Else */\012PUSHB[ ]	/* 2 values pushed */\01273 17 \012MIAP[0]	/* MoveIndirectAbsPt */\012EIF[ ]	/* EndIf */\012PUSHB[ ]	/* 4 values pushed */\0125 4 94 4 \012CALL[ ]	/* CallFunction */\012PUSHB[ ]	/* 3 values pushed */\01210 94 5 \012SRP1[ ]	/* SetRefPoint1 */\012SRP2[ ]	/* SetRefPoint2 */\012IP[ ]	/* InterpolatePts */\012PUSHB[ ]	/* 1 value pushed */\01230 \012SRP0[ ]	/* SetRefPoint0 */\012PUSHB[ ]	/* 2 values pushed */\01219 5 \012MIRP[10100]	/* MoveIndirectRelPt */\012NPUSHB[ ]	/* 11 values pushed */\0128 19 24 19 40 19 56 19 72 19 5 \012DELTAP1[ ]	/* DeltaExceptionP1 */\012PUSHB[ ]	/* 1 value pushed */\01222 \012MDRP[10000]	/* MoveDirectRelPt */\012PUSHB[ ]	/* 1 value pushed */\01222 \012MDAP[1]	/* MoveDirectAbsPt */\012PUSHB[ ]	/* 1 value pushed */\01254 \012SRP0[ ]	/* SetRefPoint0 */\012PUSHB[ ]	/* 2 values pushed */\01247 4 \012MIRP[10100]	/* MoveIndirectRelPt */\012NPUSHB[ ]	/* 11 values pushed */\0127 47 23 47 39 47 55 47 71 47 5 \012DELTAP1[ ]	/* DeltaExceptionP1 */\012PUSHB[ ]	/* 1 value pushed */\01273 \012SRP0[ ]	/* SetRefPoint0 */\012PUSHB[ ]	/* 2 values pushed */\01283 1 \012MIRP[10100]	/* MoveIndirectRelPt */\012NPUSHB[ ]	/* 11 values pushed */\0127 83 23 83 39 83 55 83 71 83 5 \012DELTAP1[ ]	/* DeltaExceptionP1 */\012PUSHB[ ]	/* 3 values pushed */\01268 73 83 \012SRP1[ ]	/* SetRefPoint1 */\012SRP2[ ]	/* SetRefPoint2 */\012IP[ ]	/* InterpolatePts */\012PUSHB[ ]	/* 1 value pushed */\01294 \012SRP0[ ]	/* SetRefPoint0 */\012PUSHB[ ]	/* 1 value pushed */\01291 \012MDRP[10000]	/* MoveDirectRelPt */\012PUSHB[ ]	/* 1 value pushed */\01291 \012MDAP[1]	/* MoveDirectAbsPt */\012IUP[0]	/* InterpolateUntPts */\012IUP[1]	/* InterpolateUntPts */";
};
width = 1150;
}
);
leftMetricsKey = a;
note = aogonek;
rightMetricsKey = a;
unicode = 0105;
},
{
color = 4;
glyphname = ae;
lastChange = "2022-05-11 19:58:37 +0000";
layers = (
{
anchors = (
{
name = bottom;
position = "{864, 0}";
},
{
name = top;
position = "{903, 1055}";
}
);
layerId = "410E5E1C-5FD0-457E-A79B-7BF13808BDAC";
paths = (
{
closed = 1;
nodes = (
"100 200 OFFCURVE",
"123 116 OFFCURVE",
"183 59 CURVE SMOOTH",
"243 2 OFFCURVE",
"339 -31 OFFCURVE",
"483 -31 CURVE SMOOTH",
"644 -31 OFFCURVE",
"767 32 OFFCURVE",
"850 125 CURVE",
"903 62 OFFCURVE",
"956 24 OFFCURVE",
"1020 1 CURVE SMOOTH",
"1084 -23 OFFCURVE",
"1160 -31 OFFCURVE",
"1259 -31 CURVE SMOOTH",
"1362 -31 OFFCURVE",
"1455 -14 OFFCURVE",
"1523 3 CURVE SMOOTH",
"1563 13 OFFCURVE",
"1600 24 OFFCURVE",
"1634 37 CURVE",
"1634 207 LINE",
"1604 202 OFFCURVE",
"1571 197 OFFCURVE",
"1536 194 CURVE SMOOTH",
"1475 187 OFFCURVE",
"1392 182 OFFCURVE",
"1300 182 CURVE SMOOTH",
"1180 182 OFFCURVE",
"1109 201 OFFCURVE",
"1066 244 CURVE SMOOTH",
"1023 287 OFFCURVE",
"1010 352 OFFCURVE",
"1007 444 CURVE",
"1668 440 LINE",
"1676 512 OFFCURVE",
"1681 577 OFFCURVE",
"1681 640 CURVE SMOOTH",
"1681 773 OFFCURVE",
"1659 885 OFFCURVE",
"1596 963 CURVE SMOOTH",
"1533 1041 OFFCURVE",
"1430 1085 OFFCURVE",
"1269 1085 CURVE SMOOTH",
"1082 1085 OFFCURVE",
"963 1030 OFFCURVE",
"904 938 CURVE",
"848 1034 OFFCURVE",
"727 1085 OFFCURVE",
"552 1085 CURVE SMOOTH",
"456 1085 OFFCURVE",
"365 1068 OFFCURVE",
"297 1052 CURVE SMOOTH",
"257 1043 OFFCURVE",
"219 1032 OFFCURVE",
"184 1020 CURVE",
"184 854 LINE",
"210 858 OFFCURVE",
"239 862 OFFCURVE",
"270 865 CURVE SMOOTH",
"323 872 OFFCURVE",
"393 877 OFFCURVE",
"472 877 CURVE SMOOTH",
"592 877 OFFCURVE",
"673 865 OFFCURVE",
"716 834 CURVE SMOOTH",
"761 798 OFFCURVE",
"769 760 OFFCURVE",
"769 670 CURVE SMOOTH",
"769 635 LINE",
"497 635 LINE SMOOTH",
"233 635 OFFCURVE",
"100 524 OFFCURVE",
"100 301 CURVE"
);
},
{
closed = 1;
nodes = (
"1007 707 OFFCURVE",
"1015 769 OFFCURVE",
"1048 814 CURVE SMOOTH",
"1081 858 OFFCURVE",
"1141 885 OFFCURVE",
"1246 885 CURVE SMOOTH",
"1424 885 OFFCURVE",
"1462 822 OFFCURVE",
"1462 667 CURVE SMOOTH",
"1462 635 LINE",
"1007 635 LINE"
);
},
{
closed = 1;
nodes = (
"333 410 OFFCURVE",
"400 444 OFFCURVE",
"540 444 CURVE SMOOTH",
"767 444 LINE",
"769 393 LINE SMOOTH",
"771 346 OFFCURVE",
"777 306 OFFCURVE",
"786 267 CURVE",
"721 211 OFFCURVE",
"623 168 OFFCURVE",
"503 168 CURVE SMOOTH",
"382 168 OFFCURVE",
"333 189 OFFCURVE",
"333 311 CURVE"
);
}
);
userData = {
assembly = "PUSHB[ ]	/* 4 values pushed */\01280 13 0 4 \012CALL[ ]	/* CallFunction */\012PUSHB[ ]	/* 4 values pushed */\01279 13 4 4 \012CALL[ ]	/* CallFunction */\012PUSHB[ ]	/* 3 values pushed */\01235 38 3 \012CALL[ ]	/* CallFunction */\012PUSHB[ ]	/* 3 values pushed */\01227 4 79 \012SRP1[ ]	/* SetRefPoint1 */\012SRP2[ ]	/* SetRefPoint2 */\012IP[ ]	/* InterpolatePts */\012PUSHB[ ]	/* 1 value pushed */\01279 \012SRP0[ ]	/* SetRefPoint0 */\012PUSHB[ ]	/* 1 value pushed */\01239 \012MDRP[10000]	/* MoveDirectRelPt */\012NPUSHB[ ]	/* 11 values pushed */\0126 80 22 80 38 80 54 80 70 80 5 \012DELTAP1[ ]	/* DeltaExceptionP1 */\012PUSHB[ ]	/* 1 value pushed */\0124 \012SRP0[ ]	/* SetRefPoint0 */\012PUSHB[ ]	/* 1 value pushed */\01291 \012MDRP[10000]	/* MoveDirectRelPt */\012PUSHB[ ]	/* 1 value pushed */\01235 \012SRP0[ ]	/* SetRefPoint0 */\012PUSHB[ ]	/* 1 value pushed */\01299 \012MDRP[11100]	/* MoveDirectRelPt */\012SVTCA[0]	/* SetFreedomAndProjectionVectorToAxis */\012PUSHB[ ]	/* 1 value pushed */\0120 \012RCVT[ ]	/* ReadCVT */\012IF[ ]	/* If */\012PUSHB[ ]	/* 1 value pushed */\01230 \012MDAP[1]	/* MoveDirectAbsPt */\012ELSE[ ]	/* Else */\012PUSHB[ ]	/* 2 values pushed */\01230 21 \012MIAP[0]	/* MoveIndirectAbsPt */\012EIF[ ]	/* EndIf */\012PUSHB[ ]	/* 1 value pushed */\0120 \012RCVT[ ]	/* ReadCVT */\012IF[ ]	/* If */\012PUSHB[ ]	/* 1 value pushed */\01224 \012MDAP[1]	/* MoveDirectAbsPt */\012ELSE[ ]	/* Else */\012PUSHB[ ]	/* 2 values pushed */\01224 21 \012MIAP[0]	/* MoveIndirectAbsPt */\012EIF[ ]	/* EndIf */\012PUSHB[ ]	/* 1 value pushed */\0120 \012RCVT[ ]	/* ReadCVT */\012IF[ ]	/* If */\012PUSHB[ ]	/* 1 value pushed */\01255 \012MDAP[1]	/* MoveDirectAbsPt */\012ELSE[ ]	/* Else */\012PUSHB[ ]	/* 2 values pushed */\01255 17 \012MIAP[0]	/* MoveIndirectAbsPt */\012EIF[ ]	/* EndIf */\012PUSHB[ ]	/* 1 value pushed */\0120 \012RCVT[ ]	/* ReadCVT */\012IF[ ]	/* If */\012PUSHB[ ]	/* 1 value pushed */\01263 \012MDAP[1]	/* MoveDirectAbsPt */\012ELSE[ ]	/* Else */\012PUSHB[ ]	/* 2 values pushed */\01263 17 \012MIAP[0]	/* MoveIndirectAbsPt */\012EIF[ ]	/* EndIf */\012PUSHB[ ]	/* 4 values pushed */\01268 8 38 4 \012CALL[ ]	/* CallFunction */\012PUSHB[ ]	/* 1 value pushed */\01268 \012SRP0[ ]	/* SetRefPoint0 */\012PUSHB[ ]	/* 1 value pushed */\0123 \012MDRP[10000]	/* MoveDirectRelPt */\012PUSHB[ ]	/* 1 value pushed */\01224 \012SRP0[ ]	/* SetRefPoint0 */\012PUSHB[ ]	/* 2 values pushed */\01213 1 \012MIRP[10100]	/* MoveIndirectRelPt */\012NPUSHB[ ]	/* 11 values pushed */\0128 13 24 13 40 13 56 13 72 13 5 \012DELTAP1[ ]	/* DeltaExceptionP1 */\012PUSHB[ ]	/* 1 value pushed */\01224 \012SRP0[ ]	/* SetRefPoint0 */\012PUSHB[ ]	/* 2 values pushed */\01216 5 \012MIRP[10100]	/* MoveIndirectRelPt */\012NPUSHB[ ]	/* 11 values pushed */\0128 16 24 16 40 16 56 16 72 16 5 \012DELTAP1[ ]	/* DeltaExceptionP1 */\012PUSHB[ ]	/* 3 values pushed */\01227 24 13 \012SRP1[ ]	/* SetRefPoint1 */\012SRP2[ ]	/* SetRefPoint2 */\012IP[ ]	/* InterpolatePts */\012PUSHB[ ]	/* 1 value pushed */\01255 \012SRP0[ ]	/* SetRefPoint0 */\012PUSHB[ ]	/* 2 values pushed */\01244 1 \012MIRP[10100]	/* MoveIndirectRelPt */\012NPUSHB[ ]	/* 11 values pushed */\0127 44 23 44 39 44 55 44 71 44 5 \012DELTAP1[ ]	/* DeltaExceptionP1 */\012PUSHB[ ]	/* 1 value pushed */\01255 \012SRP0[ ]	/* SetRefPoint0 */\012PUSHB[ ]	/* 2 values pushed */\01247 3 \012MIRP[10100]	/* MoveIndirectRelPt */\012NPUSHB[ ]	/* 11 values pushed */\0127 47 23 47 39 47 55 47 71 47 5 \012DELTAP1[ ]	/* DeltaExceptionP1 */\012PUSHB[ ]	/* 1 value pushed */\01213 \012SRP0[ ]	/* SetRefPoint0 */\012PUSHB[ ]	/* 1 value pushed */\01274 \012MDRP[10000]	/* MoveDirectRelPt */\012PUSHB[ ]	/* 1 value pushed */\01244 \012SRP0[ ]	/* SetRefPoint0 */\012PUSHB[ ]	/* 1 value pushed */\01285 \012MDRP[10000]	/* MoveDirectRelPt */\012PUSHB[ ]	/* 1 value pushed */\01238 \012SRP0[ ]	/* SetRefPoint0 */\012PUSHB[ ]	/* 1 value pushed */\01292 \012MDRP[10000]	/* MoveDirectRelPt */\012PUSHB[ ]	/* 1 value pushed */\01292 \012MDAP[1]	/* MoveDirectAbsPt */\012IUP[0]	/* InterpolateUntPts */\012IUP[1]	/* InterpolateUntPts */";
};
width = 1769;
}
);
leftMetricsKey = a;
note = ae;
rightMetricsKey = e;
unicode = 00E6;
},
{
color = 4;
glyphname = b;
lastChange = "2022-05-11 19:55:44 +0000";
layers = (
{
anchors = (
{
name = bottom;
position = "{610, 0}";
},
{
name = top;
position = "{741, 1427}";
}
);
layerId = "410E5E1C-5FD0-457E-A79B-7BF13808BDAC";
paths = (
{
closed = 1;
nodes = (
"367 0 LINE",
"381 84 LINE",
"412 63 OFFCURVE",
"447 43 OFFCURVE",
"485 26 CURVE SMOOTH",
"550 -3 OFFCURVE",
"640 -31 OFFCURVE",
"741 -31 CURVE SMOOTH",
"858 -31 OFFCURVE",
"952 6 OFFCURVE",
"1015 95 CURVE SMOOTH",
"1078 184 OFFCURVE",
"1112 324 OFFCURVE",
"1112 532 CURVE SMOOTH",
"1112 705 OFFCURVE",
"1093 843 OFFCURVE",
"1038 939 CURVE SMOOTH",
"983 1034 OFFCURVE",
"893 1085 OFFCURVE",
"752 1085 CURVE SMOOTH",
"652 1085 OFFCURVE",
"565 1066 OFFCURVE",
"501 1047 CURVE SMOOTH",
"464 1036 OFFCURVE",
"430 1023 OFFCURVE",
"399 1010 CURVE",
"399 1554 LINE",
"162 1554 LINE",
"162 0 LINE"
);
},
{
closed = 1;
nodes = (
"424 843 OFFCURVE",
"449 849 OFFCURVE",
"476 855 CURVE SMOOTH",
"523 864 OFFCURVE",
"582 874 OFFCURVE",
"643 874 CURVE SMOOTH",
"740 874 OFFCURVE",
"796 856 OFFCURVE",
"826 803 CURVE SMOOTH",
"856 750 OFFCURVE",
"862 661 OFFCURVE",
"862 520 CURVE SMOOTH",
"862 393 OFFCURVE",
"852 309 OFFCURVE",
"824 257 CURVE SMOOTH",
"795 204 OFFCURVE",
"746 182 OFFCURVE",
"666 182 CURVE SMOOTH",
"585 182 OFFCURVE",
"519 195 OFFCURVE",
"472 210 CURVE SMOOTH",
"445 218 OFFCURVE",
"420 227 OFFCURVE",
"399 238 CURVE",
"399 836 LINE"
);
}
);
userData = {
assembly = "PUSHB[ ]	/* 1 value pushed */\01246 \012MDAP[1]	/* MoveDirectAbsPt */\012PUSHB[ ]	/* 1 value pushed */\01235 \012MDAP[1]	/* MoveDirectAbsPt */\012PUSHB[ ]	/* 1 value pushed */\01246 \012SRP0[ ]	/* SetRefPoint0 */\012PUSHB[ ]	/* 1 value pushed */\0120 \012MDRP[10000]	/* MoveDirectRelPt */\012PUSHB[ ]	/* 1 value pushed */\0120 \012MDAP[1]	/* MoveDirectAbsPt */\012PUSHB[ ]	/* 2 values pushed */\0121 13 \012MIRP[10100]	/* MoveIndirectRelPt */\012NPUSHB[ ]	/* 11 values pushed */\0129 35 25 35 41 35 57 35 73 35 5 \012DELTAP1[ ]	/* DeltaExceptionP1 */\012PUSHB[ ]	/* 1 value pushed */\01235 \012SRP0[ ]	/* SetRefPoint0 */\012PUSHB[ ]	/* 2 values pushed */\01212 11 \012MIRP[10100]	/* MoveIndirectRelPt */\012PUSHB[ ]	/* 3 values pushed */\01222 0 1 \012SRP1[ ]	/* SetRefPoint1 */\012SRP2[ ]	/* SetRefPoint2 */\012IP[ ]	/* InterpolatePts */\012PUSHB[ ]	/* 1 value pushed */\0121 \012SRP0[ ]	/* SetRefPoint0 */\012PUSHB[ ]	/* 1 value pushed */\01225 \012MDRP[10000]	/* MoveDirectRelPt */\012PUSHB[ ]	/* 1 value pushed */\01212 \012SRP0[ ]	/* SetRefPoint0 */\012PUSHB[ ]	/* 1 value pushed */\01247 \012MDRP[11100]	/* MoveDirectRelPt */\012SVTCA[0]	/* SetFreedomAndProjectionVectorToAxis */\012PUSHB[ ]	/* 1 value pushed */\0120 \012RCVT[ ]	/* ReadCVT */\012IF[ ]	/* If */\012PUSHB[ ]	/* 1 value pushed */\0127 \012MDAP[1]	/* MoveDirectAbsPt */\012ELSE[ ]	/* Else */\012PUSHB[ ]	/* 2 values pushed */\0127 21 \012MIAP[0]	/* MoveIndirectAbsPt */\012EIF[ ]	/* EndIf */\012PUSHB[ ]	/* 1 value pushed */\0120 \012RCVT[ ]	/* ReadCVT */\012IF[ ]	/* If */\012PUSHB[ ]	/* 1 value pushed */\01223 \012MDAP[1]	/* MoveDirectAbsPt */\012ELSE[ ]	/* Else */\012PUSHB[ ]	/* 2 values pushed */\01223 17 \012MIAP[0]	/* MoveIndirectAbsPt */\012EIF[ ]	/* EndIf */\012PUSHB[ ]	/* 1 value pushed */\0120 \012RCVT[ ]	/* ReadCVT */\012IF[ ]	/* If */\012PUSHB[ ]	/* 1 value pushed */\01217 \012MDAP[1]	/* MoveDirectAbsPt */\012ELSE[ ]	/* Else */\012PUSHB[ ]	/* 2 values pushed */\01217 17 \012MIAP[0]	/* MoveIndirectAbsPt */\012EIF[ ]	/* EndIf */\012PUSHB[ ]	/* 1 value pushed */\0127 \012SRP0[ ]	/* SetRefPoint0 */\012PUSHB[ ]	/* 2 values pushed */\01240 5 \012MIRP[10100]	/* MoveIndirectRelPt */\012NPUSHB[ ]	/* 11 values pushed */\0128 40 24 40 40 40 56 40 72 40 5 \012DELTAP1[ ]	/* DeltaExceptionP1 */\012PUSHB[ ]	/* 3 values pushed */\0122 7 40 \012SRP1[ ]	/* SetRefPoint1 */\012SRP2[ ]	/* SetRefPoint2 */\012IP[ ]	/* InterpolatePts */\012PUSHB[ ]	/* 1 value pushed */\01217 \012SRP0[ ]	/* SetRefPoint0 */\012PUSHB[ ]	/* 2 values pushed */\01230 3 \012MIRP[10100]	/* MoveIndirectRelPt */\012NPUSHB[ ]	/* 11 values pushed */\0127 30 23 30 39 30 55 30 71 30 5 \012DELTAP1[ ]	/* DeltaExceptionP1 */\012PUSHB[ ]	/* 3 values pushed */\01222 17 30 \012SRP1[ ]	/* SetRefPoint1 */\012SRP2[ ]	/* SetRefPoint2 */\012IP[ ]	/* InterpolatePts */\012IUP[0]	/* InterpolateUntPts */\012IUP[1]	/* InterpolateUntPts */";
};
width = 1200;
}
);
leftMetricsKey = h;
note = b;
rightMetricsKey = "=|d";
unicode = 0062;
},
{
color = 4;
glyphname = c;
lastChange = "2022-05-11 19:57:16 +0000";
layers = (
{
anchors = (
{
name = bottom;
position = "{479, 0}";
},
{
name = top;
position = "{479, 1055}";
}
);
layerId = "410E5E1C-5FD0-457E-A79B-7BF13808BDAC";
paths = (
{
closed = 1;
nodes = (
"90 313 OFFCURVE",
"143 175 OFFCURVE",
"228 90 CURVE SMOOTH",
"312 5 OFFCURVE",
"430 -27 OFFCURVE",
"559 -27 CURVE SMOOTH",
"664 -27 OFFCURVE",
"743 -11 OFFCURVE",
"795 5 CURVE SMOOTH",
"826 14 OFFCURVE",
"852 25 OFFCURVE",
"873 37 CURVE",
"873 203 LINE",
"854 199 OFFCURVE",
"832 196 OFFCURVE",
"808 193 CURVE SMOOTH",
"767 188 OFFCURVE",
"710 184 OFFCURVE",
"645 184 CURVE SMOOTH",
"541 184 OFFCURVE",
"466 197 OFFCURVE",
"415 247 CURVE SMOOTH",
"364 297 OFFCURVE",
"340 383 OFFCURVE",
"340 530 CURVE SMOOTH",
"340 674 OFFCURVE",
"361 759 OFFCURVE",
"406 808 CURVE SMOOTH",
"451 856 OFFCURVE",
"523 870 OFFCURVE",
"623 870 CURVE SMOOTH",
"686 870 OFFCURVE",
"745 866 OFFCURVE",
"790 863 CURVE SMOOTH",
"817 860 OFFCURVE",
"841 858 OFFCURVE",
"864 856 CURVE",
"864 1020 LINE",
"841 1031 OFFCURVE",
"813 1040 OFFCURVE",
"781 1049 CURVE SMOOTH",
"726 1064 OFFCURVE",
"648 1079 OFFCURVE",
"551 1079 CURVE SMOOTH",
"424 1079 OFFCURVE",
"309 1041 OFFCURVE",
"226 954 CURVE SMOOTH",
"142 866 OFFCURVE",
"90 728 OFFCURVE",
"90 528 CURVE"
);
}
);
userData = {
assembly = "PUSHB[ ]	/* 4 values pushed */\01221 11 0 4 \012CALL[ ]	/* CallFunction */\012NPUSHB[ ]	/* 11 values pushed */\0126 21 22 21 38 21 54 21 70 21 5 \012DELTAP1[ ]	/* DeltaExceptionP1 */\012SVTCA[0]	/* SetFreedomAndProjectionVectorToAxis */\012PUSHB[ ]	/* 1 value pushed */\0120 \012RCVT[ ]	/* ReadCVT */\012IF[ ]	/* If */\012PUSHB[ ]	/* 1 value pushed */\0125 \012MDAP[1]	/* MoveDirectAbsPt */\012ELSE[ ]	/* Else */\012PUSHB[ ]	/* 2 values pushed */\0125 21 \012MIAP[0]	/* MoveIndirectAbsPt */\012EIF[ ]	/* EndIf */\012PUSHB[ ]	/* 1 value pushed */\0120 \012RCVT[ ]	/* ReadCVT */\012IF[ ]	/* If */\012PUSHB[ ]	/* 1 value pushed */\01237 \012MDAP[1]	/* MoveDirectAbsPt */\012ELSE[ ]	/* Else */\012PUSHB[ ]	/* 2 values pushed */\01237 17 \012MIAP[0]	/* MoveIndirectAbsPt */\012EIF[ ]	/* EndIf */\012PUSHB[ ]	/* 1 value pushed */\0125 \012SRP0[ ]	/* SetRefPoint0 */\012PUSHB[ ]	/* 2 values pushed */\01211 5 \012MIRP[10100]	/* MoveIndirectRelPt */\012PUSHB[ ]	/* 1 value pushed */\01213 \012MDRP[10000]	/* MoveDirectRelPt */\012PUSHB[ ]	/* 1 value pushed */\01213 \012MDAP[1]	/* MoveDirectAbsPt */\012PUSHB[ ]	/* 1 value pushed */\01216 \012MDRP[10000]	/* MoveDirectRelPt */\012PUSHB[ ]	/* 1 value pushed */\01237 \012SRP0[ ]	/* SetRefPoint0 */\012PUSHB[ ]	/* 2 values pushed */\01226 5 \012MIRP[10100]	/* MoveIndirectRelPt */\012NPUSHB[ ]	/* 11 values pushed */\0127 26 23 26 39 26 55 26 71 26 5 \012DELTAP1[ ]	/* DeltaExceptionP1 */\012PUSHB[ ]	/* 1 value pushed */\01229 \012MDRP[10000]	/* MoveDirectRelPt */\012PUSHB[ ]	/* 1 value pushed */\01229 \012MDAP[1]	/* MoveDirectAbsPt */\012IUP[0]	/* InterpolateUntPts */\012IUP[1]	/* InterpolateUntPts */";
};
width = 948;
}
);
leftMetricsKey = o;
note = c;
unicode = 0063;
},
{
color = 4;
glyphname = d;
lastChange = "2022-05-11 19:55:44 +0000";
layers = (
{
anchors = (
{
name = bottom;
position = "{593, 0}";
},
{
name = center;
position = "{593, 528}";
},
{
name = top;
position = "{450, 1235}";
},
{
name = topright;
position = "{1142, 1554}";
}
);
layerId = "410E5E1C-5FD0-457E-A79B-7BF13808BDAC";
paths = (
{
closed = 1;
nodes = (
"558 -31 OFFCURVE",
"650 -3 OFFCURVE",
"715 26 CURVE SMOOTH",
"753 43 OFFCURVE",
"787 63 OFFCURVE",
"817 84 CURVE",
"831 0 LINE",
"1036 0 LINE",
"1036 1554 LINE",
"798 1554 LINE",
"798 1010 LINE",
"770 1023 OFFCURVE",
"738 1036 OFFCURVE",
"701 1047 CURVE SMOOTH",
"638 1066 OFFCURVE",
"552 1085 OFFCURVE",
"448 1085 CURVE SMOOTH",
"335 1085 OFFCURVE",
"244 1047 OFFCURVE",
"182 957 CURVE SMOOTH",
"120 867 OFFCURVE",
"85 726 OFFCURVE",
"88 523 CURVE SMOOTH",
"89 319 OFFCURVE",
"121 180 OFFCURVE",
"181 93 CURVE SMOOTH",
"241 5 OFFCURVE",
"331 -31 OFFCURVE",
"450 -31 CURVE"
);
},
{
closed = 1;
nodes = (
"450 182 OFFCURVE",
"401 204 OFFCURVE",
"373 256 CURVE SMOOTH",
"345 308 OFFCURVE",
"338 389 OFFCURVE",
"338 508 CURVE SMOOTH",
"338 645 OFFCURVE",
"346 737 OFFCURVE",
"373 794 CURVE SMOOTH",
"400 851 OFFCURVE",
"445 874 OFFCURVE",
"518 874 CURVE SMOOTH",
"589 874 OFFCURVE",
"659 864 OFFCURVE",
"711 855 CURVE SMOOTH",
"742 849 OFFCURVE",
"771 843 OFFCURVE",
"798 836 CURVE",
"798 233 LINE",
"773 223 OFFCURVE",
"747 214 OFFCURVE",
"718 207 CURVE SMOOTH",
"669 194 OFFCURVE",
"603 182 OFFCURVE",
"534 182 CURVE"
);
}
);
userData = {
assembly = "PUSHB[ ]	/* 1 value pushed */\01246 \012MDAP[1]	/* MoveDirectAbsPt */\012PUSHB[ ]	/* 1 value pushed */\01216 \012MDAP[1]	/* MoveDirectAbsPt */\012PUSHB[ ]	/* 1 value pushed */\01246 \012SRP0[ ]	/* SetRefPoint0 */\012PUSHB[ ]	/* 1 value pushed */\0125 \012MDRP[10000]	/* MoveDirectRelPt */\012PUSHB[ ]	/* 1 value pushed */\0125 \012MDAP[1]	/* MoveDirectAbsPt */\012PUSHB[ ]	/* 1 value pushed */\01216 \012SRP0[ ]	/* SetRefPoint0 */\012PUSHB[ ]	/* 2 values pushed */\01217 13 \012MIRP[10100]	/* MoveIndirectRelPt */\012PUSHB[ ]	/* 3 values pushed */\01220 16 17 \012SRP1[ ]	/* SetRefPoint1 */\012SRP2[ ]	/* SetRefPoint2 */\012IP[ ]	/* InterpolatePts */\012PUSHB[ ]	/* 1 value pushed */\01216 \012SRP0[ ]	/* SetRefPoint0 */\012PUSHB[ ]	/* 1 value pushed */\01230 \012MDRP[10000]	/* MoveDirectRelPt */\012PUSHB[ ]	/* 1 value pushed */\0125 \012SRP0[ ]	/* SetRefPoint0 */\012PUSHB[ ]	/* 2 values pushed */\01241 11 \012MIRP[10100]	/* MoveIndirectRelPt */\012NPUSHB[ ]	/* 11 values pushed */\0126 41 22 41 38 41 54 41 70 41 5 \012DELTAP1[ ]	/* DeltaExceptionP1 */\012PUSHB[ ]	/* 1 value pushed */\01217 \012SRP0[ ]	/* SetRefPoint0 */\012PUSHB[ ]	/* 1 value pushed */\01247 \012MDRP[11100]	/* MoveDirectRelPt */\012SVTCA[0]	/* SetFreedomAndProjectionVectorToAxis */\012PUSHB[ ]	/* 1 value pushed */\0120 \012RCVT[ ]	/* ReadCVT */\012IF[ ]	/* If */\012PUSHB[ ]	/* 1 value pushed */\01210 \012MDAP[1]	/* MoveDirectAbsPt */\012ELSE[ ]	/* Else */\012PUSHB[ ]	/* 2 values pushed */\01210 21 \012MIAP[0]	/* MoveIndirectAbsPt */\012EIF[ ]	/* EndIf */\012PUSHB[ ]	/* 1 value pushed */\0120 \012RCVT[ ]	/* ReadCVT */\012IF[ ]	/* If */\012PUSHB[ ]	/* 1 value pushed */\01218 \012MDAP[1]	/* MoveDirectAbsPt */\012ELSE[ ]	/* Else */\012PUSHB[ ]	/* 2 values pushed */\01218 17 \012MIAP[0]	/* MoveIndirectAbsPt */\012EIF[ ]	/* EndIf */\012PUSHB[ ]	/* 1 value pushed */\0120 \012RCVT[ ]	/* ReadCVT */\012IF[ ]	/* If */\012PUSHB[ ]	/* 1 value pushed */\0120 \012MDAP[1]	/* MoveDirectAbsPt */\012ELSE[ ]	/* Else */\012PUSHB[ ]	/* 2 values pushed */\0120 17 \012MIAP[0]	/* MoveIndirectAbsPt */\012EIF[ ]	/* EndIf */\012PUSHB[ ]	/* 1 value pushed */\01210 \012SRP0[ ]	/* SetRefPoint0 */\012PUSHB[ ]	/* 2 values pushed */\01236 5 \012MIRP[10100]	/* MoveIndirectRelPt */\012NPUSHB[ ]	/* 11 values pushed */\0128 36 24 36 40 36 56 36 72 36 5 \012DELTAP1[ ]	/* DeltaExceptionP1 */\012PUSHB[ ]	/* 3 values pushed */\01215 10 36 \012SRP1[ ]	/* SetRefPoint1 */\012SRP2[ ]	/* SetRefPoint2 */\012IP[ ]	/* InterpolatePts */\012PUSHB[ ]	/* 1 value pushed */\0120 \012SRP0[ ]	/* SetRefPoint0 */\012PUSHB[ ]	/* 2 values pushed */\01225 3 \012MIRP[10100]	/* MoveIndirectRelPt */\012NPUSHB[ ]	/* 11 values pushed */\0127 25 23 25 39 25 55 25 71 25 5 \012DELTAP1[ ]	/* DeltaExceptionP1 */\012PUSHB[ ]	/* 3 values pushed */\01220 0 25 \012SRP1[ ]	/* SetRefPoint1 */\012SRP2[ ]	/* SetRefPoint2 */\012IP[ ]	/* InterpolatePts */\012IUP[0]	/* InterpolateUntPts */\012IUP[1]	/* InterpolateUntPts */";
};
width = 1198;
}
);
note = d;
rightMetricsKey = "=|h";
unicode = 0064;
},
{
color = 4;
glyphname = eth;
lastChange = "2022-05-11 04:45:36 +0000";
layers = (
{
layerId = "410E5E1C-5FD0-457E-A79B-7BF13808BDAC";
paths = (
{
closed = 1;
nodes = (
"111 301.333 OFFCURVE",
"145.833 173.667 OFFCURVE",
"222.5 91 CURVE SMOOTH",
"299.167 8.333 OFFCURVE",
"417.333 -31 OFFCURVE",
"584 -31 CURVE SMOOTH",
"721.333 -31 OFFCURVE",
"835.167 -0.833 OFFCURVE",
"914.5 70.5 CURVE SMOOTH",
"993.833 141.833 OFFCURVE",
"1038 252.667 OFFCURVE",
"1038 414 CURVE SMOOTH",
"1038 764 LINE SMOOTH",
"1038 870.667 OFFCURVE",
"1021.833 977.333 OFFCURVE",
"986.5 1076 CURVE SMOOTH",
"951.167 1174.667 OFFCURVE",
"897 1266.667 OFFCURVE",
"821 1344 CURVE",
"974 1479 LINE",
"877 1622 LINE",
"681 1451 LINE",
"573 1515 OFFCURVE",
"440.667 1554.667 OFFCURVE",
"274 1564 CURVE",
"250 1391 LINE",
"338 1384.333 OFFCURVE",
"430.667 1356.667 OFFCURVE",
"516 1306 CURVE",
"358 1168 LINE",
"457 1023 LINE",
"655 1197 LINE",
"743 1105 OFFCURVE",
"801 986.333 OFFCURVE",
"801 845 CURVE",
"694.62 895.657 OFFCURVE",
"560.28 925 OFFCURVE",
"455 925 CURVE SMOOTH",
"352.333 925 OFFCURVE",
"266 901.833 OFFCURVE",
"206 834.5 CURVE SMOOTH",
"146 767.167 OFFCURVE",
"111 654.667 OFFCURVE",
"111 476 CURVE"
);
},
{
closed = 1;
nodes = (
"358 589 OFFCURVE",
"373 644.333 OFFCURVE",
"409 675 CURVE SMOOTH",
"445 705.667 OFFCURVE",
"501.333 710 OFFCURVE",
"584 710 CURVE SMOOTH",
"640 710 OFFCURVE",
"694.833 700.5 OFFCURVE",
"735.5 690.5 CURVE SMOOTH",
"766.999 682.754 OFFCURVE",
"805.991 671 OFFCURVE",
"801 671 CURVE",
"801 453 LINE SMOOTH",
"801 270.776 OFFCURVE",
"762.916 195 OFFCURVE",
"584 195 CURVE SMOOTH",
"494.667 195 OFFCURVE",
"438.5 219.833 OFFCURVE",
"404.5 268.5 CURVE SMOOTH",
"370.5 317.167 OFFCURVE",
"358 389 OFFCURVE",
"358 485 CURVE"
);
}
);
userData = {
assembly = "PUSHB[ ]	/* 4 values pushed */\01210 15 15 4 \012CALL[ ]	/* CallFunction */\012PUSHB[ ]	/* 1 value pushed */\01215 \012SRP0[ ]	/* SetRefPoint0 */\012PUSHB[ ]	/* 1 value pushed */\01242 \012MDRP[10000]	/* MoveDirectRelPt */\012PUSHB[ ]	/* 1 value pushed */\01210 \012SRP0[ ]	/* SetRefPoint0 */\012PUSHB[ ]	/* 1 value pushed */\01252 \012MDRP[10000]	/* MoveDirectRelPt */\012SVTCA[0]	/* SetFreedomAndProjectionVectorToAxis */\012PUSHB[ ]	/* 1 value pushed */\0120 \012RCVT[ ]	/* ReadCVT */\012IF[ ]	/* If */\012PUSHB[ ]	/* 1 value pushed */\01237 \012MDAP[1]	/* MoveDirectAbsPt */\012ELSE[ ]	/* Else */\012PUSHB[ ]	/* 2 values pushed */\01237 17 \012MIAP[0]	/* MoveIndirectAbsPt */\012EIF[ ]	/* EndIf */\012IUP[0]	/* InterpolateUntPts */\012IUP[1]	/* InterpolateUntPts */";
};
width = 1173;
}
);
note = eth;
unicode = 00F0;
},
{
glyphname = dcroat;
lastChange = "2022-05-11 19:55:44 +0000";
layers = (
{
layerId = "410E5E1C-5FD0-457E-A79B-7BF13808BDAC";
paths = (
{
closed = 1;
nodes = (
"558 -31 OFFCURVE",
"650 -3 OFFCURVE",
"715 26 CURVE SMOOTH",
"753 43 OFFCURVE",
"787 63 OFFCURVE",
"817 84 CURVE",
"831 0 LINE",
"1036 0 LINE",
"1036 1204 LINE",
"1181 1204 LINE",
"1181 1384 LINE",
"1036 1384 LINE",
"1036 1554 LINE",
"798 1554 LINE",
"798 1384 LINE",
"513 1384 LINE",
"513 1204 LINE",
"798 1204 LINE",
"798 1010 LINE",
"770 1023 OFFCURVE",
"738 1036 OFFCURVE",
"701 1047 CURVE SMOOTH",
"638 1066 OFFCURVE",
"552 1085 OFFCURVE",
"448 1085 CURVE SMOOTH",
"335 1085 OFFCURVE",
"244 1047 OFFCURVE",
"182 957 CURVE SMOOTH",
"120 867 OFFCURVE",
"85 726 OFFCURVE",
"88 523 CURVE SMOOTH",
"89 319 OFFCURVE",
"121 180 OFFCURVE",
"181 93 CURVE SMOOTH",
"241 5 OFFCURVE",
"331 -31 OFFCURVE",
"450 -31 CURVE"
);
},
{
closed = 1;
nodes = (
"450 182 OFFCURVE",
"401 204 OFFCURVE",
"373 256 CURVE SMOOTH",
"345 308 OFFCURVE",
"338 389 OFFCURVE",
"338 508 CURVE SMOOTH",
"338 645 OFFCURVE",
"346 737 OFFCURVE",
"373 794 CURVE SMOOTH",
"400 851 OFFCURVE",
"445 874 OFFCURVE",
"518 874 CURVE SMOOTH",
"589 874 OFFCURVE",
"659 864 OFFCURVE",
"711 855 CURVE SMOOTH",
"742 849 OFFCURVE",
"771 843 OFFCURVE",
"798 836 CURVE",
"798 233 LINE",
"773 223 OFFCURVE",
"747 214 OFFCURVE",
"718 207 CURVE SMOOTH",
"669 194 OFFCURVE",
"603 182 OFFCURVE",
"534 182 CURVE"
);
}
);
userData = {
assembly = "PUSHB[ ]	/* 4 values pushed */\01249 11 5 4 \012CALL[ ]	/* CallFunction */\012PUSHB[ ]	/* 3 values pushed */\01224 17 3 \012CALL[ ]	/* CallFunction */\012PUSHB[ ]	/* 3 values pushed */\01215 17 24 \012SRP1[ ]	/* SetRefPoint1 */\012SRP2[ ]	/* SetRefPoint2 */\012IP[ ]	/* InterpolatePts */\012PUSHB[ ]	/* 3 values pushed */\01216 17 24 \012SRP1[ ]	/* SetRefPoint1 */\012SRP2[ ]	/* SetRefPoint2 */\012IP[ ]	/* InterpolatePts */\012PUSHB[ ]	/* 1 value pushed */\01216 \012MDAP[1]	/* MoveDirectAbsPt */\012PUSHB[ ]	/* 1 value pushed */\01219 \012MDRP[10000]	/* MoveDirectRelPt */\012PUSHB[ ]	/* 1 value pushed */\01216 \012SRP0[ ]	/* SetRefPoint0 */\012PUSHB[ ]	/* 2 values pushed */\01225 13 \012MIRP[10100]	/* MoveIndirectRelPt */\012PUSHB[ ]	/* 1 value pushed */\01221 \012MDRP[10000]	/* MoveDirectRelPt */\012PUSHB[ ]	/* 3 values pushed */\01228 17 24 \012SRP1[ ]	/* SetRefPoint1 */\012SRP2[ ]	/* SetRefPoint2 */\012IP[ ]	/* InterpolatePts */\012PUSHB[ ]	/* 1 value pushed */\01216 \012SRP0[ ]	/* SetRefPoint0 */\012PUSHB[ ]	/* 1 value pushed */\01238 \012MDRP[10000]	/* MoveDirectRelPt */\012NPUSHB[ ]	/* 11 values pushed */\0126 49 22 49 38 49 54 49 70 49 5 \012DELTAP1[ ]	/* DeltaExceptionP1 */\012PUSHB[ ]	/* 1 value pushed */\01224 \012SRP0[ ]	/* SetRefPoint0 */\012PUSHB[ ]	/* 1 value pushed */\01255 \012MDRP[11100]	/* MoveDirectRelPt */\012SVTCA[0]	/* SetFreedomAndProjectionVectorToAxis */\012PUSHB[ ]	/* 1 value pushed */\0120 \012RCVT[ ]	/* ReadCVT */\012IF[ ]	/* If */\012PUSHB[ ]	/* 1 value pushed */\01210 \012MDAP[1]	/* MoveDirectAbsPt */\012ELSE[ ]	/* Else */\012PUSHB[ ]	/* 2 values pushed */\01210 21 \012MIAP[0]	/* MoveIndirectAbsPt */\012EIF[ ]	/* EndIf */\012PUSHB[ ]	/* 1 value pushed */\0120 \012RCVT[ ]	/* ReadCVT */\012IF[ ]	/* If */\012PUSHB[ ]	/* 1 value pushed */\01226 \012MDAP[1]	/* MoveDirectAbsPt */\012ELSE[ ]	/* Else */\012PUSHB[ ]	/* 2 values pushed */\01226 17 \012MIAP[0]	/* MoveIndirectAbsPt */\012EIF[ ]	/* EndIf */\012PUSHB[ ]	/* 1 value pushed */\0120 \012RCVT[ ]	/* ReadCVT */\012IF[ ]	/* If */\012PUSHB[ ]	/* 1 value pushed */\0120 \012MDAP[1]	/* MoveDirectAbsPt */\012ELSE[ ]	/* Else */\012PUSHB[ ]	/* 2 values pushed */\0120 17 \012MIAP[0]	/* MoveIndirectAbsPt */\012EIF[ ]	/* EndIf */\012PUSHB[ ]	/* 4 values pushed */\01219 4 16 4 \012CALL[ ]	/* CallFunction */\012PUSHB[ ]	/* 1 value pushed */\01210 \012SRP0[ ]	/* SetRefPoint0 */\012PUSHB[ ]	/* 2 values pushed */\01244 5 \012MIRP[10100]	/* MoveIndirectRelPt */\012NPUSHB[ ]	/* 11 values pushed */\0128 44 24 44 40 44 56 44 72 44 5 \012DELTAP1[ ]	/* DeltaExceptionP1 */\012PUSHB[ ]	/* 3 values pushed */\01215 10 44 \012SRP1[ ]	/* SetRefPoint1 */\012SRP2[ ]	/* SetRefPoint2 */\012IP[ ]	/* InterpolatePts */\012PUSHB[ ]	/* 1 value pushed */\01219 \012SRP0[ ]	/* SetRefPoint0 */\012PUSHB[ ]	/* 1 value pushed */\01222 \012MDRP[10000]	/* MoveDirectRelPt */\012PUSHB[ ]	/* 1 value pushed */\01216 \012SRP0[ ]	/* SetRefPoint0 */\012PUSHB[ ]	/* 1 value pushed */\01224 \012MDRP[10000]	/* MoveDirectRelPt */\012PUSHB[ ]	/* 1 value pushed */\0120 \012SRP0[ ]	/* SetRefPoint0 */\012PUSHB[ ]	/* 2 values pushed */\01233 3 \012MIRP[10100]	/* MoveIndirectRelPt */\012NPUSHB[ ]	/* 11 values pushed */\0127 33 23 33 39 33 55 33 71 33 5 \012DELTAP1[ ]	/* DeltaExceptionP1 */\012PUSHB[ ]	/* 3 values pushed */\01228 0 33 \012SRP1[ ]	/* SetRefPoint1 */\012SRP2[ ]	/* SetRefPoint2 */\012IP[ ]	/* InterpolatePts */\012IUP[0]	/* InterpolateUntPts */\012IUP[1]	/* InterpolateUntPts */";
};
width = 1181;
}
);
leftMetricsKey = d;
note = dcroat;
unicode = 0111;
},
{
color = 4;
glyphname = e;
lastChange = "2022-05-11 19:56:18 +0000";
layers = (
{
anchors = (
{
name = bottom;
position = "{607, 0}";
},
{
name = ogonek;
position = "{973, 10}";
},
{
name = top;
position = "{596, 1055}";
}
);
layerId = "410E5E1C-5FD0-457E-A79B-7BF13808BDAC";
paths = (
{
closed = 1;
nodes = (
"90 328 OFFCURVE",
"136 186 OFFCURVE",
"221 96 CURVE SMOOTH",
"305 6 OFFCURVE",
"429 -31 OFFCURVE",
"586 -31 CURVE SMOOTH",
"689 -31 OFFCURVE",
"782 -14 OFFCURVE",
"850 3 CURVE SMOOTH",
"890 13 OFFCURVE",
"927 24 OFFCURVE",
"961 37 CURVE",
"961 203 LINE",
"932 198 OFFCURVE",
"899 193 OFFCURVE",
"863 190 CURVE SMOOTH",
"802 183 OFFCURVE",
"718 178 OFFCURVE",
"625 178 CURVE SMOOTH",
"514 178 OFFCURVE",
"442 195 OFFCURVE",
"398 236 CURVE SMOOTH",
"353 276 OFFCURVE",
"335 339 OFFCURVE",
"334 434 CURVE",
"995 434 LINE",
"1003 505 OFFCURVE",
"1008 571 OFFCURVE",
"1008 634 CURVE SMOOTH",
"1008 767 OFFCURVE",
"986 880 OFFCURVE",
"923 960 CURVE SMOOTH",
"860 1039 OFFCURVE",
"757 1085 OFFCURVE",
"596 1085 CURVE SMOOTH",
"468 1085 OFFCURVE",
"342 1058 OFFCURVE",
"247 977 CURVE SMOOTH",
"152 896 OFFCURVE",
"90 759 OFFCURVE",
"90 539 CURVE"
);
},
{
closed = 1;
nodes = (
"332 701 OFFCURVE",
"342 770 OFFCURVE",
"378 816 CURVE SMOOTH",
"413 862 OFFCURVE",
"474 885 OFFCURVE",
"574 885 CURVE SMOOTH",
"754 885 OFFCURVE",
"789 817 OFFCURVE",
"789 650 CURVE SMOOTH",
"789 612 LINE",
"332 612 LINE"
);
}
);
userData = {
assembly = "PUSHB[ ]	/* 1 value pushed */\01247 \012MDAP[1]	/* MoveDirectAbsPt */\012PUSHB[ ]	/* 1 value pushed */\01236 \012MDAP[1]	/* MoveDirectAbsPt */\012PUSHB[ ]	/* 1 value pushed */\01247 \012SRP0[ ]	/* SetRefPoint0 */\012PUSHB[ ]	/* 1 value pushed */\0120 \012MDRP[10000]	/* MoveDirectRelPt */\012PUSHB[ ]	/* 1 value pushed */\0120 \012MDAP[1]	/* MoveDirectAbsPt */\012PUSHB[ ]	/* 1 value pushed */\01236 \012SRP0[ ]	/* SetRefPoint0 */\012PUSHB[ ]	/* 2 values pushed */\01210 10 \012MIRP[10100]	/* MoveIndirectRelPt */\012PUSHB[ ]	/* 1 value pushed */\01213 \012MDRP[10000]	/* MoveDirectRelPt */\012PUSHB[ ]	/* 1 value pushed */\01213 \012MDAP[1]	/* MoveDirectAbsPt */\012PUSHB[ ]	/* 1 value pushed */\0120 \012SRP0[ ]	/* SetRefPoint0 */\012PUSHB[ ]	/* 2 values pushed */\01246 12 \012MIRP[10100]	/* MoveIndirectRelPt */\012PUSHB[ ]	/* 1 value pushed */\01214 \012MDRP[10000]	/* MoveDirectRelPt */\012PUSHB[ ]	/* 1 value pushed */\01214 \012MDAP[1]	/* MoveDirectAbsPt */\012PUSHB[ ]	/* 1 value pushed */\01210 \012SRP0[ ]	/* SetRefPoint0 */\012PUSHB[ ]	/* 1 value pushed */\01248 \012MDRP[11100]	/* MoveDirectRelPt */\012SVTCA[0]	/* SetFreedomAndProjectionVectorToAxis */\012PUSHB[ ]	/* 1 value pushed */\0120 \012RCVT[ ]	/* ReadCVT */\012IF[ ]	/* If */\012PUSHB[ ]	/* 1 value pushed */\0125 \012MDAP[1]	/* MoveDirectAbsPt */\012ELSE[ ]	/* Else */\012PUSHB[ ]	/* 2 values pushed */\0125 21 \012MIAP[0]	/* MoveIndirectAbsPt */\012EIF[ ]	/* EndIf */\012PUSHB[ ]	/* 1 value pushed */\0120 \012RCVT[ ]	/* ReadCVT */\012IF[ ]	/* If */\012PUSHB[ ]	/* 1 value pushed */\01230 \012MDAP[1]	/* MoveDirectAbsPt */\012ELSE[ ]	/* Else */\012PUSHB[ ]	/* 2 values pushed */\01230 17 \012MIAP[0]	/* MoveIndirectAbsPt */\012EIF[ ]	/* EndIf */\012PUSHB[ ]	/* 4 values pushed */\01235 4 13 4 \012CALL[ ]	/* CallFunction */\012PUSHB[ ]	/* 1 value pushed */\01230 \012SRP0[ ]	/* SetRefPoint0 */\012PUSHB[ ]	/* 2 values pushed */\01219 5 \012MIRP[10100]	/* MoveIndirectRelPt */\012NPUSHB[ ]	/* 11 values pushed */\0127 19 23 19 39 19 55 19 71 19 5 \012DELTAP1[ ]	/* DeltaExceptionP1 */\012PUSHB[ ]	/* 1 value pushed */\01222 \012MDRP[10000]	/* MoveDirectRelPt */\012PUSHB[ ]	/* 1 value pushed */\01222 \012MDAP[1]	/* MoveDirectAbsPt */\012PUSHB[ ]	/* 1 value pushed */\0125 \012SRP0[ ]	/* SetRefPoint0 */\012PUSHB[ ]	/* 2 values pushed */\01241 1 \012MIRP[10100]	/* MoveIndirectRelPt */\012NPUSHB[ ]	/* 11 values pushed */\0128 41 24 41 40 41 56 41 72 41 5 \012DELTAP1[ ]	/* DeltaExceptionP1 */\012IUP[0]	/* InterpolateUntPts */\012IUP[1]	/* InterpolateUntPts */";
};
width = 1096;
}
);
leftMetricsKey = o;
note = e;
unicode = 0065;
},
{
glyphname = eogonek;
lastChange = "2022-05-11 04:40:54 +0000";
layers = (
{
layerId = "410E5E1C-5FD0-457E-A79B-7BF13808BDAC";
paths = (
{
closed = 1;
nodes = (
"94 328.333 OFFCURVE",
"139.833 185.5 OFFCURVE",
"224.5 95.5 CURVE SMOOTH",
"309.167 5.5 OFFCURVE",
"432.667 -31 OFFCURVE",
"590 -31 CURVE SMOOTH",
"594 -31 LINE",
"533.503 -94.377 OFFCURVE",
"481 -178.242 OFFCURVE",
"481 -279 CURVE SMOOTH",
"481 -423.272 OFFCURVE",
"589.244 -500 OFFCURVE",
"733 -500 CURVE SMOOTH",
"771.667 -500 OFFCURVE",
"805.667 -495.333 OFFCURVE",
"831 -490 CURVE SMOOTH",
"845.667 -487.333 OFFCURVE",
"859.333 -483.667 OFFCURVE",
"872 -479 CURVE",
"872 -311 LINE",
"865.333 -312.333 OFFCURVE",
"858.333 -313.333 OFFCURVE",
"851 -314 CURVE SMOOTH",
"837.667 -316 OFFCURVE",
"821.667 -317 OFFCURVE",
"803 -317 CURVE SMOOTH",
"735 -317 OFFCURVE",
"702 -281 OFFCURVE",
"702 -225 CURVE SMOOTH",
"702 -187.667 OFFCURVE",
"717.667 -144.333 OFFCURVE",
"759 -99 CURVE SMOOTH",
"800.333 -53.667 OFFCURVE",
"865 -7 OFFCURVE",
"965 37 CURVE",
"965 203 LINE",
"935.667 197.667 OFFCURVE",
"903 193.333 OFFCURVE",
"867 190 CURVE SMOOTH",
"805.667 183.333 OFFCURVE",
"722.333 178 OFFCURVE",
"629 178 CURVE SMOOTH",
"518.333 178 OFFCURVE",
"446.167 194.833 OFFCURVE",
"401.5 235.5 CURVE SMOOTH",
"356.833 276.167 OFFCURVE",
"339.333 339.333 OFFCURVE",
"338 434 CURVE",
"999 434 LINE",
"1007 504.667 OFFCURVE",
"1012 571.333 OFFCURVE",
"1012 634 CURVE SMOOTH",
"1012 767.333 OFFCURVE",
"989.667 880.167 OFFCURVE",
"927 959.5 CURVE SMOOTH",
"864.333 1038.833 OFFCURVE",
"761.333 1085 OFFCURVE",
"600 1085 CURVE SMOOTH",
"472 1085 OFFCURVE",
"345.667 1058.333 OFFCURVE",
"251 977 CURVE SMOOTH",
"156.333 895.667 OFFCURVE",
"94 759 OFFCURVE",
"94 539 CURVE"
);
},
{
closed = 1;
nodes = (
"336 701.333 OFFCURVE",
"346.167 769.5 OFFCURVE",
"381.5 815.5 CURVE SMOOTH",
"416.833 861.5 OFFCURVE",
"478 885 OFFCURVE",
"578 885 CURVE SMOOTH",
"758.007 885 OFFCURVE",
"793 817.278 OFFCURVE",
"793 650 CURVE SMOOTH",
"793 612 LINE",
"336 612 LINE"
);
}
);
userData = {
assembly = "PUSHB[ ]	/* 4 values pushed */\01230 10 48 4 \012CALL[ ]	/* CallFunction */\012PUSHB[ ]	/* 4 values pushed */\01270 12 0 4 \012CALL[ ]	/* CallFunction */\012PUSHB[ ]	/* 4 values pushed */\01210 10 60 4 \012CALL[ ]	/* CallFunction */\012PUSHB[ ]	/* 1 value pushed */\01210 \012SRP0[ ]	/* SetRefPoint0 */\012PUSHB[ ]	/* 1 value pushed */\01213 \012MDRP[10000]	/* MoveDirectRelPt */\012PUSHB[ ]	/* 1 value pushed */\01213 \012MDAP[1]	/* MoveDirectAbsPt */\012PUSHB[ ]	/* 1 value pushed */\01270 \012SRP0[ ]	/* SetRefPoint0 */\012PUSHB[ ]	/* 1 value pushed */\01214 \012MDRP[10000]	/* MoveDirectRelPt */\012PUSHB[ ]	/* 1 value pushed */\01214 \012MDAP[1]	/* MoveDirectAbsPt */\012NPUSHB[ ]	/* 11 values pushed */\0129 48 25 48 41 48 57 48 73 48 5 \012DELTAP1[ ]	/* DeltaExceptionP1 */\012PUSHB[ ]	/* 3 values pushed */\01254 48 30 \012SRP1[ ]	/* SetRefPoint1 */\012SRP2[ ]	/* SetRefPoint2 */\012IP[ ]	/* InterpolatePts */\012PUSHB[ ]	/* 1 value pushed */\01210 \012SRP0[ ]	/* SetRefPoint0 */\012PUSHB[ ]	/* 1 value pushed */\01272 \012MDRP[11100]	/* MoveDirectRelPt */\012SVTCA[0]	/* SetFreedomAndProjectionVectorToAxis */\012PUSHB[ ]	/* 1 value pushed */\0120 \012RCVT[ ]	/* ReadCVT */\012IF[ ]	/* If */\012PUSHB[ ]	/* 1 value pushed */\0125 \012MDAP[1]	/* MoveDirectAbsPt */\012ELSE[ ]	/* Else */\012PUSHB[ ]	/* 2 values pushed */\0125 21 \012MIAP[0]	/* MoveIndirectAbsPt */\012EIF[ ]	/* EndIf */\012PUSHB[ ]	/* 1 value pushed */\0120 \012RCVT[ ]	/* ReadCVT */\012IF[ ]	/* If */\012PUSHB[ ]	/* 1 value pushed */\01240 \012MDAP[1]	/* MoveDirectAbsPt */\012ELSE[ ]	/* Else */\012PUSHB[ ]	/* 2 values pushed */\01240 19 \012MIAP[0]	/* MoveIndirectAbsPt */\012EIF[ ]	/* EndIf */\012PUSHB[ ]	/* 1 value pushed */\0120 \012RCVT[ ]	/* ReadCVT */\012IF[ ]	/* If */\012PUSHB[ ]	/* 1 value pushed */\01243 \012MDAP[1]	/* MoveDirectAbsPt */\012ELSE[ ]	/* Else */\012PUSHB[ ]	/* 2 values pushed */\01243 19 \012MIAP[0]	/* MoveIndirectAbsPt */\012EIF[ ]	/* EndIf */\012PUSHB[ ]	/* 1 value pushed */\0120 \012RCVT[ ]	/* ReadCVT */\012IF[ ]	/* If */\012PUSHB[ ]	/* 1 value pushed */\01253 \012MDAP[1]	/* MoveDirectAbsPt */\012ELSE[ ]	/* Else */\012PUSHB[ ]	/* 2 values pushed */\01253 17 \012MIAP[0]	/* MoveIndirectAbsPt */\012EIF[ ]	/* EndIf */\012PUSHB[ ]	/* 4 values pushed */\01259 4 13 4 \012CALL[ ]	/* CallFunction */\012PUSHB[ ]	/* 1 value pushed */\01253 \012SRP0[ ]	/* SetRefPoint0 */\012PUSHB[ ]	/* 2 values pushed */\01219 5 \012MIRP[10100]	/* MoveIndirectRelPt */\012NPUSHB[ ]	/* 11 values pushed */\0127 19 23 19 39 19 55 19 71 19 5 \012DELTAP1[ ]	/* DeltaExceptionP1 */\012PUSHB[ ]	/* 1 value pushed */\01222 \012MDRP[10000]	/* MoveDirectRelPt */\012PUSHB[ ]	/* 1 value pushed */\01222 \012MDAP[1]	/* MoveDirectAbsPt */\012PUSHB[ ]	/* 1 value pushed */\01240 \012SRP0[ ]	/* SetRefPoint0 */\012PUSHB[ ]	/* 2 values pushed */\01233 4 \012MIRP[10100]	/* MoveIndirectRelPt */\012NPUSHB[ ]	/* 11 values pushed */\0127 33 23 33 39 33 55 33 71 33 5 \012DELTAP1[ ]	/* DeltaExceptionP1 */\012PUSHB[ ]	/* 1 value pushed */\0125 \012SRP0[ ]	/* SetRefPoint0 */\012PUSHB[ ]	/* 2 values pushed */\01265 1 \012MIRP[10100]	/* MoveIndirectRelPt */\012NPUSHB[ ]	/* 11 values pushed */\0128 65 24 65 40 65 56 65 72 65 5 \012DELTAP1[ ]	/* DeltaExceptionP1 */\012IUP[0]	/* InterpolateUntPts */\012IUP[1]	/* InterpolateUntPts */";
};
width = 1085;
}
);
note = eogonek;
unicode = 0119;
},
{
glyphname = schwa;
lastChange = "2022-05-11 19:56:18 +0000";
layers = (
{
anchors = (
{
name = bottom;
position = "{500, 0}";
}
);
layerId = "410E5E1C-5FD0-457E-A79B-7BF13808BDAC";
paths = (
{
closed = 1;
nodes = (
"1006 727 OFFCURVE",
"960 869 OFFCURVE",
"875 959 CURVE SMOOTH",
"791 1049 OFFCURVE",
"667 1086 OFFCURVE",
"510 1086 CURVE SMOOTH",
"407 1086 OFFCURVE",
"314 1069 OFFCURVE",
"246 1052 CURVE SMOOTH",
"206 1042 OFFCURVE",
"169 1031 OFFCURVE",
"135 1018 CURVE",
"135 852 LINE",
"164 857 OFFCURVE",
"197 862 OFFCURVE",
"233 865 CURVE SMOOTH",
"294 872 OFFCURVE",
"378 877 OFFCURVE",
"471 877 CURVE SMOOTH",
"582 877 OFFCURVE",
"654 860 OFFCURVE",
"698 819 CURVE SMOOTH",
"743 779 OFFCURVE",
"761 716 OFFCURVE",
"762 621 CURVE",
"101 621 LINE",
"93 550 OFFCURVE",
"88 484 OFFCURVE",
"88 421 CURVE SMOOTH",
"88 288 OFFCURVE",
"110 175 OFFCURVE",
"173 95 CURVE SMOOTH",
"236 16 OFFCURVE",
"339 -30 OFFCURVE",
"500 -30 CURVE SMOOTH",
"628 -30 OFFCURVE",
"754 -3 OFFCURVE",
"849 78 CURVE SMOOTH",
"944 159 OFFCURVE",
"1006 296 OFFCURVE",
"1006 516 CURVE"
);
},
{
closed = 1;
nodes = (
"764 354 OFFCURVE",
"754 285 OFFCURVE",
"718 239 CURVE SMOOTH",
"683 193 OFFCURVE",
"622 170 OFFCURVE",
"522 170 CURVE SMOOTH",
"342 170 OFFCURVE",
"307 238 OFFCURVE",
"307 405 CURVE SMOOTH",
"307 443 LINE",
"764 443 LINE"
);
}
);
width = 1096;
}
);
leftMetricsKey = "=|e";
rightMetricsKey = o;
unicode = 0259;
},
{
color = 4;
glyphname = f;
lastChange = "2022-05-11 19:57:50 +0000";
layers = (
{
anchors = (
{
name = bottom;
position = "{368, 0}";
},
{
name = top;
position = "{173, 1509}";
}
);
layerId = "410E5E1C-5FD0-457E-A79B-7BF13808BDAC";
paths = (
{
closed = 1;
nodes = (
"455 0 LINE",
"455 858 LINE",
"725 858 LINE",
"725 1055 LINE",
"455 1055 LINE",
"455 1241 LINE SMOOTH",
"455 1333 OFFCURVE",
"491 1362 OFFCURVE",
"601 1362 CURVE SMOOTH",
"649 1362 OFFCURVE",
"696 1361 OFFCURVE",
"731 1358 CURVE SMOOTH",
"752 1357 OFFCURVE",
"771 1355 OFFCURVE",
"789 1354 CURVE",
"789 1530 LINE",
"767 1537 OFFCURVE",
"742 1543 OFFCURVE",
"715 1549 CURVE SMOOTH",
"668 1560 OFFCURVE",
"600 1569 OFFCURVE",
"517 1569 CURVE SMOOTH",
"406 1569 OFFCURVE",
"331 1538 OFFCURVE",
"284 1481 CURVE SMOOTH",
"237 1424 OFFCURVE",
"218 1339 OFFCURVE",
"218 1231 CURVE SMOOTH",
"218 1055 LINE",
"70 1055 LINE",
"70 858 LINE",
"218 858 LINE",
"218 0 LINE"
);
}
);
userData = {
assembly = "PUSHB[ ]	/* 4 values pushed */\01229 13 0 4 \012CALL[ ]	/* CallFunction */\012PUSHB[ ]	/* 1 value pushed */\0120 \012SRP0[ ]	/* SetRefPoint0 */\012PUSHB[ ]	/* 1 value pushed */\0123 \012MDRP[10000]	/* MoveDirectRelPt */\012PUSHB[ ]	/* 1 value pushed */\01229 \012SRP0[ ]	/* SetRefPoint0 */\012PUSHB[ ]	/* 1 value pushed */\01225 \012MDRP[10000]	/* MoveDirectRelPt */\012SVTCA[0]	/* SetFreedomAndProjectionVectorToAxis */\012PUSHB[ ]	/* 1 value pushed */\0120 \012RCVT[ ]	/* ReadCVT */\012IF[ ]	/* If */\012PUSHB[ ]	/* 1 value pushed */\0122 \012MDAP[1]	/* MoveDirectAbsPt */\012ELSE[ ]	/* Else */\012PUSHB[ ]	/* 2 values pushed */\0122 21 \012MIAP[0]	/* MoveIndirectAbsPt */\012EIF[ ]	/* EndIf */\012PUSHB[ ]	/* 1 value pushed */\0120 \012RCVT[ ]	/* ReadCVT */\012IF[ ]	/* If */\012PUSHB[ ]	/* 1 value pushed */\01226 \012MDAP[1]	/* MoveDirectAbsPt */\012ELSE[ ]	/* Else */\012PUSHB[ ]	/* 2 values pushed */\01226 21 \012MIAP[0]	/* MoveIndirectAbsPt */\012EIF[ ]	/* EndIf */\012PUSHB[ ]	/* 1 value pushed */\0120 \012RCVT[ ]	/* ReadCVT */\012IF[ ]	/* If */\012PUSHB[ ]	/* 1 value pushed */\01230 \012MDAP[1]	/* MoveDirectAbsPt */\012ELSE[ ]	/* Else */\012PUSHB[ ]	/* 2 values pushed */\01230 17 \012MIAP[0]	/* MoveIndirectAbsPt */\012EIF[ ]	/* EndIf */\012PUSHB[ ]	/* 4 values pushed */\0129 5 20 4 \012CALL[ ]	/* CallFunction */\012PUSHB[ ]	/* 1 value pushed */\0122 \012SRP0[ ]	/* SetRefPoint0 */\012PUSHB[ ]	/* 2 values pushed */\0120 8 \012MIRP[10100]	/* MoveIndirectRelPt */\012PUSHB[ ]	/* 1 value pushed */\01220 \012SRP0[ ]	/* SetRefPoint0 */\012PUSHB[ ]	/* 1 value pushed */\01215 \012MDRP[10000]	/* MoveDirectRelPt */\012PUSHB[ ]	/* 1 value pushed */\01215 \012MDAP[1]	/* MoveDirectAbsPt */\012PUSHB[ ]	/* 1 value pushed */\01220 \012SRP0[ ]	/* SetRefPoint0 */\012PUSHB[ ]	/* 1 value pushed */\01217 \012MDRP[10000]	/* MoveDirectRelPt */\012PUSHB[ ]	/* 1 value pushed */\01217 \012MDAP[1]	/* MoveDirectAbsPt */\012PUSHB[ ]	/* 1 value pushed */\0120 \012SRP0[ ]	/* SetRefPoint0 */\012PUSHB[ ]	/* 1 value pushed */\01228 \012MDRP[10000]	/* MoveDirectRelPt */\012PUSHB[ ]	/* 1 value pushed */\01229 \012MDRP[10000]	/* MoveDirectRelPt */\012IUP[0]	/* InterpolateUntPts */\012IUP[1]	/* InterpolateUntPts */";
};
width = 755;
}
);
note = f;
unicode = 0066;
},
{
glyphname = g;
lastChange = "2022-05-11 19:58:50 +0000";
layers = (
{
anchors = (
{
name = bottom;
position = "{588, -500}";
},
{
name = top;
position = "{588, 1055}";
}
);
layerId = "410E5E1C-5FD0-457E-A79B-7BF13808BDAC";
paths = (
{
closed = 1;
nodes = (
"259 -450 OFFCURVE",
"298 -460 OFFCURVE",
"339 -469 CURVE SMOOTH",
"410 -485 OFFCURVE",
"501 -500 OFFCURVE",
"594 -500 CURVE SMOOTH",
"741 -500 OFFCURVE",
"852 -479 OFFCURVE",
"926 -425 CURVE SMOOTH",
"1000 -371 OFFCURVE",
"1036 -285 OFFCURVE",
"1036 -158 CURVE SMOOTH",
"1036 1055 LINE",
"856 1055 LINE",
"829 977 LINE",
"799 996 OFFCURVE",
"766 1013 OFFCURVE",
"729 1028 CURVE SMOOTH",
"665 1053 OFFCURVE",
"576 1079 OFFCURVE",
"471 1079 CURVE SMOOTH",
"347 1079 OFFCURVE",
"251 1028 OFFCURVE",
"187 934 CURVE SMOOTH",
"122 840 OFFCURVE",
"88 703 OFFCURVE",
"88 532 CURVE SMOOTH",
"88 324 OFFCURVE",
"118 184 OFFCURVE",
"183 96 CURVE SMOOTH",
"247 8 OFFCURVE",
"347 -27 OFFCURVE",
"487 -27 CURVE SMOOTH",
"568 -27 OFFCURVE",
"644 -10 OFFCURVE",
"703 7 CURVE SMOOTH",
"736 17 OFFCURVE",
"768 28 OFFCURVE",
"798 41 CURVE",
"798 -143 LINE SMOOTH",
"798 -200 OFFCURVE",
"786 -238 OFFCURVE",
"747 -260 CURVE SMOOTH",
"707 -282 OFFCURVE",
"640 -289 OFFCURVE",
"528 -289 CURVE SMOOTH",
"436 -289 OFFCURVE",
"359 -284 OFFCURVE",
"306 -277 CURVE SMOOTH",
"275 -274 OFFCURVE",
"247 -269 OFFCURVE",
"223 -264 CURVE",
"223 -438 LINE"
);
},
{
closed = 1;
nodes = (
"463 186 OFFCURVE",
"404 210 OFFCURVE",
"373 264 CURVE SMOOTH",
"342 318 OFFCURVE",
"338 402 OFFCURVE",
"338 522 CURVE SMOOTH",
"338 653 OFFCURVE",
"350 739 OFFCURVE",
"379 792 CURVE SMOOTH",
"408 845 OFFCURVE",
"455 866 OFFCURVE",
"526 866 CURVE SMOOTH",
"595 866 OFFCURVE",
"663 853 OFFCURVE",
"714 840 CURVE SMOOTH",
"744 833 OFFCURVE",
"772 824 OFFCURVE",
"798 815 CURVE",
"798 211 LINE",
"775 206 OFFCURVE",
"751 201 OFFCURVE",
"726 198 CURVE SMOOTH",
"683 191 OFFCURVE",
"627 186 OFFCURVE",
"571 186 CURVE"
);
}
);
userData = {
assembly = "PUSHB[ ]	/* 1 value pushed */\01266 \012MDAP[1]	/* MoveDirectAbsPt */\012PUSHB[ ]	/* 1 value pushed */\01210 \012MDAP[1]	/* MoveDirectAbsPt */\012PUSHB[ ]	/* 1 value pushed */\01266 \012SRP0[ ]	/* SetRefPoint0 */\012PUSHB[ ]	/* 1 value pushed */\01221 \012MDRP[10000]	/* MoveDirectRelPt */\012PUSHB[ ]	/* 1 value pushed */\01221 \012MDAP[1]	/* MoveDirectAbsPt */\012PUSHB[ ]	/* 1 value pushed */\01210 \012SRP0[ ]	/* SetRefPoint0 */\012PUSHB[ ]	/* 2 values pushed */\01234 13 \012MIRP[10100]	/* MoveIndirectRelPt */\012PUSHB[ ]	/* 1 value pushed */\01221 \012SRP0[ ]	/* SetRefPoint0 */\012PUSHB[ ]	/* 2 values pushed */\01261 11 \012MIRP[10100]	/* MoveIndirectRelPt */\012NPUSHB[ ]	/* 11 values pushed */\0126 61 22 61 38 61 54 61 70 61 5 \012DELTAP1[ ]	/* DeltaExceptionP1 */\012PUSHB[ ]	/* 1 value pushed */\01242 \012MDRP[10000]	/* MoveDirectRelPt */\012PUSHB[ ]	/* 1 value pushed */\01242 \012MDAP[1]	/* MoveDirectAbsPt */\012PUSHB[ ]	/* 1 value pushed */\01210 \012SRP0[ ]	/* SetRefPoint0 */\012PUSHB[ ]	/* 1 value pushed */\01250 \012MDRP[10000]	/* MoveDirectRelPt */\012PUSHB[ ]	/* 1 value pushed */\01234 \012SRP0[ ]	/* SetRefPoint0 */\012PUSHB[ ]	/* 1 value pushed */\01267 \012MDRP[11100]	/* MoveDirectRelPt */\012SVTCA[0]	/* SetFreedomAndProjectionVectorToAxis */\012PUSHB[ ]	/* 1 value pushed */\0120 \012RCVT[ ]	/* ReadCVT */\012IF[ ]	/* If */\012PUSHB[ ]	/* 1 value pushed */\01232 \012MDAP[1]	/* MoveDirectAbsPt */\012ELSE[ ]	/* Else */\012PUSHB[ ]	/* 2 values pushed */\01232 21 \012MIAP[0]	/* MoveIndirectAbsPt */\012EIF[ ]	/* EndIf */\012PUSHB[ ]	/* 1 value pushed */\0120 \012RCVT[ ]	/* ReadCVT */\012IF[ ]	/* If */\012PUSHB[ ]	/* 1 value pushed */\01226 \012MDAP[1]	/* MoveDirectAbsPt */\012ELSE[ ]	/* Else */\012PUSHB[ ]	/* 2 values pushed */\01226 21 \012MIAP[0]	/* MoveIndirectAbsPt */\012EIF[ ]	/* EndIf */\012PUSHB[ ]	/* 1 value pushed */\0120 \012RCVT[ ]	/* ReadCVT */\012IF[ ]	/* If */\012PUSHB[ ]	/* 1 value pushed */\01239 \012MDAP[1]	/* MoveDirectAbsPt */\012ELSE[ ]	/* Else */\012PUSHB[ ]	/* 2 values pushed */\01239 19 \012MIAP[0]	/* MoveIndirectAbsPt */\012EIF[ ]	/* EndIf */\012PUSHB[ ]	/* 1 value pushed */\0120 \012RCVT[ ]	/* ReadCVT */\012IF[ ]	/* If */\012PUSHB[ ]	/* 1 value pushed */\01216 \012MDAP[1]	/* MoveDirectAbsPt */\012ELSE[ ]	/* Else */\012PUSHB[ ]	/* 2 values pushed */\01216 17 \012MIAP[0]	/* MoveIndirectAbsPt */\012EIF[ ]	/* EndIf */\012PUSHB[ ]	/* 1 value pushed */\01239 \012SRP0[ ]	/* SetRefPoint0 */\012PUSHB[ ]	/* 2 values pushed */\0122 5 \012MIRP[10100]	/* MoveIndirectRelPt */\012NPUSHB[ ]	/* 11 values pushed */\0127 2 23 2 39 2 55 2 71 2 5 \012DELTAP1[ ]	/* DeltaExceptionP1 */\012PUSHB[ ]	/* 1 value pushed */\0125 \012MDRP[10000]	/* MoveDirectRelPt */\012PUSHB[ ]	/* 1 value pushed */\01216 \012SRP0[ ]	/* SetRefPoint0 */\012PUSHB[ ]	/* 2 values pushed */\01245 3 \012MIRP[10100]	/* MoveIndirectRelPt */\012NPUSHB[ ]	/* 11 values pushed */\0127 45 23 45 39 45 55 45 71 45 5 \012DELTAP1[ ]	/* DeltaExceptionP1 */\012PUSHB[ ]	/* 3 values pushed */\01211 16 45 \012SRP1[ ]	/* SetRefPoint1 */\012SRP2[ ]	/* SetRefPoint2 */\012IP[ ]	/* InterpolatePts */\012PUSHB[ ]	/* 1 value pushed */\01248 \012MDRP[10000]	/* MoveDirectRelPt */\012PUSHB[ ]	/* 1 value pushed */\01248 \012MDAP[1]	/* MoveDirectAbsPt */\012PUSHB[ ]	/* 1 value pushed */\01226 \012SRP0[ ]	/* SetRefPoint0 */\012PUSHB[ ]	/* 2 values pushed */\01256 3 \012MIRP[10100]	/* MoveIndirectRelPt */\012NPUSHB[ ]	/* 11 values pushed */\0128 56 24 56 40 56 56 56 72 56 5 \012DELTAP1[ ]	/* DeltaExceptionP1 */\012IUP[0]	/* InterpolateUntPts */\012IUP[1]	/* InterpolateUntPts */";
};
width = 1198;
}
);
leftMetricsKey = d;
note = g;
rightMetricsKey = "=|h";
unicode = 0067;
},
{
color = 4;
glyphname = h;
lastChange = "2022-05-11 19:55:40 +0000";
layers = (
{
anchors = (
{
name = bottom;
position = "{623, 0}";
},
{
name = center;
position = "{623, 1030}";
},
{
name = top;
position = "{282, 1427}";
}
);
layerId = "410E5E1C-5FD0-457E-A79B-7BF13808BDAC";
paths = (
{
closed = 1;
nodes = (
"399 0 LINE",
"399 829 LINE",
"426 836 OFFCURVE",
"455 842 OFFCURVE",
"485 847 CURVE SMOOTH",
"536 856 OFFCURVE",
"600 866 OFFCURVE",
"664 866 CURVE SMOOTH",
"816 866 OFFCURVE",
"848 823 OFFCURVE",
"848 700 CURVE SMOOTH",
"848 0 LINE",
"1086 0 LINE",
"1086 729 LINE SMOOTH",
"1086 869 OFFCURVE",
"1056 956 OFFCURVE",
"1002 1009 CURVE SMOOTH",
"948 1061 OFFCURVE",
"868 1079 OFFCURVE",
"772 1079 CURVE SMOOTH",
"676 1079 OFFCURVE",
"582 1060 OFFCURVE",
"513 1041 CURVE SMOOTH",
"472 1030 OFFCURVE",
"434 1017 OFFCURVE",
"399 1004 CURVE",
"399 1554 LINE",
"162 1554 LINE",
"162 0 LINE"
);
}
);
userData = {
assembly = "PUSHB[ ]	/* 1 value pushed */\01228 \012MDAP[1]	/* MoveDirectAbsPt */\012PUSHB[ ]	/* 1 value pushed */\01214 \012MDAP[1]	/* MoveDirectAbsPt */\012PUSHB[ ]	/* 1 value pushed */\01228 \012SRP0[ ]	/* SetRefPoint0 */\012PUSHB[ ]	/* 1 value pushed */\0120 \012MDRP[10000]	/* MoveDirectRelPt */\012PUSHB[ ]	/* 1 value pushed */\0120 \012MDAP[1]	/* MoveDirectAbsPt */\012PUSHB[ ]	/* 2 values pushed */\0121 13 \012MIRP[10100]	/* MoveIndirectRelPt */\012PUSHB[ ]	/* 1 value pushed */\01214 \012SRP0[ ]	/* SetRefPoint0 */\012PUSHB[ ]	/* 2 values pushed */\01213 13 \012MIRP[10100]	/* MoveIndirectRelPt */\012PUSHB[ ]	/* 1 value pushed */\0121 \012SRP0[ ]	/* SetRefPoint0 */\012PUSHB[ ]	/* 1 value pushed */\01225 \012MDRP[10000]	/* MoveDirectRelPt */\012PUSHB[ ]	/* 1 value pushed */\01213 \012SRP0[ ]	/* SetRefPoint0 */\012PUSHB[ ]	/* 1 value pushed */\01229 \012MDRP[11100]	/* MoveDirectRelPt */\012SVTCA[0]	/* SetFreedomAndProjectionVectorToAxis */\012PUSHB[ ]	/* 1 value pushed */\0120 \012RCVT[ ]	/* ReadCVT */\012IF[ ]	/* If */\012PUSHB[ ]	/* 1 value pushed */\0127 \012MDAP[1]	/* MoveDirectAbsPt */\012ELSE[ ]	/* Else */\012PUSHB[ ]	/* 2 values pushed */\0127 21 \012MIAP[0]	/* MoveIndirectAbsPt */\012EIF[ ]	/* EndIf */\012PUSHB[ ]	/* 1 value pushed */\0120 \012RCVT[ ]	/* ReadCVT */\012IF[ ]	/* If */\012PUSHB[ ]	/* 1 value pushed */\01213 \012MDAP[1]	/* MoveDirectAbsPt */\012ELSE[ ]	/* Else */\012PUSHB[ ]	/* 2 values pushed */\01213 17 \012MIAP[0]	/* MoveIndirectAbsPt */\012EIF[ ]	/* EndIf */\012PUSHB[ ]	/* 1 value pushed */\0120 \012RCVT[ ]	/* ReadCVT */\012IF[ ]	/* If */\012PUSHB[ ]	/* 1 value pushed */\01226 \012MDAP[1]	/* MoveDirectAbsPt */\012ELSE[ ]	/* Else */\012PUSHB[ ]	/* 2 values pushed */\01226 17 \012MIAP[0]	/* MoveIndirectAbsPt */\012EIF[ ]	/* EndIf */\012PUSHB[ ]	/* 1 value pushed */\0127 \012SRP0[ ]	/* SetRefPoint0 */\012PUSHB[ ]	/* 2 values pushed */\01220 3 \012MIRP[10100]	/* MoveIndirectRelPt */\012NPUSHB[ ]	/* 11 values pushed */\0128 20 24 20 40 20 56 20 72 20 5 \012DELTAP1[ ]	/* DeltaExceptionP1 */\012PUSHB[ ]	/* 3 values pushed */\0122 7 20 \012SRP1[ ]	/* SetRefPoint1 */\012SRP2[ ]	/* SetRefPoint2 */\012IP[ ]	/* InterpolatePts */\012IUP[0]	/* InterpolateUntPts */\012IUP[1]	/* InterpolateUntPts */";
};
width = 1241;
}
);
note = h;
rightMetricsKey = n;
unicode = 0068;
},
{
glyphname = hbar;
lastChange = "2022-05-11 19:55:44 +0000";
layers = (
{
layerId = "410E5E1C-5FD0-457E-A79B-7BF13808BDAC";
paths = (
{
closed = 1;
nodes = (
"431 0 LINE",
"431 829 LINE",
"458.333 835.667 OFFCURVE",
"487 841.667 OFFCURVE",
"517 847 CURVE SMOOTH",
"567.667 856.333 OFFCURVE",
"632 866 OFFCURVE",
"696 866 CURVE SMOOTH",
"847.586 866 OFFCURVE",
"880 823.256 OFFCURVE",
"880 700 CURVE SMOOTH",
"880 0 LINE",
"1118 0 LINE",
"1118 729 LINE SMOOTH",
"1118 869 OFFCURVE",
"1087.5 955.833 OFFCURVE",
"1033.5 1008.5 CURVE SMOOTH",
"979.5 1061.167 OFFCURVE",
"900 1079 OFFCURVE",
"804 1079 CURVE SMOOTH",
"708 1079 OFFCURVE",
"614.333 1059.667 OFFCURVE",
"545 1041 CURVE SMOOTH",
"504.333 1029.667 OFFCURVE",
"466.333 1017.333 OFFCURVE",
"431 1004 CURVE",
"431 1219 LINE",
"712 1219 LINE",
"712 1376 LINE",
"431 1376 LINE",
"431 1554 LINE",
"194 1554 LINE",
"194 1376 LINE",
"60 1376 LINE",
"60 1219 LINE",
"194 1219 LINE",
"194 0 LINE"
);
}
);
userData = {
assembly = "PUSHB[ ]	/* 4 values pushed */\01221 13 22 4 \012CALL[ ]	/* CallFunction */\012PUSHB[ ]	/* 3 values pushed */\0128 1 3 \012CALL[ ]	/* CallFunction */\012PUSHB[ ]	/* 3 values pushed */\0120 1 8 \012SRP1[ ]	/* SetRefPoint1 */\012SRP2[ ]	/* SetRefPoint2 */\012IP[ ]	/* InterpolatePts */\012PUSHB[ ]	/* 1 value pushed */\0120 \012MDAP[1]	/* MoveDirectAbsPt */\012PUSHB[ ]	/* 1 value pushed */\0123 \012MDRP[10000]	/* MoveDirectRelPt */\012PUSHB[ ]	/* 1 value pushed */\0120 \012SRP0[ ]	/* SetRefPoint0 */\012PUSHB[ ]	/* 2 values pushed */\0129 13 \012MIRP[10100]	/* MoveIndirectRelPt */\012PUSHB[ ]	/* 1 value pushed */\0125 \012MDRP[10000]	/* MoveDirectRelPt */\012PUSHB[ ]	/* 3 values pushed */\01210 1 8 \012SRP1[ ]	/* SetRefPoint1 */\012SRP2[ ]	/* SetRefPoint2 */\012IP[ ]	/* InterpolatePts */\012PUSHB[ ]	/* 1 value pushed */\0129 \012SRP0[ ]	/* SetRefPoint0 */\012PUSHB[ ]	/* 1 value pushed */\01233 \012MDRP[10000]	/* MoveDirectRelPt */\012PUSHB[ ]	/* 1 value pushed */\01221 \012SRP0[ ]	/* SetRefPoint0 */\012PUSHB[ ]	/* 1 value pushed */\01237 \012MDRP[11100]	/* MoveDirectRelPt */\012SVTCA[0]	/* SetFreedomAndProjectionVectorToAxis */\012PUSHB[ ]	/* 1 value pushed */\0120 \012RCVT[ ]	/* ReadCVT */\012IF[ ]	/* If */\012PUSHB[ ]	/* 1 value pushed */\01215 \012MDAP[1]	/* MoveDirectAbsPt */\012ELSE[ ]	/* Else */\012PUSHB[ ]	/* 2 values pushed */\01215 21 \012MIAP[0]	/* MoveIndirectAbsPt */\012EIF[ ]	/* EndIf */\012PUSHB[ ]	/* 1 value pushed */\0120 \012RCVT[ ]	/* ReadCVT */\012IF[ ]	/* If */\012PUSHB[ ]	/* 1 value pushed */\01221 \012MDAP[1]	/* MoveDirectAbsPt */\012ELSE[ ]	/* Else */\012PUSHB[ ]	/* 2 values pushed */\01221 17 \012MIAP[0]	/* MoveIndirectAbsPt */\012EIF[ ]	/* EndIf */\012PUSHB[ ]	/* 1 value pushed */\0120 \012RCVT[ ]	/* ReadCVT */\012IF[ ]	/* If */\012PUSHB[ ]	/* 1 value pushed */\01234 \012MDAP[1]	/* MoveDirectAbsPt */\012ELSE[ ]	/* Else */\012PUSHB[ ]	/* 2 values pushed */\01234 17 \012MIAP[0]	/* MoveIndirectAbsPt */\012EIF[ ]	/* EndIf */\012PUSHB[ ]	/* 4 values pushed */\0123 7 0 4 \012CALL[ ]	/* CallFunction */\012PUSHB[ ]	/* 1 value pushed */\0123 \012SRP0[ ]	/* SetRefPoint0 */\012PUSHB[ ]	/* 1 value pushed */\0126 \012MDRP[10000]	/* MoveDirectRelPt */\012PUSHB[ ]	/* 1 value pushed */\0120 \012SRP0[ ]	/* SetRefPoint0 */\012PUSHB[ ]	/* 1 value pushed */\0128 \012MDRP[10000]	/* MoveDirectRelPt */\012PUSHB[ ]	/* 1 value pushed */\01215 \012SRP0[ ]	/* SetRefPoint0 */\012PUSHB[ ]	/* 2 values pushed */\01228 3 \012MIRP[10100]	/* MoveIndirectRelPt */\012NPUSHB[ ]	/* 11 values pushed */\0128 28 24 28 40 28 56 28 72 28 5 \012DELTAP1[ ]	/* DeltaExceptionP1 */\012PUSHB[ ]	/* 3 values pushed */\01210 15 28 \012SRP1[ ]	/* SetRefPoint1 */\012SRP2[ ]	/* SetRefPoint2 */\012IP[ ]	/* InterpolatePts */\012IUP[0]	/* InterpolateUntPts */\012IUP[1]	/* InterpolateUntPts */";
};
width = 1273;
}
);
note = hbar;
rightMetricsKey = n;
unicode = 0127;
},
{
color = 4;
glyphname = i;
lastChange = "2022-05-11 19:55:53 +0000";
layers = (
{
anchors = (
{
name = bottom;
position = "{294, 0}";
}
);
layerId = "410E5E1C-5FD0-457E-A79B-7BF13808BDAC";
paths = (
{
closed = 1;
nodes = (
"405 1234 OFFCURVE",
"433 1262 OFFCURVE",
"433 1369 CURVE SMOOTH",
"433 1478 OFFCURVE",
"404 1507 OFFCURVE",
"295 1507 CURVE SMOOTH",
"186 1507 OFFCURVE",
"155 1478 OFFCURVE",
"155 1369 CURVE SMOOTH",
"155 1262 OFFCURVE",
"186 1234 OFFCURVE",
"295 1234 CURVE"
);
},
{
closed = 1;
nodes = (
"414 0 LINE",
"414 1055 LINE",
"176 1055 LINE",
"176 0 LINE"
);
}
);
userData = {
assembly = "PUSHB[ ]	/* 4 values pushed */\01215 15 5 4 \012CALL[ ]	/* CallFunction */\012NPUSHB[ ]	/* 11 values pushed */\0126 15 22 15 38 15 54 15 70 15 5 \012DELTAP1[ ]	/* DeltaExceptionP1 */\012PUSHB[ ]	/* 3 values pushed */\01220 5 15 \012SRP1[ ]	/* SetRefPoint1 */\012SRP2[ ]	/* SetRefPoint2 */\012IP[ ]	/* InterpolatePts */\012PUSHB[ ]	/* 1 value pushed */\01220 \012MDAP[1]	/* MoveDirectAbsPt */\012PUSHB[ ]	/* 2 values pushed */\01221 13 \012MIRP[10100]	/* MoveIndirectRelPt */\012SVTCA[0]	/* SetFreedomAndProjectionVectorToAxis */\012PUSHB[ ]	/* 1 value pushed */\0120 \012RCVT[ ]	/* ReadCVT */\012IF[ ]	/* If */\012PUSHB[ ]	/* 1 value pushed */\01220 \012MDAP[1]	/* MoveDirectAbsPt */\012ELSE[ ]	/* Else */\012PUSHB[ ]	/* 2 values pushed */\01220 21 \012MIAP[0]	/* MoveIndirectAbsPt */\012EIF[ ]	/* EndIf */\012PUSHB[ ]	/* 1 value pushed */\0120 \012RCVT[ ]	/* ReadCVT */\012IF[ ]	/* If */\012PUSHB[ ]	/* 1 value pushed */\01222 \012MDAP[1]	/* MoveDirectAbsPt */\012ELSE[ ]	/* Else */\012PUSHB[ ]	/* 2 values pushed */\01222 17 \012MIAP[0]	/* MoveIndirectAbsPt */\012EIF[ ]	/* EndIf */\012PUSHB[ ]	/* 4 values pushed */\01210 9 0 4 \012CALL[ ]	/* CallFunction */\012IUP[0]	/* InterpolateUntPts */\012IUP[1]	/* InterpolateUntPts */";
};
width = 588;
}
);
note = i;
unicode = 0069;
},
{
color = 4;
glyphname = idotless;
lastChange = "2022-05-11 04:45:39 +0000";
layers = (
{
anchors = (
{
name = bottom;
position = "{282, 0}";
},
{
name = ogonek;
position = "{508, 10}";
},
{
name = top;
position = "{282, 1055}";
}
);
layerId = "410E5E1C-5FD0-457E-A79B-7BF13808BDAC";
paths = (
{
closed = 1;
nodes = (
"401 0 LINE",
"401 1055 LINE",
"163 1055 LINE",
"163 0 LINE"
);
}
);
userData = {
assembly = "PUSHB[ ]	/* 4 values pushed */\0121 13 0 4 \012CALL[ ]	/* CallFunction */\012SVTCA[0]	/* SetFreedomAndProjectionVectorToAxis */\012PUSHB[ ]	/* 1 value pushed */\0120 \012RCVT[ ]	/* ReadCVT */\012IF[ ]	/* If */\012PUSHB[ ]	/* 1 value pushed */\0120 \012MDAP[1]	/* MoveDirectAbsPt */\012ELSE[ ]	/* Else */\012PUSHB[ ]	/* 2 values pushed */\0120 21 \012MIAP[0]	/* MoveIndirectAbsPt */\012EIF[ ]	/* EndIf */\012PUSHB[ ]	/* 1 value pushed */\0120 \012RCVT[ ]	/* ReadCVT */\012IF[ ]	/* If */\012PUSHB[ ]	/* 1 value pushed */\0122 \012MDAP[1]	/* MoveDirectAbsPt */\012ELSE[ ]	/* Else */\012PUSHB[ ]	/* 2 values pushed */\0122 17 \012MIAP[0]	/* MoveIndirectAbsPt */\012EIF[ ]	/* EndIf */\012IUP[0]	/* InterpolateUntPts */\012IUP[1]	/* InterpolateUntPts */";
};
width = 564;
}
);
note = dotlessi;
unicode = 0131;
},
